<?xml version="1.0" encoding="utf-8"?>
<!-- Generator: Adobe Illustrator 17.1.0, SVG Export Plug-In . SVG Version: 6.00 Build 0)  -->
<!DOCTYPE svg PUBLIC "-//W3C//DTD SVG 1.1//EN" "http://www.w3.org/Graphics/SVG/1.1/DTD/svg11.dtd">
<svg version="1.1" id="图层_1" xmlns="http://www.w3.org/2000/svg" xmlns:xlink="http://www.w3.org/1999/xlink" x="0px" y="0px"
	 viewBox="0 0 1920 1080" enable-background="new 0 0 1920 1080" xml:space="preserve">
<path fill-rule="evenodd" clip-rule="evenodd" fill="none" stroke="#16479B" stroke-miterlimit="10" d="M820.097,283.077
	l-4.604,2.184l-0.241,0.242l-2.666,3.638v0.241h-0.239l-5.821,11.158l-2.18,2.91l-1.728,0.383l0.047-0.033h-0.959l-0.187-0.055
	v0.055h0.187l0.461,0.133l0.451-0.1l-3.844,2.769l-3.635,2.425h-0.243l-0.245,0.485v0.242l-1.209,4.853v0.239v0.244l-1.697,4.607
	l-3.875,4.85l-4.124,2.184l-9.447,1.213c-0.065-0.288-0.152-0.585-0.259-0.892v0.81l-3.133,0.901h-4.607l-2.667,4.849v0.242
	l-0.485,2.182v0.246v0.482l1.452,2.668l-0.865,0.347v0.176c0.288-0.17,0.568-0.323,0.866-0.522l-0.001-0.001l0.28-0.112
	l-3.669,4.388v0.484l0.242,0.483l2.426,2.913h0.238v0.244l3.153,3.151l3.334,3.232v0.911c0.571,0.919,1.078,2.883,1.27,5.799
	l0.487,4.608l5.087-10.671l12.117,0.728l1.209,15.034c0.729,3.398,6.305,4.367,16.729,2.913l1.21-0.244v-0.483l-0.486-5.335
	l13.329-12.612c2.185,1.211,6.541,2.183,13.084,3.396l9.453,0.972c1.213,0,1.94-0.729,1.94-1.941l0.479-0.243h0.975l0.969,1.697
	l0.244,0.728v0.241h0.24h1.212l4.846-0.725h0.245v-0.244l1.695-0.484l0.725,0.484l-2.665,4.366l-0.239,0.242l-0.244,0.242v0.486
	l1.214,5.094l-1.942,0.24l-4.846-2.182h-0.484l-15.271,10.914c-2.182,1.943-4.114,2.91-5.816,2.91h-0.482h-0.73l-0.241,0.484v0.725
	l-0.238,1.212l0.479,0.245h2.425l-0.484,2.184l-4.12,1.938l-0.236,0.246v0.486l-0.489,3.88c-1.936-0.972-3.878-1.457-5.577-1.457
	c-0.727,0-1.209,0.241-1.938,0.972c-0.483,0.727-0.483,2.424,0.485,4.85l0.726,3.637c0.247,1.94-1.694,4.124-5.572,6.789
	l-3.872,0.728v0.246l-2.67,12.126l-0.928,2.374l-0.096-0.064v0.308l0.096-0.244l0.441,0.293l-0.537,1.821v0.422h-0.124l-0.553,1.875
	l1.214,0.25c4.121,1.214,7.028,2.671,8.484,4.846c1.939,2.43,6.06,3.643,13.084,3.643c2.182,6.06,4.366,9.939,7.034,12.125
	c2.175,2.184,5.082,8.487,8.718,18.671l0.246,5.586v1.207l5.33,0.969l10.904,6.311v0.234h0.243l4.122,0.728l0.483,4.368l2.669,3.639
	l1.692,4.848c-0.976-0.821-1.509-1.328-1.799-1.633c-0.177-0.39-0.556-0.584,0,0c0.167,0.367,0.14,0.896-1.063,1.082
	c-0.421,0.104-1.258,0-2.291-0.207v0.147c0.493,0.28,0.995,0.584,1.518,0.946l6.057,4.848v0.247l-1.695,1.935
	c-1.453,0.972-2.665,2.91-2.905,6.308l-0.24,1.695l-5.096-0.97c-1.211-0.238-2.42,0.247-4.113,1.459l-0.386-0.16l-0.009-0.207v0.204
	l0.009,0.003l0.137,3.219c-4.121,4.853-6.539,7.279-7.508,7.279l-14.786,3.875l15.271,4.854l1.212,0.246v-0.246l4.118-4.854
	l9.695-0.235c2.184,0.725,3.633,2.661,4.363,5.089l0.238,0.485l0.242,0.239v0.251h0.973l2.659-0.49v1.213l-5.327,5.093l5.096,1.694
	c2.174,3.638,2.905,5.823,2.905,7.036h-3.639l-5.814,0.245c-0.965,1.216-0.965,2.423-0.24,3.879l1.208,1.453v0.49h0.484l3.633,0.479
	l-4.117,11.148l2.424-0.233h1.209l0.484,3.154l-6.781,6.058h-0.485l0.485-3.875v-0.489l-0.485-0.239l-1.21-0.241l-0.49-0.244
	l-6.053,9.944l-0.729,0.241l-0.246,0.483l-0.482,0.483l0.729,0.729c1.214,1.212,1.454,2.185,1.214,2.666l-2.913,3.643l-0.244,0.238
	l0.244,8.247l-1.21,1.939l-4.362-3.396l-0.096-0.189l0.172-0.216h-0.282l-0.04-0.078h-0.24h-0.582v0.078h0.862l0.11,0.216
	l-2.086,2.618l-0.241,1.209v0.486l0.241,0.491c0.972,0.966,1.935,1.94,3.395,2.42l-0.969,2.669l-3.635,3.636v0.488l-0.245,4.363
	l-7.269-1.214c-1.215,0-1.699,0.246-1.943,1.214c-0.482,1.214,2.428,3.636,8.003,6.547l-0.247,2.672l-6.54,3.629l-0.487,0.488
	l-0.484,0.244l2.424,4.61l0.486,1.692l-1.211,0.728l-0.728,0.729l1.938,4.365v0.729l-2.91-1.695h-0.48l-0.246-0.491l-4.842,4.849
	l0.727,0.977l2.422,2.427l-1.456,2.423l-5.33-1.7l0.968,8.739c0,2.177-1.455,4.848-4.606,7.996l-6.059-0.239h-0.729v0.483v0.724
	l0.245,3.643l-4.604-0.239h-0.487l-0.727-0.252l-0.722,5.1l-4.366,8.971l-0.969,0.967l-6.06-6.062l-0.239,7.523l-0.14-0.051v2.544
	h-0.241l-0.349,3.326l-4.36,0.244h-0.972l-0.243,0.73v0.237c-0.481,1.212-1.695,2.183-3.876,2.427
	c-3.152,0.976-5.09,2.907-5.09,6.553c-7.026,5.568-11.389,8.479-12.602,8.966c-0.244,0-0.726-0.244-0.969-0.486l-0.245-0.24v-0.248
	l-0.481-0.232c-2.912-1.221-4.848-0.971-5.817,0.481l-1.695,5.817l-0.487-0.968c-1.694-2.183-3.876-3.641-6.782-3.878h-4.124
	l-1.207,0.237v3.641l-1.941,0.968l-2.179-2.424l-0.241,0.24l-0.488,0.252l-5.575,1.932l0.727,0.973l2.425,1.941l-1.212,2.913
	l-1.455,0.481l-8.237,0.967l-6.544-11.883l-0.243-0.237l-0.484-0.245h-0.245l-4.121-0.727v0.972v0.481l0.729,18.437l-1.211,1.455
	l-2.425-0.483l-6.054-5.339l-0.976,8.484l-5.814,1.7l-0.482,0.237v0.249l-0.243,0.246l-2.182,3.63l-5.329-0.967h-5.577l0.486,3.635
	l-1.695,0.242l-1.458-1.695l-0.236-0.727h-0.246l-3.396-1.455l-0.484,1.211l-2.183,3.637l-16.716,8.007h-9.455l1.694,4.854
	l-0.48,1.689h-4.124v4.852l0.246,0.247l0.239,0.238l2.283,1.874l3.606,0.446l2.29,3.438l-0.409,1.583l-1.881,0.709l0,0l0,0
	l-1.144,1.146l-1.146,1.145l-3.604,1.134v0.412l-2.121-1.546l-2.29-3.438l-1.399-5.029v-0.419l-0.242-0.488l-1.452-3.148
	l1.008-12.685h-0.204v-0.466l-2.258-0.916l-3.395-5.093l-8.001,10.673l-1.937,0.479v-3.147v-0.489h-0.482l-0.728-0.237l-4.847-0.245
	l-5.816-10.428l-0.971,8l-4.604-0.727h-0.245h-0.238l-0.242,0.243l-0.486,0.483l-1.938,2.428l-1.21-0.486l-7.761-5.818l-0.239-0.246
	l-0.488,0.246l-0.48,0.246l-5.092,2.42l-6.057-4.121l-7.756-4.121c-2.179-0.727-3.151-3.883-2.666-9.22l4.121-4.123h-0.238v-0.485
	l-0.49-4.608v-1.21l-9.209,0.237l-4.118-2.423l-0.246-0.236l-0.235-0.249l-10.426-0.968l-0.724-1.457l-0.916-2.781l0.093-0.112
	h-0.13l0.037,0.112l-0.298,0.356l-1.213-2.184l-0.245-0.239l-0.24-0.24l-0.239-0.246l-5.089-1.447l-16.481,14.542l-5.092-0.97
	l-0.241-0.238h-0.241l-0.242,0.238l-0.243,0.246l-5.334,4.362l-12.115-3.151l-0.485,0.489l-0.242,0.24
	c-3.633,4.123-6.299,6.791-7.752,7.271c-1.457-1.934-4.365-4.607-8.725-8.001l-0.728-0.487l-8.241,6.065l-6.544-0.484h-0.728
	l-0.482-0.241l-1.938,9.937v0.495l3.149,14.303l0.242,0.242l0.972,6.309v0.241l-1.455,0.486l-5.576-1.942l-3.635-0.727l-1.454-6.062
	l-0.24-0.244v-0.236l-4.364-6.553l-8.48,7.275l-4.12-0.723l-6.543-3.646c-1.212-3.391-2.668-6.302-4.121-9.217
	c-1.211-2.178-4.605-3.875-10.422-4.365l-4.361-0.967c-0.241-1.696,3.151-7.025,10.419-15.999l1.7-2.185l-11.391-0.49l-6.304-4.609
	l2.425-10.18v-0.727v-0.238l-3.393-3.402l2.909-4.609l-0.485-0.24l-2.424-3.397l-6.301,3.153l-9.696,1.213h-0.482l-0.244,0.243
	c-1.936,1.462-3.877,2.426-5.331,2.426l0.971-3.153l2.183-2.666l-0.485-0.484l-0.485-0.48l-1.455-1.214
	c-0.24-5.583,0.243-8.737,1.214-8.978h-0.243c1.94-0.971,6.059-7.522,12.359-20.127c1.696,0.963,2.906,1.21,4.604,1.21
	c1.454-0.247,2.181-0.73,3.151-1.7c2.183-2.909,3.876-13.822,5.572-32.983v-0.476v-0.253l-4.604-10.667l-1.451,0.727
	c-1.457,1.216-3.153,1.216-4.606,0.488c-0.727,0-0.97-1.215-1.211-3.399v-6.791l-1.042-3.945l0.221-0.098h-0.246l0.025,0.098
	l-0.17,0.075h-0.243l-0.483-0.251c-3.394-6.789-6.787-9.94-10.421-9.218c-1.94,0.488-3.153,1.214-3.637,2.429
	c-0.725,1.46-0.725,3.151,0,5.332l-1.696,7.276v0.245v0.237v0.252v0.725l-0.242-0.24l-4.119-1.702l-0.485-0.487l-3.151-1.213
	l-10.42-8.726c-1.454-1.217-6.787-0.975-15.992,0l-0.246,0.245h-0.242l-15.993,9.212l-4.119,1.207l-8.484,0.245l-7.268,10.189
	l-7.515,3.881c-12.845,0.969-20.114,0.969-21.567,0c-0.972-0.731-2.668-3.156-4.848-7.278l0.242-9.212L277,593.748l0.727-6.793
	v-0.481l0.243-0.484l-14.54-2.675c-11.875-7.271-19.388-10.425-23.023-9.214c-3.395,1.218-8.242,7.519-14.299,18.913l-0.727,0.734
	l-1.94-1.452h0.243l-0.243-0.495c-3.149-2.906-4.118-4.846-3.391-6.056l2.423-2.431c2.908-2.419,3.635-4.365,2.424-6.302
	c-1.94-2.183-7.271-2.912-15.754-1.457l-6.3,0.973l-10.421-0.729l-5.816-5.096h-0.242l-3.395-1.455h-0.483l-9.21,1.704l-6.302-7.768
	l-0.242-0.242v-0.248l-8.724-4.844l-0.241-0.233h-4.122l-2.666-7.529l-5.573-1.454l-6.79-4.117l-5.569-11.639l-0.245-0.487
	l-0.485-0.489h-0.242h-0.481l-6.546,0.977l-7.997-11.891l-0.244-0.238l-1.697-0.976l-0.239-0.235l-3.639-1.46l-10.662-12.37
	l-1.212-6.054v-0.493v-0.234l-8.966-2.192l-0.245,0.245l-0.483,0.488l-3.636,6.549H82.64l-5.818-7.282v-0.24l-12.844-11.883
	c-1.211-0.971-1.938-2.186-1.938-3.874l-0.241-0.489c-4.118-5.579-7.029-8.73-8.968-9.216h-5.817
	c-2.908-3.882-3.636-7.522-2.181-11.162c1.454-4.118,2.907-6.542,3.878-7.268l0.484-0.489c0.243-0.236,0.243-0.727,0-1.454
	l-3.15-4.851l1.377-2.554l2.016,0.613h7.271l4.361-4.361c2.185-3.152,2.908-6.065,1.938-8.488l-2.178-5.096
	c-3.15-7.519-4.607-11.886-4.363-13.096c0.242-2.425,2.665-6.066,6.3-11.156l0.226-0.227v-6.315l-0.465,0.234
	c-5.818-1.938-8.727-4.852-8.97-8.728l-1.211-19.887h-0.484l-0.242-0.244l-13.089-5.578l-4.846-2.667l-3.637-1.941l6.302-5.821
	H23.992l-3.149-0.725l-1.212-7.517c4.12-6.794,4.362-11.398,1.212-14.066l-7.998-7.762l-0.246-0.241h-0.726l-3.392,0.483
	c-4.122-2.667-6.543-4.606-6.786-5.821c1.455-0.967,5.091-1.212,10.663-1.212h0.97l3.878-18.429h0.243v-0.244l-1.453-13.338v-0.485
	l-6.787-7.518l-5.333,5.579L0,276.528c0.727-3.881,1.454-6.061,2.666-6.789c0.968-0.971,1.695-2.182,1.938-4.121
	c0-1.941-0.244-3.397-0.728-5.096c0-1.457-0.484-2.424-1.211-2.909c1.453-2.909,4.363-6.063,8.483-9.458
	c3.877-3.396,6.542-4.85,8.723-4.607c3.878,0.486,7.755,1.941,10.905,3.881h0.245l0.24,0.24h0.486l5.088-1.213l1.212-3.88h6.785
	v8.974l10.66-0.24l0.246-0.486l6.787-8.002c5.814-2.185,9.934-3.154,12.358-2.426c2.666,0.481,5.331-0.486,7.995-3.395l16.722,2.424
	h0.243h0.485h0.243l6.059-5.82l15.753-0.242h0.243l2.183-1.212l4.363-3.396c4.117-3.88,6.786-7.518,7.755-11.884
	c0.24-2.184,0.966-3.154,1.452-3.395c0.727-0.243,1.212,0.484,2.181,2.425l0.727,1.455v0.242h0.484
	c0.486,0.241,0.969-0.485,1.213-1.938l4.849-15.764l0.242-0.244v-0.242h-0.242l-1.214-8.488l2.668-15.764
	c0.239-1.209-0.727-3.153-3.151-6.307l-2.908-4.121l6.542-1.213l6.06,0.486l4.12,0.242c8.965,0.484,14.541,1.697,16.48,3.151
	c2.178,1.454,4.119,2.183,6.059,1.698c1.697-0.244,3.153-1.213,4.119-2.668v-0.241l0.484-0.243l-0.243-0.483h-0.241l-2.422-10.43
	l19.872-25.466c14.781,10.429,25.447,14.553,31.745,12.126c3.397-1.212,5.575-3.637,7.029-6.79c0.968-1.941,1.697-5.093,2.425-9.457
	c0.485-3.881,1.211-6.793,1.938-7.762c1.455-2.182,4.363-4.121,8.968-5.819l7.512-2.426c1.696,0,3.151-2.425,4.607-7.518
	l1.211-3.151l11.632-1.215l2.907,15.038l0.242,0.241l0.244,0.243c3.391,1.453,5.816,4.121,7.27,7.274
	c0.968,2.669,2.91,4.852,5.574,6.064c1.453,0.97,2.909,1.455,4.362,1.939c7.271,2.182,11.39,4.365,11.874,6.791l3.636,16.976
	l3.392,10.671c-6.785,14.308-9.936,23.038-9.936,25.705c0.243,2.185,0.971,4.124,1.941,6.306l2.179,3.396h0.729
	c19.147,0.484,30.053,2.183,33.202,4.364c1.21,0.969,2.906,1.699,4.603,2.668c2.182,0.484,4.847,1.94,7.513,4.121
	c4.848,3.882,7.998,7.52,9.211,10.916v0.242l0.241,0.486v0.241h0.485h0.241l10.177,1.454l1.213,8.973v0.487l4.848,3.879
	l7.755,22.069v0.243h-0.243l-0.239,0.24l1.647,2.823h0.06l0.23-0.308l4.847-1.456l4.363,0.731l3.392,3.637v0.243l3.153,2.425
	l0.068,0.342l-0.083,0.114h0.105l-0.022-0.114l2.598-3.585c10.177,3.152,18.659,5.092,25.685,5.576
	c5.818,0.486,12.118,0.486,18.421-0.484l8.723-1.213l7.757,0.729c5.328,0.969,9.934,2.913,13.571,5.82
	c5.571,4.365,11.147,8.004,17.446,10.669c6.79,3.397,12.847,4.609,17.45,4.366l8.724-2.182l2.425,5.82h0.484l0.487-0.244
	l8.481-0.968h0.241l0.486-0.244l0.237-0.243c12.847-13.094,30.78-19.398,53.803-18.672l20.602,0.482
	c1.939-0.242,2.665-0.482,2.905-1.453c0.249-0.971-0.479-1.455-1.691-1.455l7.267-4.364h0.241v-0.243
	c7.51-11.884,12.606-18.432,15.029-19.402l1.938-0.484c3.15-0.971,5.329-1.939,6.54-2.91c1.941-1.458,2.91-3.395,2.91-6.065
	l-0.482-7.758l-1.942,1.214l-1.696,0.239c-0.727-0.484-1.457-2.425-1.694-5.334c-0.242-5.578,1.211-10.671,4.122-14.794
	c3.389-0.969,6.543-0.727,9.444,0.729c2.186,1.453,5.575,2.667,9.941,3.395l5.57,1.213h0.731l11.149-4.607h0.239h0.241l0.247-0.242
	l4.113-8.73c3.644-2.184,7.516-3.881,12.123-4.607c3.873-0.73,6.781-1.941,8.719-3.88c2.185-1.701,3.396-4.124,4.122-7.763
	l2.909-12.126l4.842-0.726c2.673,0,7.518-2.67,14.787-8.006l5.815-3.878c2.426-0.728,9.21-0.728,21.084-0.241h0.243
	c2.423-0.245,4.118-1.215,4.85-2.912c0.725-1.696,0.725-3.152,0-5.094c-1.215-3.879-6.549-8.244-16.238-13.096
	c-3.638-4.85-6.541-8.002-8.967-8.487l-8.005,0.485l-6.052,1.213l-0.244,0.242l-0.483,0.24l-2.18,3.881l-1.698,1.941l-15.511-2.424
	l-5.569,2.908l-0.244,0.485h-0.244l-1.457,2.911l-1.693-2.184c0-7.275,0.24-12.125,1.215-14.795l4.361-21.098l0.241-0.244
	l0.246-11.155c6.055,0,9.687,0.729,11.14,1.7c1.701,1.938,4.603,3.881,7.756,6.062l0.729,0.485l0.487,0.242l0.726-0.728
	c8.969-10.913,14.543-16.733,16.233-17.705l0.727-0.239c0.975-0.488,1.215-2.67,0.975-6.307V76.21l-2.185-2.424l3.156-6.062v-0.729
	c0.479-8.729,1.213-14.551,2.66-16.732l7.998-15.764v-0.242v-0.243v-0.245l-1.454-4.848l-0.482-5.093V23.1l-0.484-0.243h-0.487
	l-2.904-1.214l-0.246-0.485l-0.24,0.243h-0.244l-3.636,0.242l3.636-5.576v-0.244c1.213-3.637,3.392-5.576,6.543-5.82l6.305-0.969
	l0.016,0.068l-0.427,0.225h0.477l-0.05-0.225l2.895-1.523c11.387-6.063,18.657-8.489,21.807-7.276
	c3.637,0.726,6.056,1.939,7.756,3.15l0.482,0.486h0.246l16.964,0.243l2.178,1.211l13.571,13.342
	c1.212,0.969,5.334,5.819,12.604,14.791c7.755,9.218,11.633,14.55,12.599,16.248l9.209,20.857c0.247,0.486,0.728,0.727,1.46,0.727
	l0.481-0.482l15.994,0.726l19.147,3.396l5.334,3.153l0.482,0.484l6.302-0.484l1.21,6.546v0.244v0.243h0.243l0.244,0.242l3.39,2.426
	l2.668,3.637l-2.178,2.184l7.027,7.52v0.482h0.727h0.239l23.991-4.364h0.24h0.246l0.242-0.487l2.667-4.85l0.238-0.242v-0.242
	l1.215-7.518c5.336-1.698,8.481-3.639,9.451-6.548c0.244-1.214,1.453-2.912,3.396-4.366c1.933-1.211,3.874-1.939,5.573-1.699h2.179
	c-0.727,6.551,0.485,10.431,3.152,12.13l0.968,1.453c0.484,1.698-0.479,3.88-2.184,6.548h-0.238l-0.243,0.484l3.633,23.768
	c0.975,10.915,0.975,17.945-0.483,21.343c-2.424,5.819-4.605,9.458-7.028,10.669h-6.06l-2.906-1.211l-0.243-0.484h-3.391
	l-0.239,0.484c-2.913,2.424-5.577,4.852-7.756,7.275c-3.883,4.849-4.847,8.973-3.156,11.883c2.182,3.395,4.361,6.304,6.788,7.759
	l3.234,15.76h0.147v0.72l0.251,1.226l-0.251,0.025v0.321h1.145l0.076,12.508l-7.029,4.121l0.487,0.729l0.728,0.482l4.605,4.365
	l-0.483,1.457l-2.425,0.969l-8.488-8.972v-0.242l-0.476-0.241h-0.729l-4.12,0.968h-0.485h-0.728v1.214l-0.725,11.154l-5.337,5.094
	h-0.24c-4.601,8.246-9.447,11.153-14.542,9.459l-5.568-0.244c-0.487,0.971,0.967,2.425,4.359,4.365l7.27,7.033l-0.483,3.396
	l-15.752-1.213c-4.363-2.424-7.756-3.639-9.938-2.91c-2.668,0.486-4.604,4.123-6.297,10.184l-5.574,11.399l-0.238-2.943v-1.093
	h-0.089l0.089,1.093v3.49l-2.188,1.635l-15.023,15.763v0.243l-3.882,10.671l-2.424,2.669l-3.39,1.455l-3.145,0.725h-3.158v-0.241
	l-0.236,0.241l-3.88,1.942h-0.489l-17.932,18.43l-2.666,7.034l-1.456,1.212l-7.994,0.971l-0.245-0.486l1.456-2.667l1.937-0.485
	l1.943-0.242l0.483-0.242h0.244l1.448-2.668l0.245-0.244v-2.182l0.727-0.97l2.184-0.97h0.24v-3.882v-0.239l-2.424-2.185
	l-0.244,0.485l-0.482,0.485l-1.938,1.697l-1.694,0.728h-0.483l-0.249-5.336l1.455-3.152l3.155-3.879h0.236v-0.486l1.216-4.365
	l0.24-5.094l-0.481-4.607v-0.486h-0.247v-0.241l-4.12-6.304v-0.243l-0.478-0.243c-1.945-0.97-3.157-1.454-3.883-1.454
	 M627.918,789.938l4.604-2.42c0.247,0,0.727-0.244,0.974-0.244l-3.154-3.643l-0.486-1.212l9.938-2.422l0.245-0.487v-0.243
	l0.726-1.215h13.088h0.241l2.908-1.692l6.541,1.214l-0.484-3.64c1.217,0,2.424,0.727,3.394,2.664
	c1.211,2.189,1.455,4.854,0.971,7.768l-3.397,2.661h-0.241v0.247l-4.357,6.309v0.482l0.966,10.184l-3.391,0.977l-0.485,0.476h-0.242
	c-4.606,5.581-8.241,8.493-11.392,9.218l-7.754,1.218l-7.273-3.401v-0.24h-0.238l-7.268-0.726
	c-3.643-8.005-4.123-13.34-1.702-16.252L627.918,789.938z M799.849,786.523c0.246-0.057,0.597-0.272,1.057-0.704
	c0.527-0.509,1.337-0.925,2.461-1.256l1.128,0.202l-0.106,0.1l-0.177,0.09l-0.035,0.014l-0.033,0.013l0.068,0.375h0.038v0.016
	l0.245,0.274l-0.318,0.314l-0.033,0.012v0.016l-0.353,1.195l-1.019,1.009v0.026l-0.211,0.956c-0.142-0.029-0.317-0.071-0.458-0.163
	c-0.283-0.142-0.493-0.256-0.562-0.387l-0.038-0.043h-0.037l-1.441-0.39c-0.107-0.026-0.175-0.143-0.107-0.314l0.179-0.55v-0.011
	L799.849,786.523z M855.241,669.169c1.695-0.972,4.118-4.608,7.269-11.882c3.633-8.494,9.213-15.525,16.963-21.104l7.757,3.393
	l-0.732,1.701l-1.21,1.452l-0.241,0.251l-0.244,0.233l0.485,6.307h0.243v0.242l1.698,4.608l-2.183,5.339l-0.244,0.239v0.244
	l-2.42,20.13l-7.03,16.977v0.484l-1.456,16.003c-0.965-0.483-2.174-1.209-3.152-2.664c-1.938-2.421-3.39-4.368-3.872-6.555
	l-0.245-0.724h-0.241l-9.939-6.545c-0.721-0.49-1.206-2.424-0.721-5.334l1.21-9.218v-0.244L855.241,669.169z"/>
<g>
	<g>
		<path fill="none" stroke="#16479B" stroke-miterlimit="10" d="M391.387,585.626c0.483-1.215,1.696-1.94,3.637-2.428
			c3.634-0.725,7.027,2.428,10.421,9.217l0.483,0.25h0.244l6.058-2.674c1.211-0.24,1.695-1.455,1.695-2.666l-1.212-4.365v-0.242
			c-0.483-1.943,0-3.635,1.939-4.367l2.183-1.697l5.331-5.818l3.636-8.012c-3.15-5.082-4.119-8.725-3.15-11.15l0.727-6.789
			c-1.455-2.916-2.182-4.85-2.182-6.551c0-0.727-0.97-2.904-2.906-5.816h-0.245v-0.729l-0.729-8.727
			c-0.24-1.463-0.482-3.404,0-5.826c-2.18-1.695-3.634-3.395-4.604-5.09l-3.637-4.854l-0.242-0.238v-0.729l-1.21-6.066l-3.633-2.908
			v0.24l-7.029-5.578v0.488l0.966,7.523v0.963l-3.633,1.695l-0.484,4.609v0.73l-8.482,3.395l-2.909-6.795l-1.694-0.482l-2.666,2.666
			l-1.697,4.854l-6.06,1.697l-3.39-2.424l-4.848-1.459l-1.454-6.791l-1.939-4.119l-2.908-1.213l-0.243-0.486l-2.18-2.664
			l-2.182-3.883l-3.393-4.367h-2.908l-4.846,1.697l-0.244,0.244l-12.36-0.727l-9.45-1.941c-0.729-0.486-2.425-1.213-5.089-2.908
			l-7.271-2.42c-5.574-1.459-8.723-2.68-9.451-4.129l-1.212-0.729l-1.697-0.484l-4.363-2.424l-0.483-0.244
			c-0.727-0.973-1.454-1.697-1.939-2.672l-0.968-2.18l-1.938-2.906l-3.154-1.461l-1.209,0.732l-1.213,0.971l-0.729,0.484
			c-1.209,0.973-2.423,1.457-3.392,1.695c-1.939,0.484-3.877-0.484-6.057-2.904l-4.605-4.854c-1.698-2.18-2.907-3.883-3.393-5.094
			l-1.211-1.943c-1.697-1.695-2.908-3.393-3.637-4.85c-0.727-2.182-0.97-4.119-0.242-6.061v-0.242l3.152-5.34l1.695-5.572
			l0.728-3.639l-1.214-5.584l-3.633-3.148l0.726-4.609c0-3.395,1.214-5.1,3.636-5.58c0.727-0.24,1.211-0.727,0.97-1.691v-0.244
			l0.241-4.85v-5.824h-0.484l-0.241-0.248l-0.97-0.479v-0.242h-0.244l-4.361-2.91h-0.242l-3.39-2.91l-11.394-2.184l-3.635-2.668
			h-6.785c-0.971,0-2.182,0.727-3.878,1.693h-0.241l-5.334,1.941h-13.329c-1.936,0.488-3.635,0.971-4.603,1.943
			c-1.455,1.213-4.121,2.184-7.756,3.394l-6.302,1.451v0.248h-0.482l-8.97-0.973l-0.727-0.242l-3.15-0.242l-5.331,1.699
			l-10.663,0.969h-0.242l-0.24-0.242l-5.333-1.941h-4.362c-1.939-0.484-4.12-1.938-6.543-4.848l-0.244-0.486
			c-0.482-2.188-1.21-3.15-1.453-3.639l-1.213-0.727l-2.18-1.215l-1.939,1.941l-0.242,0.488l-7.756,3.15h-0.725l-9.454,0.971
			c-1.452,0-4.12-0.73-7.753-1.701l-8.242-1.457h-0.241l-4.847-2.662h-4.119v0.242c-0.973,2.182-2.668,3.637-4.605,5.336
			c-1.453,0.727-1.939,1.94-1.939,3.397v0.725c0,1.209-0.727,3.154-2.664,6.066l-0.242,1.211c-0.484,0.727-1.453,1.211-3.15,1.211
			l-13.816-1.693v0.236l-0.969,3.154v0.244l-0.242,0.242c-3.635,5.09-6.059,8.732-6.3,11.156c-0.243,1.211,1.214,5.578,4.362,13.096
			l2.18,5.096c0.969,2.424,0.246,5.336-1.94,8.488l-4.361,4.361h-7.27l-2.176-0.896l-1.217,2.838l3.15,4.85
			c0.242,0.727,0.242,1.219,0,1.453l-0.484,0.49c-0.971,0.727-2.424,3.15-3.879,7.27c-1.454,3.639-0.727,7.279,2.182,11.162h5.816
			c1.938,0.484,4.85,3.637,8.967,9.215l0.242,0.488c0,1.689,0.727,2.904,1.938,3.875L77.79,497.59v0.24l5.817,7.283H87l3.635-6.551
			l0.484-0.486l0.244-0.246l8.966,2.193v0.727l1.212,6.055l10.662,12.369l3.638,1.459l0.239,0.236l1.697,0.977l0.244,0.238
			l7.998,11.891l6.545-0.979h0.723l0.484,0.49l0.245,0.488l5.57,11.639l6.788,4.117l5.574,1.453l2.665,7.529h4.121l0.241,0.234
			l8.725,4.844v0.248l0.242,0.242l6.303,7.768l9.207-1.703h0.484l3.396,1.455h0.241l5.816,5.096l10.421,0.729l6.3-0.973
			c8.482-1.455,13.814-0.726,15.754,1.457c1.211,1.936,0.484,3.883-2.424,6.301l-2.424,2.432c-0.727,1.209,0.241,3.148,3.392,6.055
			l0.243,0.496h-0.243l1.94,1.451l0.727-0.734c6.057-11.393,10.904-17.695,14.299-18.912c3.635-1.213,11.148,1.941,23.023,9.213
			l14.541,2.674l-0.244,0.484v0.483l-0.727,6.793l7.27,0.969l-0.24,9.213c2.18,4.121,3.875,6.547,4.848,7.277
			c1.452,0.969,8.721,0.969,21.566,0l7.515-3.881l7.268-10.188l8.484-0.246l4.118-1.207l15.993-9.213h0.243l0.246-0.244
			c9.205-0.975,14.538-1.217,15.991,0l10.421,8.725l3.151,1.215l0.484,0.486l4.12,1.703l0.242,0.24v-1.459l1.696-7.277
			C390.661,588.778,390.661,587.085,391.387,585.626z M52.576,367.696h0.484l1.211,19.887c0.242,3.877,3.15,6.791,8.97,8.728
			l0.966-0.486h0.484l13.574,1.943h0.967v-0.246l0.243-0.484c1.455-2.664,2.424-4.605,2.424-5.09v-0.488
			c-0.242-2.18,0.727-4.123,2.665-5.576c1.938-1.457,3.15-2.908,3.877-4.606l0.244-0.24c0.727-1.943,3.15-2.43,7.271-1.219h0.238
			l4.607,2.67l15.268,2.912l9.453-0.73l6.786-2.906c1.208-1.701,2.179-2.43,2.907-2.916c1.21-0.24,2.906,0.246,4.847,1.943
			l0.968,0.486c0.969,0.727,1.697,2.182,2.667,4.848l4.847,3.639h4.604l5.089,2.184l9.45-0.727l5.333-1.697l13.814,1.209
			l6.059-1.695l7.026-2.912c1.454-0.969,3.151-1.699,5.575-2.424h13.328l4.848-1.697c1.939-1.213,3.633-1.941,5.09-1.941h7.753
			l3.636,2.668l10.422,2.18c1.455,0,2.908,1.215,5.33,3.398l4.362,2.912l0.485,0.482l9.935,0.244h0.244l4.604,2.426l6.06,1.213
			h0.242l5.089,0.725l1.454-2.906l-2.183-4.852l-0.967-4.852v-0.242h-0.244l0.729-0.729l3.393-4.609v-0.24h0.24v-0.244l3.394-2.426
			l-0.726-1.453l-1.456-4.85c0-0.729-0.727-1.213-2.181-2.184l-3.635-3.879l-4.607-3.881l-0.241-0.486l-0.483-0.242l0.242-0.242
			v-0.484l0.727-4.609v-3.395l-2.18-5.82l5.571-1.211l2.665-2.668h6.785l6.788-0.973h0.243l4.604,0.488l5.332-1.941l6.059-0.727
			l3.877-1.699h0.242l10.423-1.94l1.694-1.697l-0.483-1.941l-1.94-3.396v-0.242l-0.241-0.242v-0.242l0.485-3.637l0.242-0.244v-5.092
			l-0.969-4.365v-0.242l2.423-4.852c0.97-2.18,2.181-3.393,3.634-3.393l6.301,0.482c0.97,0,2.183-0.482,3.394-1.457l9.451-12.85
			v-0.246l0.245-0.24l5.086-4.123l0.487-0.484c1.935-0.486,3.149-1.213,3.877-1.697l1.213-1.213
			c1.693-2.182,3.149-3.154,4.117-3.154l8.239,1.699l7.029-3.396h0.483l4.121-0.482l3.391-1.457v-5.578l0.972-7.031v-0.488
			l1.213-1.938v-0.244l0.239-0.24h0.244v-0.244l-7.756-22.068l-4.847-3.879v-0.488l-1.214-8.973l-10.177-1.454h-0.727v-0.241
			l-0.242-0.486v-0.242c-1.211-3.396-4.361-7.034-9.209-10.916c-2.666-2.181-5.332-3.637-7.514-4.121
			c-1.697-0.969-3.393-1.698-4.603-2.668c-3.15-2.182-14.055-3.879-33.201-4.363h-0.729l-2.178-3.397
			c-0.97-2.182-1.698-4.121-1.94-6.306c0-2.667,3.15-11.397,9.935-25.705l-3.391-10.671l-3.637-16.976
			c-0.483-2.426-4.603-4.609-11.873-6.791c-1.453-0.484-2.91-0.969-4.362-1.94c-2.665-1.213-4.606-3.396-5.574-6.065
			c-1.455-3.152-3.879-5.821-7.269-7.273l-0.244-0.244l-0.241-0.24l-2.908-15.039l-11.632,1.215l-1.211,3.151
			c-1.456,5.094-2.91,7.518-4.607,7.518l-7.511,2.426c-4.605,1.697-7.514,3.637-8.969,5.818c-0.728,0.969-1.452,3.881-1.938,7.762
			c-0.728,4.364-1.456,7.516-2.425,9.457c-1.453,3.153-3.633,5.578-7.028,6.79c-6.298,2.427-16.964-1.696-31.745-12.126
			l-19.871,25.467l2.421,10.43h0.241l0.242,0.482l-0.483,0.243v0.241c-0.967,1.455-2.421,2.425-4.12,2.668
			c-1.939,0.484-3.879-0.243-6.058-1.697c-1.94-1.455-7.515-2.668-16.479-3.152l-4.12-0.242l-6.06-0.486l-6.543,1.213l2.909,4.122
			c2.425,3.152,3.391,5.097,3.151,6.306l-2.668,15.764l1.213,8.488h0.242v0.242l-0.242,0.244l-4.847,15.764
			c-0.245,1.453-0.727,2.181-1.214,1.939H142v-0.243l-0.727-1.455c-0.969-1.94-1.453-2.668-2.181-2.425
			c-0.486,0.24-1.212,1.211-1.452,3.394c-0.969,4.366-3.637,8.004-7.756,11.885l-4.361,3.396l-2.183,1.211h-0.243l-15.753,0.242
			l-6.058,5.82h-0.971l-16.722-2.424c-2.664,2.908-5.329,3.877-7.996,3.394c-2.424-0.728-6.544,0.242-12.357,2.426l-6.787,8.004
			l-0.245,0.484l-10.662,0.24v-8.973h-6.785l-1.211,3.879l-5.089,1.215h-0.485l-0.24-0.242H31.49
			c-3.15-1.939-7.026-3.394-10.904-3.881c-2.182-0.242-4.847,1.211-8.724,4.607c-4.12,3.394-7.029,6.549-8.483,9.459
			c0.727,0.484,1.211,1.451,1.211,2.908c0.484,1.699,0.728,3.154,0.728,5.096c-0.243,1.939-0.97,3.15-1.938,4.121
			c-1.213,0.729-1.938,2.908-2.666,6.789l3.877,2.67l5.334-5.578l6.785,7.518v0.486l1.453,13.338v0.244h-0.243l-3.877,18.43h-0.97
			c-5.572,0-9.207,0.244-10.662,1.211c0.242,1.215,2.664,3.154,6.785,5.822l3.392-0.484h0.727l0.245,0.24l7.998,7.762
			c3.148,2.668,2.907,7.273-1.213,14.066l1.213,7.518l3.148,0.725h12.359l-6.302,5.822l3.636,1.941l4.848,2.666l13.088,5.578
			L52.576,367.696z M554.348,704.348v-0.242h0.238l4.845-2.66l3.636-3.4l-0.969-7.518l-0.729-0.975l-4.601,1.951
			c-1.454,0.477-2.667,0.965-4.366,0.965h-5.33c-1.695-0.248-2.666-0.727-3.395-1.703l-0.481-7.76
			c-1.701-0.969-2.428-1.453-3.152-1.453l-1.216,0.484l-1.692,0.969l-3.392,0.729h-0.973l-0.237-0.484l-1.94-3.396l-0.242-3.15
			l1.938-9.219h0.245v-0.238l2.174-4.609l-6.78-6.062l-0.246-0.248l-0.239-0.238v-7.031l0.239-0.244l3.88-11.154l-2.424-6.062
			l-2.183-0.488l-2.666,0.246l-2.661,4.121l-3.395-2.426l-3.394-1.941l-2.666-6.787l-0.972-4.854v-0.484l-0.241-0.238l0.731-0.49
			l3.147-4.363l0.726-0.488h0.244l2.424-0.478l2.664-0.729l12.602-0.486h0.246l1.695,0.723l0.484,0.246l1.937,0.725l3.396-1.455
			l2.908-2.174l1.45-2.428l0.248-1.215l-0.248-5.338l-2.664-0.479l-5.09,1.693c-1.451,1.703-3.152,2.91-4.845,2.91
			c-1.694,0-3.15-1.463-4.607-4.125h-0.242v-0.238l-0.238-3.398v-0.488l0.238-3.152l-2.664-6.541l-5.091,1.453l-2.179,1.936
			l0.725,7.277l-7.997-3.635l1.938,4.367l0.245,0.238v0.488l-0.729,4.848v0.484h-0.24l-4.602,6.547l-7.516,4.605l-0.728,4.371
			c-0.24,0.727,0.728,2.666,1.941,5.094l0.242,0.236v0.25l0.484,6.301v0.732l-0.242,0.238l-2.907,3.881l-0.242,0.24h-0.24
			l-2.186,1.463h-0.972l-5.571-1.221c-0.967,0-2.18,0.488-3.391,1.455l-2.425,2.674l-1.941,2.418
			c-1.209,2.184-2.908,2.67-5.572,2.184c-1.695-0.242-2.18-1.941-1.695-4.121v-1.699l-0.241-1.69l-0.972,1.199
			c-0.729,0.977-1.454,1.221-2.422,1.221c-0.97-0.244-1.699-1.221-2.185-2.912v-0.24l-0.482-5.574l-1.212-5.342l-2.421-2.422
			l-0.245-0.246l-5.09-11.643l-0.24-0.236l-1.456-3.393v-0.25h-0.241v-0.244l-0.97-6.301l-0.726-0.971l-0.971,0.731
			c-1.696,1.943-2.908,3.15-3.394,3.15c-0.725,0-1.939-0.971-3.876-2.426l-3.634-1.699l-0.487-0.238l-0.244-0.24v-0.248
			l-0.239-0.486l-0.244-4.848l-0.727-3.641l-1.938-4.846h-1.94c0.242,1.936,0,3.635-0.481,4.846
			c-0.486,1.457-1.456,2.424-2.909,3.641c-0.485,1.695-1.214,2.908-2.185,3.879c-1.453,1.455-2.665,1.455-4.115,0.488l-0.729-0.24
			c-1.458-0.486-1.697-2.191-1.458-5.344v-1.213l-3.148-1.939c-1.21-0.483-1.938-1.936-2.18-4.117l1.211-10.914l-0.486-1.695
			l-3.878,4.361l-2.662,1.945l-0.728,1.69c0.968,2.184,1.454,3.881,1.454,5.098c0,2.426-1.213,4.361-3.392,5.09l-4.366,1.695
			l-1.21,0.734l-0.241,1.691v6.791c0.241,2.185,0.485,3.398,1.211,3.398c1.454,0.729,3.15,0.729,4.606-0.486l1.452-0.727
			l4.604,10.666v0.729c-1.696,19.162-3.391,30.074-5.573,32.984c-0.971,0.969-1.696,1.451-3.15,1.699
			c-1.699,0-2.909-0.248-4.604-1.209c-6.302,12.604-10.42,19.156-12.359,20.125h0.242c-0.971,0.242-1.453,3.396-1.213,8.979
			l1.455,1.213l0.484,0.482l0.485,0.482l-2.183,2.666l-0.971,3.154c1.454,0,3.396-0.963,5.332-2.426l0.244-0.244h0.482l9.695-1.213
			l6.301-3.152l2.425,3.396l0.485,0.242l-2.91,4.607l3.393,3.404v0.965l-2.424,10.18l6.303,4.609l11.391,0.49l-1.699,2.184
			c-7.268,8.975-10.66,14.305-10.419,16l4.36,0.967c5.817,0.49,9.212,2.188,10.423,4.365c1.452,2.914,2.908,5.826,4.12,9.217
			l6.544,3.646l4.119,0.723l8.481-7.275l4.364,6.553v0.236l0.24,0.244l1.454,6.062l3.635,0.727l5.576,1.943l1.455-0.486v-0.242
			l-0.972-6.309l-0.243-0.24l-3.148-14.305v-0.494l1.938-9.935l0.483,0.24h0.727l6.545,0.484l8.241-6.066l0.728,0.488
			c4.358,3.395,7.267,6.066,8.724,8c1.454-0.48,4.119-3.146,7.753-7.269l0.242-0.242l0.485-0.488l12.115,3.15l5.334-4.361
			l0.242-0.246l0.243-0.238h0.241l0.241,0.238l5.091,0.969l16.482-14.541l5.089,1.447l0.238,0.246l0.241,0.24l0.245,0.238
			l1.213,2.186l1.213-1.455H554.348z M530.148,596.813l0.483,3.162c0.486,1.451,1.459,2.178,2.18,2.178
			c0.972,0,1.941-0.726,2.912-1.943l0.242-0.486h0.243l5.818-1.939h0.238c3.153,0,4.6,0.734,5.333,2.191l0.482,6.537v0.248
			l1.213,0.242l2.427,0.727l3.633-0.24l6.059-1.701l3.631-3.152l0.246-2.66l-1.699-1.947l-6.3-2.184l-0.484-0.244v-0.238
			l-7.271-7.277l0.729-0.482l3.642-3.144l0.238-0.258l3.632-1.453h0.726l4.849,0.977h0.241l0.246,0.236v-1.936l-2.182-3.643
			l-3.396-1.691l-4.601-6.795l-0.247-0.238v-0.246l-2.18-8.004v-6.062l3.877-3.633h5.816l13.572,1.211l6.301-8.975v-0.484h0.486
			l5.087-2.664l2.67-5.34l0.241-0.244l6.059-5.092l2.905-5.334v-0.246h0.246v-0.236l2.424-2.424l2.906-4.854l0.97-7.522v-0.725
			l0.244-0.246l3.875-2.664l0.967-0.975l-5.814-0.969l-9.694,0.484l-0.237-0.244l-3.639-2.9h-0.483v-0.248l-1.941-2.908
			l-0.482,0.244l-0.249,0.484c-0.476,0.73-1.691,0.965-3.142,0.965l-1.456,0.728c-0.487,0.244-0.728,0.486-1.455,0.244
			c-0.486,0-0.727-0.725-1.214-1.938c-0.237-1.217-0.726-2.43-2.181-3.643l-0.243-0.24v-0.242h-0.238l-1.217-3.156h-0.967
			l-3.635,2.428l-0.243,0.242h-0.24l-8.484,1.695h-0.486l-0.481-0.242l-5.575-3.873l-0.242-0.25v-0.24h-0.238l-1.456-2.91
			l-4.125,4.363c-2.901,3.398-5.084,4.365-6.542,3.398l-5.571-2.91l-3.881-0.488l-0.482,0.248l-3.634-2.67l-0.246-0.244
			l-0.726-0.242l1.695-6.547v-2.182l-2.182-0.969h-0.241l-5.089-5.582l0.242-4.123l-12.604-1.205l-4.847-2.676
			c-1.211-0.723-2.179-2.18-2.907-4.606l-0.726-1.697l-0.969-3.643l-1.698,0.25l-3.877,3.154l-4.606,5.572l0.971,4.123l1.455,5.334
			v0.244h0.237l-0.237,0.244v0.244c-0.484,1.453-1.94,2.182-4.12,2.182h-4.848l-2.907-1.457l-3.636,1.457l-0.728,0.238l-0.483-0.238
			l-0.484,3.398l-0.244,0.481v0.725h-0.727l-6.058-1.934c0,1.934,0.243,3.393,1.213,5.092c0.728,1.693,0.968,2.906,0.242,4.361
			l-0.726,1.941c-0.729,0.725-2.911,0.973-6.062,0.725h-4.119l-0.245,6.799l-5.329-1.947h-0.244l-0.239-0.246l-2.667-5.084
			l-5.817-1.943l-1.451-3.156l-2.182,1.701h-0.244l-3.636,0.729h-0.969l-1.939-4.367l-1.938-2.67l-0.241-0.244
			c-1.941-2.422-2.909-4.603-3.395-5.816c0-0.244-0.485-0.725-1.695-0.969l-0.969-0.244c-1.698-0.728-2.909-2.185-3.635-4.359
			l-0.97-4.129v-3.398l-1.696-3.148l-2.908,0.967h-0.727l-5.574-1.695l-5.815-0.729l-1.938,2.182l-0.485,4.133l0.242,0.238
			l1.697,6.303l0.241,4.85v1.457h-2.909l1.214,5.818l-4.605,1.695l-1.939,3.643l2.423,1.94l0.485,0.24l8.482,6.793l0.24,0.244h0.242
			v0.484l1.213,6.057l3.877,5.582c0.969,1.449,2.181,2.908,4.361,4.848h0.245l0.242,0.24v0.248l-0.242,0.479v5.338
			c0.725,1.459,0.968,4.609,0.968,9.215c2.182,3.16,3.15,5.338,3.15,6.791c0,0.971,0.727,2.914,1.939,5.578v0.246
			c0.483,3.395,0.243,6.305-0.483,8.729c-0.729,1.699,0.241,4.848,2.907,9.215l0.243,0.242l0.239,0.484l-0.239,0.492l-3.88,8.486
			c0.729,1.934,0.971,3.398,0.971,4.365l-0.971,8c-0.485,2.668-0.485,4.125,0.729,4.607l1.453,0.971
			c2.181,0.969,2.907,2.18,2.907,3.391l-0.244,4.127l1.213,0.49l0.241,0.236l0.731-0.727c0.725-0.729,1.454-1.695,1.692-2.914
			l0.487-0.717l0.242-0.496c0.97-0.482,1.454-1.211,2.18-2.178c0.243-1.455,0.243-2.908-0.242-4.611l-0.483-1.199l1.209-0.258
			c3.879-0.965,6.06-0.723,6.788,0.977l1.939,4.848v0.482l0.968,8.012l3.152,1.691h0.484l1.942,1.701l1.936-2.188l2.181-1.695h0.728
			c1.695,0.49,2.668,1.695,3.151,3.399l0.966,6.303l0.245,0.967l6.543,14.068l2.667,2.666l0.241,0.248v0.242l1.213,5.818
			l0.482,5.574l0.245,0.488c1.694-2.424,3.147-3.637,4.118-3.152c0.971,0.236,1.21,0.728,1.21,1.695v7.031
			c1.213,0.252,2.185,0,2.424-0.725l2.423-3.395l2.668-2.666c1.697-1.213,3.394-2.184,5.332-2.184h0.241l5.087,1.211l1.455-0.732
			l2.666-3.389l-0.482-5.336c-1.697-2.91-2.425-5.336-1.941-7.035l0.729-4.361v-0.49l0.244-0.481l4.603-2.672h0.241l3.396-2.176
			l3.876-5.584l0.484-4.119l-4.36-10.188l9.692,4.367v-4.367l3.636-3.156l7.028-1.939h0.482l4.12,8.982v0.48L530.148,596.813z
			 M397.76,483.928l3.639-1.451l-1.454-6.793h3.634l-0.243-3.15l-1.937-6.551v-0.477l0.483-4.621v-0.727l0.485-0.238l2.424-3.152
			l0.484-0.483h0.727l6.541,1.209h0.242l5.335,1.457l4.602-1.457l2.666,5.34l0.242,0.236v3.881l0.726,3.643
			c0.483,1.453,1.456,2.42,2.425,2.67h0.482c2.186,0.481,3.394,1.451,3.64,2.908c0.238,1.213,1.209,2.902,2.905,4.852l2.182,3.148
			v0.244l1.454,2.666l2.182-0.248l4.12-3.629l2.665,5.574l5.332,1.697h0.242l0.241,0.244l2.666,4.848l1.212,0.727l0.242-4.606
			v-0.969l10.663-0.244l0.242-0.967c0.241-0.488,0.241-1.457-0.242-2.185c-0.727-1.455-0.97-2.67-1.212-4.367
			c-0.241-1.934,0-3.393,0.485-3.883c0.727-0.963,1.21-0.963,2.425-0.721l4.362,1.459l0.482-3.158l-7.996-3.641h-0.485l-0.242-0.48
			v-0.486l-1.212-9.699l0.243-6.062v-1.217l13.328,1.699l3.392-3.15c0.728-1.219,0.485-2.182,0-2.426
			c-3.392-1.215-5.087-2.668-5.087-4.123c0-0.725,0.24-1.701,1.453-2.185l5.575-5.572l6.058-0.246l3.148-5.334v-5.096l4.606-0.967
			c1.212-3.643,1.938-5.584,2.422-6.309l1.94-4.123l-3.392-6.066v-0.482l-2.184-8.244v-0.246l-1.451-8.486l-2.912-4.854
			l-4.359-4.365v-0.48l-0.243-0.244l-0.241-4.608l-7.997,2.422l-0.246-0.238l-3.632-4.123l-10.908-8.246h-0.242l-4.121-5.334
			l-2.664-1.701l-1.695,2.668v0.486l-0.243,0.238h-0.728l-3.393,0.246l-0.483,0.244h-0.241l-8-8.734
			c-1.695-0.729-3.393-2.424-5.814-4.85l-3.637-2.666l-0.241-0.242l-4.121-2.426l-2.422,1.941l-0.246,0.484l-0.239-0.244h-0.244
			l-2.179-0.484l-2.425,1.213l-0.241,0.242l-0.24,0.242h-0.245l-3.393,0.486c-4.603-2.666-9.209-5.336-14.056-8.244l-2.18,1.695
			c0,0.971,0.483,3.15,1.211,6.307v0.242l0.242,0.24h-0.242l-2.665,6.062l-3.636,1.457l-0.729,0.242h-0.239l-6.3-2.91h-0.245v-0.24
			l-11.875-10.914l-4.604-2.67l-7.273-2.664v-0.248h-0.241l-3.392-2.42l-6.061-1.943l-3.392,0.244h-0.242l-7.755-0.486h-0.243
			l-5.572-1.211h-3.394l-2.666,1.938c-1.453,0.729-3.393,0.975-5.817,1.459l-5.088,0.969l-4.364,1.451l-0.241,0.248l-5.331,0.484
			l-5.573,2.18h-0.727l-4.604-0.484l-7.031,0.973h-5.815l-2.424,2.42h-0.241l-2.909,0.728l1.211,2.912v4.611l-0.727,4.119
			l4.119,3.394h0.244l3.393,3.881c2.18,1.697,3.148,2.91,3.148,4.367l1.214,3.639l1.696,3.635c-0.242,0-0.242,0.242-0.484,0.242
			l-4.605,3.394l-3.15,4.127l0.727,3.637l2.184,5.092l0.24,0.48v0.25l-0.484,1.938c-0.484,1.211-0.967,2.18-1.698,2.67
			c-1.452,1.211-3.876,1.211-7.752,0l-6.058-1.215h-0.487l-4.36-2.182l-7.027-0.242l0.24,0.242l-0.729,12.125
			c-0.24,1.697-1.455,2.428-3.15,2.666c-0.728,0.244-1.21,1.215-0.967,3.156v0.242h-0.243l-0.484,3.15
			c1.694,1.459,2.907,2.67,3.39,3.639l1.215,5.818v2.189c-0.242,1.211-0.484,2.178-0.971,3.15l-1.695,4.852l-3.15,6.06v1.213
			l0.486,2.914l3.147,4.119c0.968,1.215,1.456,1.938,1.698,2.67l2.908,4.121l4.361,4.848c1.697,1.703,2.907,2.43,3.392,2.43
			l4.606-2.912c0.971-0.723,1.695-1.213,2.906-1.213c0.972,0,2.423,0.729,4.606,2.18h0.241v0.248l2.424,2.908l1.211,2.91
			l0.973,1.213l0.724,0.484l3.151,2.183l1.698,0.24c0.968,0.246,1.935,0.977,2.665,1.941c0.482,0.729,3.15,1.699,7.755,2.904h0.241
			l7.271,2.68h0.486l5.089,2.42l8.721,2.184l0.244,0.238l11.389,0.486l5.092-1.935h4.604v0.234l0.242,0.248l3.875,4.848v0.244
			l2.424,3.885l1.94,2.172l2.667,1.219l0.24,0.24l0.243,0.246l2.179,4.85v0.25h0.246v0.234l1.209,5.334l3.394,1.217h0.484
			l2.665,1.697l3.637-0.73l0.97-3.639v-0.238l0.242-0.248l4.118-4.117l4.607,1.207v0.488l2.181,4.854l4.605-1.703l0.483-4.605
			v-0.486l0.241-0.236l3.153-1.705l-0.728-6.783v-0.73L397.76,483.928z M395.519,276.756l-0.726,0.242l-4.604,1.697v0.244
			l-4.365,0.24c-2.18,1.215-4.604,2.426-7.267,3.396l-0.487,0.244h-0.242l-8.239-1.941l-3.393,3.637
			c-0.726,0.969-2.425,1.94-4.604,2.424l-5.088,4.125l-2.668,4.121v0.244l-0.242,0.242c-1.455,2.182-2.665,3.881-3.635,4.605
			l-2.909,3.641v0.24l-0.241,0.244l-1.697,1.213c-1.21,0.482-2.423,0.728-3.393,0.728l-6.058-0.486l-1.453,2.182l-2.184,3.881
			l0.973,3.879l-0.487,9.461l1.698,2.908v0.244l0.726,2.182h3.394l5.815,1.215l7.514,0.482l3.392-0.482h0.73l6.539,2.422h0.247
			l3.39,2.67l7.271,2.668h0.242l4.85,2.91l11.875,10.91l5.33,2.428l2.182-0.973l2.18-4.121l-1.213-6.547
			c0-1.942,1.456-3.154,4.363-4.365l0.488-0.242l14.781,8.729l1.695-0.484l3.393-1.941h0.486l1.937,0.244l2.912-2.426l0.482-0.242
			l0.727,0.484l8.724,6.062l0.244,0.244l5.575,4.605c1.451,0.973,3.393,2.67,5.087,5.096l2.666,2.912l2.183-0.248l2.422-4.606
			l5.087,3.637h0.488l4.118,5.094l10.904,8.248l3.153,3.637l9.451-2.668l0.483,7.033l4.116,4.123v0.24l3.398,5.096v0.723
			l3.635,16.736l3.637,6.793l-4.85,12.371v0.723l-4.12,0.975v3.637l-0.242,0.244l-4.12,6.787h-0.481l-5.818,0.49l-5.818,4.844
			c0.729,0.731,1.696,1.213,3.396,1.94c2.423,0.732,2.662,2.676,1.451,6.066v0.24l-4.118,4.125h-0.244l-0.241,0.484h-0.483
			l-11.634-1.691l-0.244,4.113l1.212,8.734l9.695,4.123v0.484l3.634-1.213l0.245-0.24l0.483-0.244l0.245,0.484h0.242l2.664,1.455
			h4.12l1.455-0.242l-1.455-4.607l-0.968-4.85v-0.729l0.241-0.242v-0.242l1.452-1.699l0.489-0.486l0.24-0.238l2.666-3.637
			l0.236-0.242l4.369-3.4h0.241v-0.24h0.241l5.332-0.727v1.453c0,1.703,0.241,2.914,0.486,3.639l0.967,2.182l1.451,3.15l4.85,2.672
			l13.33,1.217h1.21v1.213l-0.486,4.361l3.88,4.123l2.909,1.213l0.483,0.242v0.248l0.246,0.479v4.123l-1.21,4.85l1.691,1.213
			c1.941-0.242,3.634-0.242,5.331,0.971l5.573,2.668l3.393-2.668l3.64-3.881l0.238-1.699l0.241-0.484l0.489-0.244l0.479-0.484
			v-0.482l-1.209-5.098l-0.238-2.662l-0.245-0.24v-0.246l0.245-0.244v-0.242l1.938-3.152l0.245-0.24l3.87-2.668h8.244l1.214-0.482
			l-0.247-4.127l-1.213-3.639l-2.664-4.365l-0.245-0.238v-6.553l1.452-3.633l0.248-0.246l6.543-9.457l0.24-0.246h0.244l0.487-0.24
			h1.452l2.421,0.24l5.574,3.158l5.156,2.285l2.29-1.146l-4.055-2.355v-0.727c0-1.455,0.729-2.668,2.182-3.879l4.364-3.154
			l0.24-0.236v-0.25c2.43-0.726,3.879-1.211,4.849-1.211l3.877-0.484h0.488l2.421,0.484l1.698-6.062v-4.123
			c0-2.672,0-4.369,0.728-4.852l1.694-3.152l-2.182-2.914l-2.907-1.938l-6.06-1.699c-1.211,0-3.393-1.209-7.027-4.369l-3.637-1.689
			h-0.242l-0.242-0.246l-4.362-5.334h-4.122l-0.241-0.244h-0.243l-3.631-1.938l-2.186,2.904l-0.483,11.402l0.731,4.363h1.693
			l0.244,0.246l3.39,0.967v0.488l1.695,4.117h0.244v0.488l-0.971,7.521v0.73l-0.243,0.236c-1.209,0.729-2.179,1.213-3.389,1.945
			l-0.49,0.24l-0.236-0.24h-0.244l-1.693-0.488l-3.881,1.453h-0.239l0.239,0.729l0.242,0.246l0.727,6.549
			c0,0.965-0.479,1.453-1.455,1.693h-2.908c-1.453-0.24-2.181-0.728-2.906-1.453l-2.906-2.184l-0.246-0.24h-0.246v-0.24l-1.69-4.125
			c-0.482-0.486-1.694-1.215-4.121-1.939h-0.485l-3.393-2.43h-0.487v-0.482l-0.964-4.123l0.485-3.156h0.241v-0.242l1.452-1.693
			v-1.217l-1.452-4.363l-3.394-3.154v-0.488l-0.97-9.94l-2.425-2.424h-0.24l-0.241-0.244l-1.942-4.607l-8.723-0.971
			c-2.183-0.727-3.635-2.182-4.607-4.123h-3.874c-1.454-0.486-2.908-1.457-4.604-3.154l-0.488-0.484
			c-0.966-0.967-1.937-2.424-2.907-4.367l-0.244-0.24l-0.722-3.879v-0.488l1.451-7.516v-0.244l1.456-3.152v-0.484h0.24l9.209-3.881
			l3.635-4.365l0.727-3.637l-0.482-2.668c-1.454-3.154-2.425-5.092-2.425-6.305l-1.939,0.242l-3.39-0.242
			c-0.729,0.242-2.668,2.426-5.335,5.576l-4.119,3.881h-0.241l-0.244,0.244c-3.149,0.727-5.329,1.213-6.543,0.727l-7.998-2.91
			h-3.875l-1.215,2.666l2.181,2.184v0.484l0.971,3.156l0.244,0.238v0.729l-0.484,0.246l-5.334,2.664l-0.24,0.242h-0.485
			c-4.119-0.484-6.303-1.693-7.028-3.395l-1.456-2.91l-7.268-1.455l-1.939-9.217c-1.455-0.242-2.667-0.967-3.394-1.938l-0.243-0.486
			c-1.211-1.693-2.183-2.668-3.635-2.908c-1.939-0.731-3.638-2.186-5.089-4.367l-2.909-1.697h-0.239l-3.879-3.879l-0.971-3.397
			v-0.244l7.756-10.67c0.242-0.727,0.483-1.213,0.242-1.453l-1.453-3.396l-4.121,1.697h-0.241v0.244h-0.244l-10.664,0.727
			l-4.118,0.969l-1.454,1.457l-0.727,1.455c-0.969,1.211-2.424,1.94-4.606,1.455l-0.241-0.244l-3.634-2.666l-0.244-6.064
			c-1.94-1.453-3.148-2.91-3.634-4.123l-0.97-5.334l-2.426-2.91l-2.663-2.184l-1.211-0.727l4.362-5.578l0.966-3.152l-4.847-6.062
			h-0.238v-0.244l-2.184-4.85v-0.242l-0.482-2.424l-3.153-2.426v-0.244l-3.392-3.635l-4.363-0.732l-4.847,1.455l-0.727,0.971
			l-0.727,6.793V276.756z M414.898,265.131v0.242l0.239,2.424l2.185,4.607l5.088,6.305l0.241,0.73l-0.968,4.607v0.242h-0.245
			l-2.908,3.879l3.153,3.154c1.21,1.213,1.937,2.182,1.937,3.152l0.728,4.609l3.635,3.635v0.486l0.482,3.152v2.426l2.185,1.697
			l1.455-0.482l0.238-0.73c0.729-1.94,1.94-2.91,3.638-3.15l1.938-0.729l12.846-1.213l5.089-1.94l0.484-0.244l0.727-0.486
			l2.669,5.822h0.237c0.244,1.455,0,2.67-0.727,3.879l-7.028,9.943l0.485,1.697l3.152,3.154l3.15,1.941h0.24
			c1.456,1.94,2.668,3.154,4.122,3.637c1.696,0.486,3.393,1.939,4.846,3.877l0.242,0.73l2.425,0.971l0.729,0.244h0.24l0.725,2.664
			l0.245,2.67l0.971,3.879l6.056,0.971h0.485l0.242,0.244v0.24l0.239,0.486l1.698,3.394l4.849,1.697l3.393-1.697l-0.486-1.941
			l-3.147-2.906l0.484-0.488v-0.484l2.663-5.094h5.817l0.242,0.244l8.239,2.908l4.604-0.727l3.633-3.396
			c4.122-5.092,6.788-7.273,8.487-6.061l1.937-0.244c2.182,0,3.392,0.244,4.122,0.484c0.239,0.486,0.485,0.975,0.485,1.457
			c0,0.971,0.966,2.908,2.424,5.578v0.484l0.724,3.394v0.729l-0.97,3.881v0.24l-0.24,0.242l-4.122,4.85l-0.241,0.242l-8.725,3.885
			l-1.214,2.42l-1.211,7.037l0.731,3.391l2.179,3.641l0.97,0.729l2.905,1.939h10.185l8.481-1.213l1.211-1.213
			c1.208-1.451,2.422-1.938,3.149-1.938l5.814,0.969l0.483-0.969c-0.483-1.701-0.483-3.156,0.489-4.609l2.422-4.123v-8.002
			l4.361-12.615l0.246-0.238v-0.244h0.237v-0.244l7.516-6.061l0.483-0.482l6.544,2.908c3.396,2.426,5.092,4.361,5.092,5.578
			l-0.489,5.334l-2.181,3.398l-1.693,4.848v5.338l1.693,2.424l2.181-0.244l0.489-0.24l3.63,0.24c1.943,0.971,3.157,2.67,4.123,5.09
			l2.176,0.732h0.49l8.24,3.879l3.633,1.211l5.092-0.727l2.181-2.91l2.905-11.881l0.245-6.551v-0.486l0.48-0.242l0.247-0.24
			l4.603-3.881l2.666-3.394l0.238-0.244l4.851-2.182l2.906-1.697l3.637-1.453l-1.938-7.277l8.239,0.971v0.242l4.363,1.695v-0.238
			l1.207-4.609v-0.727l0.733,0.242h0.483l3.876,0.969h1.94l3.633-4.123h0.24l0.244-0.242h0.247l4.846-0.969l4.119-3.881l2.182-3.154
			v-3.879c0-1.457,0.726-2.424,2.18-3.152h0.728l4.605,0.484l1.938-1.213l0.727-3.397l4.847-1.453h0.486l6.057,0.727l4.852-1.215
			l2.906-2.908l1.936-3.881l-3.637-3.879v-0.244l-0.724-2.91l-0.969-4.365v-0.242l2.182-3.879c0-1.213,0.725-2.912,2.665-4.85
			l2.666-5.334v-0.246h0.241l2.425-3.879l3.634-7.277l3.391,4.852l0.246,0.242v0.244l1.211,4.848v0.244l0.725,4.852l3.395,1.455
			h0.243l0.97,0.484l0.239-0.244l2.906-5.092l1.7-4.848l0.728,0.24l0.727,0.244l7.024,2.424l3.398-2.668l0.241-0.24h0.484
			l3.394-0.246l2.422-4.121v-5.094l1.697-7.76l0.481,0.242h0.73l5.328,1.213l2.425-4.365h0.725l4.853-0.484h0.724v0.24l0.488,0.244
			l2.421,3.395v0.242l0.243,0.244v0.484l0.485,4.85l2.422,2.184l3.392-3.156l0.726,0.973c1.217,1.213,1.698,2.426,1.698,3.879v4.367
			l-1.698,4.363l1.217,1.941l2.422,2.67l10.18,1.451l0.243,0.244l0.484,0.244l0.725,0.727l2.91-4.123h0.242l2.424-2.426
			l-0.973-3.637l-2.66-15.522l7.022,3.395h0.486l3.152,3.881l1.935,1.941l2.91-1.941l10.176-11.154h0.246l3.637-2.67l4.115-5.818
			l0.246-0.486l5.574,1.457h2.664c0-2.184,0.482-3.639,0.726-4.609l4.125-4.85l1.21-0.727l4.843,1.695l5.814-0.727l3.882-4.125
			l1.938-3.637l-1.211-1.941l-3.396,1.699l-0.238-0.244l-0.245-0.24l-4.36-3.881l-0.243-0.24l1.695-6.55l0.487-4.852l-1.216-4.12
			l-3.392-1.213v-0.242l-0.243-0.244l-0.237-0.244l-2.911-5.819l-0.483-0.726l-4.121,4.85l-4.12,2.666l-0.967,0.486l-0.242-0.243
			l-0.246-0.483l-4.359-4.125v-0.24l-3.146-6.79v-0.243l-1.458-4.852v-7.521l-0.483-4.361l-3.395-1.213h-0.242v-0.244l-7.755-6.061
			l0.484-0.729l3.633-3.88v-0.486h0.486l4.119-0.483h0.243c1.213,0,2.426,0.728,3.393,1.938l3.395,2.67l3.637-2.91l2.664-3.639
			v-3.151l-0.969-7.763l-0.727-3.15l-5.335-0.97v-3.154l-4.845-6.063l-0.247-0.242l-2.423-4.365l-0.482-0.485v-0.483l5.332-7.035
			v-0.24l0.243-0.244v-0.242h0.484l2.179-0.243l2.669-2.183l3.151-9.7h0.242v-0.241l3.877-4.363v-0.246h0.481l4.366-1.211v0.484
			l2.905,2.426l0.973,0.24l1.692-7.518l-1.692-5.333l-0.246-0.243v-0.484l0.727-6.064v-0.484l2.911-3.152l1.936-3.396l0.243-2.909
			c0-1.456-0.726-3.882-2.179-7.521v-6.062l1.209-5.093c-0.968-2.181-1.695-3.878-1.695-5.092l0.967-6.791l-1.691-5.335
			l-4.363-7.518l-3.639-1.941l-3.635,1.941l-2.18,4.365l-0.24,0.485h-0.727l-6.785,1.213c-0.73,0.483-1.456,0.726-1.94,1.454
			l-1.456,1.699l-3.637,2.908l-0.967,0.484l-3.149,0.488c-1.455-0.245-3.636-1.457-6.543-3.639l-0.245-0.242
			c-4.844-4.852-7.269-8.245-7.269-10.186v-6.791l0.728-1.214l-7.027-2.427l-0.242,2.427c0,0.729-0.73,1.698-1.941,2.427
			l-2.421,0.968l-0.971-0.243v-0.239l-3.636-0.729l0.728,2.668l-6.301-4.122h-0.243l-0.244-0.243
			c-0.968-2.668-1.453-5.336-1.453-8.244c0-2.426,0.244-3.883,1.211-4.85l1.455-2.669l-0.48-2.183l-6.306,0.969
			c-3.151,0.244-5.33,2.184-6.542,5.82v0.244l-3.637,5.576l3.637-0.242h0.243l0.241-0.244l0.245,0.486l2.904,1.213h0.487
			l0.484,0.244v0.727l0.483,5.094l1.453,4.848v0.73l-7.998,15.764c-1.447,2.182-2.181,8.003-2.66,16.732v0.728l-3.155,6.062
			l2.184,2.424v0.486c0.24,3.637,0,5.818-0.974,6.307l-0.728,0.238c-1.69,0.973-7.265,6.793-16.233,17.705l-0.726,0.729
			l-0.487-0.242l-0.728-0.486c-3.152-2.18-6.056-4.124-7.756-6.061c-1.453-0.973-5.086-1.701-11.141-1.701l-0.246,11.156
			l-0.241,0.244l-4.36,21.098c-0.976,2.669-1.216,7.519-1.216,14.794l1.694,2.184l1.457-2.91h0.243l0.244-0.485l5.569-2.908
			l15.511,2.424l1.699-1.941l2.179-3.881l0.483-0.24l0.245-0.242l6.051-1.213l8.006-0.486c2.425,0.486,5.328,3.638,8.966,8.488
			c9.69,4.852,15.024,9.217,16.238,13.096c0.725,1.942,0.725,3.396,0,5.093c-0.731,1.698-2.427,2.668-4.85,2.912h-0.242
			c-11.875-0.485-18.659-0.485-21.085,0.241l-5.815,3.879c-7.269,5.336-12.114,8.005-14.786,8.005l-4.843,0.726l-2.908,12.127
			c-0.728,3.639-1.938,6.06-4.123,7.763c-1.938,1.938-4.846,3.149-8.718,3.88c-4.608,0.726-8.48,2.424-12.123,4.607l-4.114,8.731
			l-0.247,0.242h-0.479l-11.15,4.607h-0.731l-5.569-1.213c-4.366-0.729-7.756-1.941-9.942-3.395
			c-2.901-1.455-6.056-1.697-9.444-0.728c-2.911,4.123-4.364,9.215-4.122,14.793c0.237,2.91,0.968,4.85,1.694,5.336l1.696-0.24
			l1.942-1.215l0.482,7.76c0,2.67-0.968,4.605-2.91,6.064c-1.211,0.971-3.39,1.939-6.54,2.91l-1.938,0.484
			c-2.424,0.971-7.521,7.518-15.029,19.402v0.242h-0.242l-7.267,4.365c1.212,0,1.941,0.484,1.691,1.455
			c-0.24,0.971-0.966,1.211-2.904,1.453l-20.603-0.482c-23.021-0.727-40.956,5.578-53.803,18.672l-0.237,0.242l-0.486,0.244h-0.241
			l-8.481,0.969l-0.487,0.244H535.1l-2.424-5.82l-8.725,2.182c-4.603,0.242-10.66-0.971-17.449-4.367
			c-6.3-2.664-11.875-6.303-17.447-10.668c-3.637-2.908-8.243-4.852-13.571-5.82l-7.757-0.729l-8.723,1.213
			c-6.303,0.971-12.602,0.971-18.42,0.484c-7.026-0.484-15.508-2.424-25.686-5.576l-0.729,1.455h0.486L414.898,265.131z
			 M569.245,390.69l3.636-5.094l5.331,2.91h3.149l2.427-15.766c-0.728-1.695-1.455-2.91-2.906-3.637l-1.459-0.24v0.24h-0.729
			l-3.875,0.727l-0.24-0.483l-0.243-0.244l-2.664-3.396v-0.24l-0.248-0.244v-6.062l0.971-3.396l0.971-1.451
			c0-0.973,0.244-1.943,1.214-3.156l0.967-1.213l0.241-4.121l-3.633-3.394l-4.85-2.426l-6.541,5.578l-4.361,12.127v8.244
			l-2.425,4.123l-0.484,2.908c0.484,1.699-0.245,3.156-1.938,4.125l-0.489,0.242h-0.238l-0.245-0.242l-6.06-0.729l-3.149,2.908
			l-9.207,1.459h-3.88l2.424,1.697l8.722,0.969h0.975l0.242,0.24v0.246l2.178,5.336l2.427,1.695
			c0.727,0.967,1.213,2.426,1.213,5.094l0.24,6.551l2.905,2.668h0.245v0.24h0.247l1.451,4.852v2.666l-1.698,2.428l-0.482,2.178
			l0.729,2.43l2.902,1.938c3.15,1.213,4.848,1.941,5.577,3.154l1.694,3.637c1.938,0.977,2.906,1.943,3.393,2.912l2.187,0.728h0.234
			l-0.97-5.334c-0.238-1.217-0.238-2.426,0.242-2.916c0.493-0.728,0.974-1.207,1.94-1.453l3.636-1.209l0.241-0.248h0.242
			l0.248,0.248l1.693,0.48l2.181-1.213v-0.484l0.727-6.062l-1.453-2.908l-1.938-0.971l-2.425-0.242h-0.485l-0.485-0.246
			l-0.966-6.305l0.24-12.367L569.245,390.69z M558.996,471.913l-3.389,2.184l-1.456,2.428l0.24,0.238l1.454,7.275h0.242v2.906
			l1.695,3.4l5.089,3.397l7.513-1.701l3.636-2.42l0.486-0.246h3.393l1.943,4.606c1.205,1.217,2.178,2.424,2.659,3.879l1.702-0.24
			h0.966l0.242-0.482l3.392-2.668l3.15,5.584l3.396,2.176h4.847l3.635-0.479h0.727l8.722,1.205h0.247v0.242l3.633,2.182v0.248
			l3.147,2.424v0.24l2.182,2.422l2.423,0.975l3.877-0.486v-5.096l-1.936-3.393h-0.243v-0.244l-1.452-6.303l3.392-3.393l0.239-0.244
			h0.246l2.91-0.488h3.146l0.971-1.209l-1.938-2.67l-7.026-4.611l-1.694-2.662l-0.246-0.24l-0.246-0.246l0.246-0.479l1.94-3.641
			l0.481,0.481l4.851,1.207l12.843-0.477l0.24,0.242h0.244l3.633,1.211l2.422-2.184l-1.21-7.521l-4.604-2.902
			c-3.878-2.184-5.086-7.52-4.366-16.252l-3.873-1.943l-0.484-0.238h-0.485v-0.728l-0.727-6.305l5.328-24.742
			c-2.181-7.273-3.391-12.121-3.391-14.549l-0.482-7.281l0.482-7.998v-0.483l0.486-0.488l4.849-3.639v-3.879
			c0-0.971-0.486-2.426-1.703-4.369l-3.146-3.391H638v-0.727l-0.482-5.82v-0.246l-0.243-0.238l0.484-0.248v-0.24l6.302-8v-3.398
			l-1.94-3.639v-0.24l-0.246-0.486l3.156-3.879v-0.242h0.243l3.392-2.668l-0.483-3.15h-1.701l-2.662-0.484l-1.453,5.816
			l-0.733-0.244l-6.295-2.422l-3.878-0.73l1.453,6.065l-5.332,1.699l-7.754,4.121l-2.426,3.152v0.242h-0.24l-4.121,3.639
			l-0.724,5.822v0.483l-2.184,8.248h0.239l-0.965,3.879v0.242l-0.244,0.242l-2.664,3.639h-0.243v0.238l-0.241,0.244h-0.241
			l-5.817,0.73v0.24l-0.245-0.24l-8.725-2.912l-0.241-0.244l-4.12-1.938l-1.454-0.242l-2.422,14.793l4.122,4.854l3.874,1.695h0.241
			l0.245,0.238l5.088,4.129l7.027,1.695h0.241l3.64,2.426h0.24v0.484l2.665,3.881l0.481,0.486l-0.242,0.482l-2.42,3.881
			c-0.484,0.484-0.484,1.699-0.484,3.641h0.241v4.605l-0.241,0.248l-2.182,7.273l-0.24,1.215h-0.486l-0.727-0.242l-3.153-0.727
			l-4.118,0.24l-3.635,1.213l-4.122,3.393l-0.968,0.973l5.333,2.668l-0.486,0.971c-0.245,1.209-1.452,2.42-3.392,3.15l-3.395,0.24
			l-5.574-2.182l-5.089-2.904h-2.18l-6.061,8.725l-1.212,2.91v5.092l2.425,4.125v0.242l1.456,3.879v0.488l0.238,5.574v0.732
			l0.242,0.48l-3.877,0.729H558.996z M966.506,194.46l-2.913,0.485h-0.244l-3.873-1.94c-1.457-0.244-3.394-1.213-6.302-2.91
			c-1.457-0.728-2.427-1.455-2.427-2.426v0.244c0,0.969-0.242,1.453-0.728,1.697c-0.727,0.484-1.694,0.727-3.395,0.727h-0.24
			l-0.238-0.242h-0.245l-3.391-2.426l-2.912,2.426c-1.452,1.213-2.424,2.182-2.424,3.152l1.456,3.153
			c0.727,0.97,0.727,1.454,0.484,2.181c-0.484,0.728-1.697,1.457-3.394,1.699l-1.451,0.728c-1.698,0.485-3.153,0.241-4.117-0.97
			l-0.49-0.729l-6.302-6.549c-2.905-0.969-4.602-2.182-5.328-3.637c-0.487-0.728-0.734-1.455-0.487-1.939
			c-0.247-2.184-0.725-3.639-1.212-4.367l-1.211,0.729l-0.245,0.487c0,0.727,0.245,1.454,0.975,2.423l0.239,0.485l0.242,0.243
			l-0.242,0.484l-3.39,5.578l-5.574-1.215l-1.211-0.725v-0.729c0.479-0.969,0.479-2.184,0-3.395l-0.731-1.941l-4.6-3.394
			l-0.249-0.243c-0.478,0.727-0.968,0.727-1.448,0.971l-4.368-0.486c-1.456-0.241-2.419-0.484-2.901-1.456
			c-0.244-0.483-0.244-1.452,0.238-2.665l0.244-0.73l-1.937-3.395l-8.483,0.485c0.24,1.214,0,1.94-0.487,2.909
			c-0.241,0.73-1.21,0.973-1.938,0.973c-1.208,0.484-2.668,0-3.877-1.213v-0.242h-0.24c-1.94-2.182-2.674-3.879-2.674-5.338
			l-1.694-2.424l-2.418,1.698c-2.18,1.211-3.632,1.211-4.363,0.241l-0.969-0.241l-2.424,0.241l-6.542,2.184
			c-1.458,0.969-2.667,1.212-3.636,1.212h-0.73c-2.424,0-3.875-0.728-4.848-1.698l-3.879-3.152l-4.843-7.517l-0.972-5.093
			l-2.42,1.454h-0.243l-5.82,2.185l-0.242-0.488l-0.968-0.24v2.668l-0.244,0.242l-2.907,4.365h-0.239v0.242h-0.241l-4.367,3.637
			h-0.482v0.484l-0.729-0.484c-2.904-1.211-4.844-2.666-5.328-3.879c-0.484-0.485-0.725-0.485-1.213-0.727l-3.147,0.484
			l-1.945,1.939l5.093,4.365l4.121,1.695l0.246,0.244h0.237l0.242,0.486v0.242l0.729,4.849h0.237v7.521l0.974,4.365l2.908,6.789
			l3.393,3.153l2.664-1.938l1.939-2.428v-0.242h0.242l3.398-4.121l2.902,2.667v0.483l2.91,5.579l3.634,1.454l1.94,5.821v0.483
			l-0.246,5.336v0.244h-0.234l-1.46,4.849l2.667,2.427l2.906-1.454l2.909-2.913l0.726,0.486l2.425,0.727l2.909,2.669l3.148-0.727
			c2.426-0.727,3.633,0,4.367,1.697v2.184l0.482,0.24l3.391,0.971l1.453-3.152v-1.212c0-0.969,0.241-1.941,0.969-2.182l1.938,0.24
			c2.672,1.214,3.884,2.911,3.884,4.852l-0.247,1.697v2.908l2.67,3.881l3.148,3.394c0.968,1.215,2.18,1.699,3.39,2.185h0.487
			c0.729,0.484,1.211,1.695,1.211,4.365v10.912c0.485,0.969,1.214,1.699,1.94,1.939h0.486c1.454-0.728,2.424-0.486,3.634,0.727
			l0.727,0.486c1.211,0.242,2.178,1.211,2.419,3.152l0.491,6.064l5.574-11.4c1.692-6.062,3.629-9.697,6.297-10.184
			c2.183-0.729,5.575,0.486,9.938,2.91l15.751,1.211l0.484-3.394l-7.27-7.035c-3.393-1.939-4.847-3.393-4.359-4.363l5.568,0.244
			c5.095,1.693,9.94-1.215,14.542-9.459h0.24l5.336-5.095l0.726-11.153v-1.215h1.214l4.12-0.968h0.729l0.477,0.241v0.242
			l8.488,8.972l2.424-0.968l0.484-1.457l-4.605-4.365l-0.729-0.482l-0.486-0.729l7.029-4.121L966.506,194.46z M986.013,116.518
			l-3.633-23.768l0.243-0.484h0.238c1.704-2.668,2.668-4.85,2.184-6.549l-0.968-1.453c-2.667-1.698-3.88-5.578-3.152-12.129h-2.179
			c-1.699-0.24-3.641,0.488-5.573,1.699c-1.942,1.453-3.151,3.152-3.396,4.365c-0.97,2.91-4.115,4.851-9.451,6.549l-1.215,7.518
			v0.242l-0.238,0.242l-2.667,4.85l-0.242,0.487h-0.486l-23.991,4.364h-0.966v-0.483l-7.027-7.518l2.178-2.184l-2.668-3.637
			l-3.391-2.427l-0.243-0.241h-0.243v-0.487l-1.21-6.546l-6.302,0.484l-0.481-0.484l-5.334-3.153l-19.147-3.396l-15.994-0.726
			l-0.481,0.482c-0.732,0-1.213-0.24-1.46-0.727l-9.209-20.857c-0.966-1.697-4.844-7.029-12.599-16.248
			c-7.27-8.971-11.392-13.821-12.604-14.791L820.733,6.17l-2.179-1.21l-16.963-0.243h-0.246l-0.482-0.486
			c-1.7-1.212-4.119-2.425-7.756-3.15c-3.149-1.214-10.42,1.213-21.807,7.276l-0.485,0.242l0.485,3.394h0.238v0.242h-0.238v0.484
			l-1.943,3.88v0.244h-0.243l-0.242,2.668c0,2.182,0.485,4.607,1.213,6.547l1.695,1.213l3.633-0.244l3.155,0.729l1.21-0.97
			c0-2.183,0.729-3.879,1.695-4.366h2.428l8.481,2.424l1.934,0.244l-2.662,4.609v5.578c0,1.213,2.182,4.122,6.539,8.246
			c2.67,1.939,4.367,2.908,5.818,3.15l1.212-0.242l1.213-0.483l4.12-4.124l3.149-1.94v-0.243l6.547-0.97l1.936-4.124l5.814-3.393
			l5.091,2.91v0.24l0.484,0.242l4.846,8.246l1.941,5.578v0.728l-0.971,6.791l1.938,4.608v0.727l-1.446,5.334v4.852
			c1.446,4.366,2.178,7.277,2.178,8.004l-0.485,4.123v0.244l-2.428,3.393v0.244l-2.422,2.91l-0.24,5.336l1.453,5.575l0.241,0.243
			l-0.241,0.242l-1.453,8.489l-1.212,1.214c-0.972,0.725-2.183,0.725-3.635,0h-0.484l-2.18-2.426l-2.427,0.727l-3.146,3.395
			l-3.396,9.944v0.243l-0.245,0.242l-3.39,2.908h-0.487l-1.939,0.244l-3.874,5.578l1.939,3.639l0.483,0.483l4.843,6.061v2.184
			l5.335,0.728l0.968,4.852v0.241l0.726,5.819l1.454,1.215l4.849-1.455l4.606-2.67l0.728-0.484l1.692,8.248l2.189,3.15l0.479,0.243
			l1.698,3.396l3.636,2.91c0.479,0.725,1.692,0.725,2.906,0.725l1.212,0.244l2.185-0.969c1.692-0.728,3.391-1.455,5.325-1.699
			l1.45-0.727l3.401-0.243c1.208,0,1.699,0.243,2.424,0.97l4.841-3.152h0.484l0.484,0.245l0.245-0.245l0.485,0.486
			c1.942,2.182,2.909,4.121,2.909,5.09l2.183,3.64l1.694,0.485h0.484l-0.484-0.485c-0.245-1.214-0.245-1.939,0-2.427
			c0.484-0.727,1.454-1.213,2.909-1.213l8.967-0.24l0.242-0.244h0.484v0.484h0.482l2.663,5.096l-0.241,2.668h-0.231l3.386,0.725
			h0.245c-0.245-0.725-0.245-1.21,0.239-1.695l1.211-0.242l7.999,5.576c0.728,0.731,1.212,1.697,1.454,2.91l0.238,3.396l2.667,0.485
			l1.698-2.91c-0.728-1.456-1.209-2.911-0.969-3.882c0.241-0.969,0.485-1.695,1.452-2.182l0.729-0.729
			c0-0.484,0.241-0.729,0.725-0.969l2.176,0.24c1.218,0.729,2.189,3.155,2.671,7.277v0.484l0.486,0.244
			c0.241,0.971,1.694,1.697,3.881,2.425h0.239l0.241,0.241l7.756,8.002l3.634-1.211l-0.485-1.213
			c-0.971-1.211-1.211-2.423-1.211-3.152c0-1.697,1.211-3.394,3.636-5.092l4.121-3.637l4.847,3.393h0.971l0.969-5.335v-0.97
			l0.966-0.246l3.883,0.488c0.726,0.727,1.206,1.456,1.206,2.67c0,0.967-0.729,2.18-1.454,3.151l0.725,0.485
			c2.429,1.211,4.371,2.182,5.819,2.425h0.244l3.15,1.695l2.422-0.24l-3.633-17.706c-2.427-1.455-4.606-4.363-6.788-7.758
			c-1.691-2.91-0.727-7.035,3.156-11.883c2.179-2.425,4.843-4.852,7.756-7.275l0.239-0.485h3.391l0.243,0.485l2.906,1.211h6.06
			c2.424-1.211,4.604-4.851,7.028-10.67C986.987,134.463,986.987,127.432,986.013,116.518z M889.217,259.229l-0.481-0.484v0.244
			l-2.426,0.24c-1.213-0.484-1.943-0.969-2.911-2.182l-0.722-1.455v-0.242l-0.247-0.244V242.01c-1.453-0.486-2.907-1.453-4.599-3.15
			l-3.153-3.398l-2.909-4.119c-0.485-0.971-0.485-2.426-0.239-4.609l0.239-1.211l-1.7-2.186l-0.24,1.941l-2.181,4.123h-0.727
			c-1.693,0-3.634-0.242-5.091-0.971c-1.45-0.484-2.179-1.697-2.179-3.152v-0.969h-1.213l-4.602,1.213l-3.395-3.397l-1.211-0.242
			l-1.214,1.214l1.454,2.426l0.486,0.725l-2.424,5.096h-0.246v0.24h-0.24l-4.358,4.852l-0.247,0.242h-0.484l-6.784,0.726
			l-4.602-1.211l-2.912,3.879c-0.483,0.727-0.726,2.184-0.242,4.609v1.455h-6.059l-4.122-1.215l-3.147,4.852l-0.484,0.486
			l-3.88,2.424l-3.388,3.637l-0.489,0.729l-6.06,7.033v0.244h-0.242l-4.604,2.424l-3.634-2.424v-0.244l-3.394-3.637l-2.181-1.215
			l1.697,9.945l1.456,5.334l-3.637,3.396l-5.093,7.516v3.154l-0.238,0.242h-0.24l-1.213,1.941l0.965,1.697h1.94l7.031,1.939h0.484
			v0.242h0.241l1.455,1.455l1.937,0.971h0.487v0.242c0.725,0.971,1.205,1.941,1.205,2.91l0.729,2.182l7.516,2.184l2.179-0.484
			l2.181-2.91l5.821-11.158h0.239v-0.24l2.666-3.639l0.241-0.242l4.604-2.182l3.152-0.242c1.216-1.941,2.183-2.91,3.393-2.91
			c0.726,0,1.938,0.484,3.882,1.453l0.479,0.244v0.244l4.119,6.303v0.24h0.247v0.486l0.481,4.609l-0.24,5.094l-1.216,4.363v0.486
			h-0.237l-3.154,3.879l-1.456,3.154l0.25,5.334h0.483l1.694-0.727l1.937-1.697l0.483-0.486l0.244-0.484l2.424,2.184v4.121h-0.24
			l-2.184,0.971l-0.728,0.971v2.182l-0.244,0.242l-1.448,2.67h-0.244l-0.483,0.24l-1.944,0.244l-1.937,0.484l-1.456,2.666
			l0.245,0.488l7.995-0.973l1.456-1.211l2.665-7.033l17.933-18.432h0.488l3.88-1.941l0.237-0.242v0.242h3.158l3.144-0.727
			l3.391-1.455l2.424-2.668l3.882-10.672v-0.242l15.023-15.764v-0.24l-0.967-8.488C890.673,260.444,889.702,259.958,889.217,259.229
			z M777.013,287.081v-2.91l0.238-0.484l1.213-1.939l-0.971-0.486l-3.636-0.727l-6.303-0.973h-0.481l-3.638-3.635v-0.244
			l-1.212-2.426l-0.243-0.729l1.939-5.09v-3.641l-0.238-0.967l-1.941,1.939l-0.242,0.242l-0.484,0.727l-0.485-0.727l-0.726-0.242
			l-3.637-2.912l-0.484-0.484v-0.484l-0.725-5.336l-1.695-2.67l-3.642,0.246l-2.179,3.881l-0.239,0.482l-0.246,0.242l-5.82-1.211
			l-0.967,5.334v5.336l-0.239,0.244l-3.152,4.848v0.486l-0.484,0.242h-0.24l-3.638,0.242l-3.634,2.91l-0.486,0.486h-0.482
			l-0.246-0.244l-6.785-2.182l-0.966,2.426v0.244l-2.908,4.85c-0.483,0.971-1.215,1.453-1.94,1.697l-2.906-0.486l-3.878-1.697
			l-0.729-0.486l-0.24-0.24v-0.244l-0.725-5.82l-1.216-4.365l-0.726-1.213l-1.695,3.394l-2.91,3.881l-2.421,5.58v0.484h-0.242
			l-2.181,3.152c0,0.973-0.725,2.424-2.185,4.607l1.46,5.578l7.266,8.004l2.424,5.092v0.484l-0.245,0.484h-0.239l-1.939,2.428
			l-0.483,0.482l-4.851,0.971l0.486,3.879l3.638,1.943l5.33,1.211l1.454,4.852v0.484l-1.214,8.244v0.244l-1.937,3.635v0.731h-0.484
			l-6.058,0.969v2.428l-1.694,5.334l-0.729,6.062l1.207,3.395l7.513,4.605l0.245,0.246l3.15,5.336v0.242l0.24,0.24l-0.24,0.244
			l-3.874,8.488l-0.973,2.424l-2.425,5.58l-0.97,4.365l-0.24,0.486v0.242c-1.211,0.967-1.94,1.94-2.427,3.394
			c-0.241,0.486-0.241,0.969,0.244,1.455l0.242,0.244l2.424,2.662l1.214,1.947l0.483-0.246l0.243,0.729v1.213l0.483,1.455
			l2.179,0.729l8.726,1.938c2.909,0,5.575-0.723,8.485-1.938c2.908-1.213,5.573-1.457,8.483-0.973l0.481-1.697l-2.907-6.549
			l-0.246-0.482h0.246l13.809-19.162l14.787-14.307h0.244l4.603-1.699l2.423-2.666v-0.246c1.941-1.453,3.637-2.422,5.578-3.146
			l-1.456-1.217l-3.153-3.15v-0.244h-0.238l-2.425-2.914l-0.243-0.482v-0.484l1.21-1.453l-3.15,0.727l-6.788-1.697
			c-2.665-1.215-4.357-2.67-4.844-4.367c-1.452-4.363-1.936-8.244-1.698-11.641c-0.965,1.213-2.179,1.457-3.391,1.457l-5.089-1.213
			l-3.393-2.426l-4.117-0.971h-1.941c-1.211,0-2.667-0.482-3.635-1.455c-1.454-0.969-2.181-1.939-2.424-2.908
			c-0.484-1.941,0-3.152,1.696-4.365c1.695-1.213,3.636-3.154,5.331-5.582c-1.695-2.18-2.426-4.361-1.695-6.545l0.243-0.244
			c0.237-1.211,2.183-2.182,5.813-3.393c0.245-1.215,0.729-1.941,1.213-2.185l3.635,0.244l-0.484-0.484
			c-2.422-1.455-3.15-3.154-1.938-5.094l1.938-1.453c2.18-0.73,4.847-0.488,7.51,0.967l5.578,3.881h5.088l1.696,1.455l0.481,1.94
			c0,1.215-0.727,1.941-1.693,1.941c-1.209,0-1.696,1.213-1.94,2.666l2.421,5.822c1.46-2.184,2.914-3.396,4.367-3.637
			c0.727,0,1.693,0.484,2.422,1.453c0.729,1.213,1.457,3.395,1.941,5.578c0.24,2.67,0.967,4.85,1.696,6.066l1.937,2.666
			c2.908,3.637,4.604,6.305,5.092,8.488l9.448-1.213l4.123-2.184l3.875-4.85l1.697-4.609v-0.482l1.21-4.854v-0.242l0.245-0.484
			h0.242l3.636-2.426l0.723-0.482l-0.241-0.244l-6.06-1.941h-0.479v-0.24l-1.214-3.639l-0.486-1.213l-1.938-0.969h-0.24
			l-1.455-1.457l-6.789-1.94h-1.69l-1.214,0.484l-2.672-5.094l0.248-0.242L777.013,287.081z M725.358,314.532
			c-0.972,0.727-1.214,1.457-1.214,2.184l1.695,2.184l2.667,0.971l2.181,0.24c2.909,0,4.846,0.244,5.575,1.457l2.422,1.695
			c1.694,0.73,3.146,1.213,4.363,1.213c0.966,0,2.178-0.727,3.152-2.668l1.936-2.182l1.452-4.607l-1.207-5.334l1.934,0.484
			l3.159,0.242l1.446-0.971l0.488-1.213l-2.428-7.035l0.73-2.422c0.729-1.455,1.697-1.939,2.665-2.184h0.243l-0.484-1.695
			l-5.82,0.24v-0.24l-5.327-3.639c-2.182-1.457-4.363-1.699-6.303-1.213l-0.728,0.484c-0.484,0.971,0,1.941,1.455,2.426
			c1.212,0.969,1.697,2.182,0.967,3.881l-0.481,0.727l-0.732-0.242l-3.148-0.484l-0.238,1.455v0.725h-0.729l-5.093,1.941
			l-0.237,0.729c-0.729,1.699,0,3.15,1.693,5.092l0.487,0.486l-0.487,0.729C729.957,310.411,727.78,312.836,725.358,314.532z
			 M763.531,333.006v-0.242l2.667-4.848h4.608l1.207-0.244c-0.479-1.455-1.94-4.125-4.603-7.518l-1.698-2.426
			c-0.972-1.94-1.936-4.121-2.182-7.033c-0.484-2.182-1.212-3.639-1.695-4.607l-0.727-0.486c-1.211,0-2.423,1.213-3.636,3.881
			l-0.731-0.484l-0.235,0.242l0.235,0.242l-2.177,2.182l-0.969,0.486l-2.667,1.457l-0.24,1.695c0.24,2.67-0.487,4.609-1.701,5.336
			l-0.965,2.908c-0.241,0.729-0.486,2.67-0.241,5.338l1.454,7.275c0.479,0.971,1.693,2.184,4.121,3.152l5.573,1.455
			c1.452,0,3.389-0.727,5.568-2.182l-1.452-2.668v-0.729L763.531,333.006z M650.717,340.307l-3.637,3.396l-1.935,2.426l1.45,3.152
			v5.336l-2.662,3.879v0.242l-3.636,4.123l0.483,4.848l3.152,2.91v0.244c1.455,2.426,2.18,4.365,2.18,6.064v5.332h-0.24
			l-0.244,0.246l-4.848,3.637l-0.483,7.277l0.483,7.275c0,2.426,0.966,7.031,3.395,13.822v0.728l-5.33,24.734l0.479,4.857
			l3.639,1.693l5.816-5.818h0.243l18.659-7.277l4.849-4.367l0.483-0.479l0.241,0.236h0.485l10.659,0.973
			c1.457,0,4.608-1.209,9.215-3.15v-5.1l0.239-0.24h0.239l2.914-2.666l-0.731-3.158v-0.967l0.244-0.244
			c0.972-0.969,0.972-1.938,0.243-2.664c-0.729-1.459-0.487-3.395,0.729-5.58l1.211-1.693l-0.237-3.397l-3.643-4.371
			c-1.695-1.211-1.938-2.906-0.969-4.604c0.49-1.457,1.215-2.912,2.422-4.127l0.975-4.121l2.662-5.822l0.731-2.666l3.874-7.273
			l-2.664-4.609l-7.51-4.607h-0.49v-0.484l-1.451-3.881v-0.728l0.725-6.545v-0.246l1.695-4.848c-0.238-1.699,0-2.912,0.728-3.883
			c0.484-0.484,1.213-0.969,1.941-0.969l4.604-0.727l1.216-2.668l1.207-8.004l-0.968-2.912l-4.117-0.967h-0.246l-4.843-2.426
			l-0.251-0.242v-0.486l-0.239-0.242l-0.239-5.82v-1.213l6.298-1.453l0.972-1.215l-1.697-3.879l-1.695-1.941l-1.941,3.154v0.242
			l-3.147,3.639l-0.242,0.24h-0.485l-5.818,1.697h-0.484l-5.571-0.969l-3.152,0.969l-0.729,2.67l-0.24,0.484l-2.665,1.699
			l-0.483,0.24h-0.487l-4.845-0.486l-0.244,0.486v4.852l-0.238,0.24l-2.665,3.396v0.242h-0.25l-4.599,4.609h-0.244l-0.246,0.242
			l-4.843,0.971l-3.153,3.393l0.728,4.123v0.971L650.717,340.307z M807.543,374.083c-10.424,1.455-16,0.484-16.729-2.912
			l-1.209-15.035l-12.117-0.727l-5.087,10.67l-0.487-4.609c-0.238-3.637-0.966-5.82-1.699-6.303l-5.332,2.666l-2.422,3.154
			l-0.244,0.24h-0.239l-4.847,1.699c-5.328,4.365-9.938,8.975-14.053,13.824l-12.848,17.461l2.666,6.062v0.971l-0.244,0.244
			c-0.969,1.453-0.481,3.637,0.973,6.06c1.696,3.15,2.904,6.549,2.904,10.43v0.725l-10.418,6.065v2.43l4.844,2.178
			c0.488,0.244,0.729,0.732,0.729,0.975v0.484c-0.24,1.213,1.696,2.91,5.331,4.604l8.966,2.428l2.667-1.695l2.911-4.123l2.424-7.039
			l7.025,2.666l0.97,0.734v0.73c-1.212,2.908-0.483,4.848,1.695,6.061l7.753,0.238c2.668-0.482,4.848-1.451,6.305-2.668
			c0.971-1.207,2.423-1.447,4.603-1.207c2.668,0.484,5.091,1.457,6.786,3.637l1.695-4.123l0.487-0.727h0.241
			c1.215-0.73,1.939-1.941,2.91-3.643c0.727-1.699,1.937-3.395,3.877-4.609l3.391-1.935l0.246-0.248l0.24,0.248h0.24l1.939,0.482
			l0.486,0.244l2.67-12.125v-0.246l3.872-0.729c3.878-2.664,5.819-4.848,5.572-6.787l-0.726-3.639
			c-0.969-2.424-0.969-4.121-0.485-4.85c0.729-0.729,1.211-0.971,1.938-0.971c1.7,0,3.641,0.484,5.577,1.457l0.488-3.881v-0.486
			l0.237-0.246l4.121-1.936l0.483-2.185h-2.425l-0.479-0.244l0.238-1.213v-0.725l0.241-0.484h1.213c1.702,0,3.636-0.967,5.817-2.908
			l15.27-10.916h0.485l4.845,2.184l1.942-0.242l-1.214-5.094v-0.486l0.244-0.242l0.239-0.242l2.665-4.365l-0.725-0.484l-1.695,0.484
			v0.244h-0.245l-4.846,0.727h-1.452v-0.242l-0.244-0.729l-0.969-1.697h-0.975l-0.479,0.242c0,1.213-0.729,1.941-1.941,1.941
			l-9.453-0.971c-6.542-1.213-10.9-2.186-13.084-3.395l-13.329,12.611l0.486,5.334v0.484L807.543,374.083z M847.305,475.44
			l-5.33-0.969v-1.207l-0.246-5.586c-3.637-10.184-6.544-16.488-8.719-18.672c-2.668-2.185-4.852-6.064-7.034-12.125
			c-7.024,0-11.144-1.213-13.084-3.642c-1.456-2.174-4.363-3.631-8.484-4.846l-1.214-0.25l1.214-4.117l-0.725-0.482l-1.214-0.246
			c-2.91,1.451-4.846,2.912-5.574,4.846c-0.969,1.945-2.182,3.648-3.637,4.855c-1.207,3.883-2.423,5.826-3.632,5.826
			c-0.727,0.238-1.218-0.248-1.695-0.975l-1.94-1.697c-1.451-0.728-2.906-1.453-4.121-1.453l-2.419,0.48
			c-1.699,1.701-4.123,2.916-7.754,3.396l-9.215-0.48c-2.908-1.457-4.117-4.367-3.389-8.008l-3.396-1.211l-1.694,4.852v0.242
			l-0.244,0.242l-0.722,0.967l2.178,0.488h0.482l0.242,0.238v0.246c4.121,5.578,7.269,9.213,8.964,10.19
			c0.972,0.479,3.884,1.451,8.968,2.904l8.727,3.152c2.668,1.217,5.333,6.551,8.237,16.012c3.878,2.664,6.306,3.875,8,3.635
			c1.698-0.723,4.604-2.42,8.729-5.096l0.235-0.238l0.246-0.244l0.483,0.244l4.363,0.967h0.484v0.732l-0.244,0.721
			c-1.45,5.824-2.663,9.223-3.636,10.19l-5.813,0.244v0.246c0,2.42-1.695,6.057-4.848,10.664c-0.966,1.455-1.212,2.668-1.212,3.395
			l5.57,3.879c1.457,1.701,2.426,2.191,3.639,2.191h1.213l1.211,4.115l2.663,0.975l1.457-1.453c0.726-0.732,1.692-1.221,2.421-0.977
			c2.427,0,4.363,1.455,6.787,4.607l2.18,2.916l0.243-0.246c1.455-0.971,4.125-0.725,8.003,0.482l6.298,1.455l5.815-1.938
			l2.425-1.213l1.694-1.213l-1.455-1.699c-0.482-0.969,0-2.176,1.215-3.396c1.451-1.207,2.417-2.416,2.417-3.875v-2.914
			c-0.479-1.451-0.236-2.424,0.247-2.904c0.483-0.973,2.181-1.461,4.123-1.943c3.147-0.484,7.024,0.971,11.629,4.848l-1.691-4.848
			l-2.669-3.639l-0.483-4.367l-4.123-0.729h-0.242v-0.234L847.305,475.44z M819.984,509.122c-2.182-2.424-3.635-3.635-4.608-3.635
			l-0.482,0.236l-2.666,2.672l-0.483-0.24h-0.482l-4.365-1.457l-1.209-3.885c-1.701-0.238-3.394-1.209-4.849-2.908l-2.67-1.701
			c-2.18-0.967-3.39-2.18-3.39-3.391c-0.487-1.453,0-3.154,1.455-5.336c2.662-3.881,4.119-7.035,4.119-9.457v-3.15l1.694,0.238
			l5.576,0.244c0.484-0.482,1.211-2.908,2.177-7.269l-1.692-0.248c-3.878,2.668-6.787,4.363-8.97,5.092
			c-2.665,0.73-6.057-0.729-10.901-4.119v-0.246l-0.249-0.242h-0.235v-0.236c-2.669-9.217-5.09-14.316-6.789-15.041l-8.482-2.914
			c-4.848-1.451-8.241-2.426-9.693-3.393c-2.422-1.457-5.573-4.852-9.206-10.43h-1.459l0.248,0.246
			c0.483,1.938,2.423,5.332,6.539,10.183l0.242,0.244l0.245,0.484l-3.879,7.031c-1.456,2.67-2.902,3.881-4.359,3.396
			c-0.974-0.486-2.912-2.67-6.061-6.791l-4.126-1.209c0,1.209,0.734,3.631,2.429,7.514v0.971l-0.723,2.664l-4.371,1.94l-1.445,0.488
			c-0.732,0.732-0.732,1.939-0.488,3.4c0.488,3.635,0.241,5.814-0.484,6.789c-0.484,0.482-0.73,0.482-1.214,0.482h-0.237
			l-4.848-0.969c0.239,0.969,0.965,1.938,2.181,2.67c2.422,2.18,4.358,5.328,6.301,8.965l0.235,0.732l2.189-0.482
			c2.659-0.484,5.083,0,7.509,1.697l2.666,3.152l0.241,0.24v0.24h-0.241l-0.24,6.305c0.728,0.977,1.205,2.19,0.728,3.156
			c-0.487,1.209-1.456,1.939-3.153,2.185c-1.938,0-2.907,1.207-3.391,3.633v0.242l-1.937,4.125l2.901,2.908l6.303,1.213h0.488
			l3.147,3.395l-3.882,5.82l8.971,19.404l0.244,0.484l-1.454,1.697l0.483,1.455h0.244l16.478-10.43l-2.663,4.855
			c-2.184,3.635-3.392,6.787-3.879,8.971c2.907-1.213,5.328-3.396,6.789-7.275l0.238-0.488h0.243l4.603-2.418l0.243-0.49l6.542,5.82
			l7.271,0.248l0.245,0.236l3.392,2.184l8.967-7.76c0.729-0.729,1.455-2.18,2.423-4.609l0.973-1.941
			c0.239-0.963-0.973-3.389-3.396-7.519l-2.181-3.148l10.659,3.637l3.157-1.697l-3.157-6.791l-0.237-0.244l5.33-7.029
			L819.984,509.122z M699.036,420.62l-2.91,2.67v5.58l-0.726,0.244c-5.329,2.426-8.963,3.633-11.15,3.633l-10.66-0.723l-4.6,4.121
			h-0.492l-18.415,7.516l-5.575,5.338c-0.964,8.244,0,13.092,2.908,14.553l5.331,3.394h0.247v0.238l1.453,8.975
			c4.604,6.062,7.752,9.215,9.453,9.947l5.327,1.211l0.728,0.24v0.246c0.726,0.967,2.426,1.939,5.574,2.906l14.542,0.729
			c10.663,0,16.724,0.73,17.933,1.939c1.215,0.967,1.451,3.397,1.215,7.033c-0.244,2.426,0,3.879,0.236,4.127l5.333-1.217
			c4.121-1.457,6.542-1.457,7.757-0.238l1.939,2.418c2.903,3.645,4.849,5.096,5.33,4.855c1.453-0.49,3.149-1.943,4.846-4.363
			l0.482-0.732l4.363,2.67l2.668-2.182c0.729-3.398,2.426-5.094,5.334-5.338l1.206-0.48l-0.482-0.973l-0.482-0.488l0.241-0.236
			l0.241-6.065c-1.939-2.912-4.358-3.883-7.026-3.398c-2.666,0.728-4.606,0.728-5.332-0.242c-0.484-0.725-0.484-1.211-0.484-2.188
			c-1.697-2.906-3.391-5.33-5.574-7.512c-2.908-2.426-3.638-4.607-2.908-6.791l0.481-0.729l6.789,1.211l-0.485-4.115
			c-0.241-2.43,0-4.127,1.214-5.336c0.483-0.979,1.693-1.465,2.905-1.705l2.905-0.973v-1.207c-2.177-4.611-2.905-8.006-1.938-9.455
			l1.458-1.215c0.72-0.246,3.148,0.238,6.541,1.453l0.246,0.246v0.484c2.664,3.15,4.119,5.094,4.843,5.574l4.602-7.52
			c-4.112-5.092-6.299-8.725-7.026-10.182l-3.631,2.424l-0.483-0.488l-9.692-2.422h-0.246v-0.244
			c-4.121-1.941-6.542-4.119-6.787-6.301l-5.817-2.67v-5.58l10.666-6.305c-0.486-2.912-1.214-5.82-2.423-8.246l-1.694-3.397
			l-7.273,0.729c-3.39,1.455-6.546,2.184-9.695,2.184l-7.513-1.701v-2.67l-1.213-0.238l-2.18-0.729l-0.482-1.451v-0.244
			l-0.242-0.727v-0.973l-0.484,0.246l-0.488,6.303l-0.242,2.184c-0.483,1.209-0.967,1.939-0.483,2.422
			c1.214,1.699,0.971,3.635-0.243,5.334l0.969,4.127l-0.242,0.242L699.036,420.62z M739.236,511.631l0.239-0.971l-0.239,0.242
			l-0.245,0.242l-3.633-2.424c-1.696,2.182-3.393,3.637-5.334,4.121c-1.692,0.729-4.363-1.211-7.995-5.572l-1.941-2.434
			c-0.239-0.484-1.933,0-4.601,0.975c-4.12,1.459-6.784,1.697-7.998,0.967c-1.209-1.213-1.695-3.631-1.209-6.785
			c0.238-2.676,0-4.129-0.486-4.855l-31.505-1.697c-2.911-1.209-5.335-2.422-6.545-3.635l-4.85-1.215
			c-1.937-0.723-5.569-3.881-10.416-9.947l-3.154,2.678l-4.845-1.461l-13.085,0.246l-3.64-1.215l-0.241,0.969l1.214,1.461
			l6.302,4.363v0.236h0.235l3.885,4.369l-0.49,0.482l-2.421,2.914l-0.242,0.24l-0.24,0.48h-4.123l-2.423,0.248l-1.696,1.695
			l0.725,2.182v0.248l0.246,2.428l2.182,3.144v7.033l1.94,0.733l3.39,0.967h0.242l0.242,0.242l0.243,0.244l3.151,4.369v0.236
			l1.694,4.371v3.15c-0.246,1.695-0.729,3.146-1.208,4.121c-1.212,1.707-3.395,3.154-6.787,4.606l-8.243,4.857h-0.238l-15.03,0.965
			l-0.964,3.641l2.666,4.85v0.48l0.725,6.303l8.24,9.705h0.243v0.244l3.389,5.58l0.246-0.729v-0.242l2.665-7.516l0.241-0.254
			l4.848-6.301l0.245-0.234l6.053-2.916h0.49l3.88,2.426l5.085-0.48l-1.7-8.488l0.974-0.248l4.601-0.484l4.847,0.244h0.49v0.24
			l9.692,4.369l8.236,1.693h0.487l2.667,1.943l3.876,1.447v0.254l2.424,2.18l1.451,0.48l2.671-2.426v-0.234l4.119-3.158l2.183-4.127
			l3.873,2.182v0.49l0.974,3.152v0.727l-0.486,1.938l0.242,0.49l2.424-1.221l3.395-3.389h3.15v0.238h0.237l2.188,1.457
			c1.45,1.455,1.932,2.676,1.45,3.881l-0.244,5.334l1.453,2.672l0.485,0.246c5.814-6.31,9.696-9.457,12.118-9.457h6.544l1.454-3.156
			l5.086-2.422h0.245l6.303-0.49l6.545-3.392v-0.246h4.115l-0.731-1.939l0.247-0.482l0.967-0.973l-8.967-19.154v-0.49l-0.24-0.238
			l3.881-5.338l-1.212-1.217l-6.544-1.209h-0.727v-0.48L739.236,511.631z M722.862,646.788c2.912-4.852,3.877-8.484,2.912-10.428
			c-0.729-1.705-1.938-2.428-2.912-2.428h-0.724l-0.484-2.424h0.484c1.698-0.731,2.666-1.461,2.907-2.43l-0.724-1.205l-3.88-3.641
			v-0.246l-1.939-5.33c-0.726-4.125-1.215-7.768-0.726-11.16v-2.42l-2.425,2.18l-2.18,2.43l-0.73-10.195v-0.481h0.246
			c5.329-7.76,8.966-12.369,10.174-13.584l-2.42-7.275c-0.728-3.637-1.212-5.82-1.212-6.783l-4.363-1.941l-2.179-0.733l0.24-0.238
			h-0.486v-0.484l-1.938-3.645l-0.238-0.234v-0.494l0.479-5.812c0-0.727-0.723-1.461-2.179-2.435h-1.455l-2.424,2.914h-0.242
			l-6.052,2.91l-0.975-4.115v-0.488l0.484-1.938l-0.484-2.436l-0.729-0.238l-0.965,1.943h-0.248v0.24l-7.509,6.549l-0.245,0.482
			h-1.209l-2.188-0.969l-0.24-0.24l-2.421-2.18l-3.875-1.461l-0.243-0.248l-2.423-1.691l-7.999-1.695h-0.244l-5.331-2.672v0.248
			l-4.123-1.947l-5.328-0.484l-1.938,0.246l1.694,8.978h-0.725l-5.331,0.48h-3.151l-2.906-1.935l-4.851,2.182l-4.356,5.812
			l-3.883,10.43l1.213,11.399l1.693,6.557c0.244,0.729,0.244,0.965,0,1.207l-0.728,0.236c-1.209,0.736-1.69,2.426-1.454,4.859
			l2.426,9.934l-0.726,0.494c-4.359,2.424-6.546,4.361-6.786,5.328l-0.484,3.402l4.117-1.693l0.241-0.254h0.247
			c2.909,0,4.601,0.977,4.847,3.398l0.729,5.338l-0.246,0.727l-0.482,0.488c-0.724,0.723-1.214,1.447-1.214,2.426l-0.724,5.578
			c0.237,1.934,0.973,3.389,1.938,4.117l5.09,6.061l4.605-3.637l3.632-0.49h0.243l0.243,0.49l2.422,0.73
			c0.729,0,1.456-0.244,2.184-0.973l2.178-3.15l-0.484-1.945c0.484-0.723,1.21-1.203,2.185-1.695h5.815
			c0.966,0.492,1.695,0.246,1.695-0.242c0.729-1.697,1.45-2.426,2.18-2.906c0.732,0,1.939,0.236,2.669,0.967
			c1.695,1.455,2.905,2.674,2.905,4.367l-0.483,4.357l0.969,0.734c1.453,1.215,2.426,2.426,2.426,3.393l-0.973,4.367
			c-0.726,2.426-1.453,4.125-2.422,4.611v-0.238l-3.634,7.756l1.212,0.482l5.816,0.242l1.21,0.484l-0.483,0.967
			c-0.727,2.433-0.971,4.123-0.727,5.342c1.937,1.211,3.15,1.941,3.876,1.211l3.394-1.457l1.693-0.723h3.153l3.147-3.404v-4.115
			c-0.243-1.453,0-2.426,0.489-3.156c0.97-0.727,2.905-0.727,5.816,0.969l5.813,3.641c1.939,1.457,3.389,1.941,4.363,1.941v-0.248
			c0.484-0.967,0-2.906-1.213-5.334l-3.15-4.846v-0.488h0.246l0.237-0.479c3.153-4.367,6.548-5.826,10.425-4.367l8.965,4.119
			l3.635-2.426h0.239v-0.484l-0.48-0.486l0.241-0.238L722.862,646.788z M617.434,591.952l1.216,0.732l0.24-0.486l1.214-3.152v-0.24
			l0.236-0.486h0.489l1.693-0.975h0.246v-0.236h2.181l-0.485-1.211v-0.492l-1.213-11.389l-4.602-7.525l-8.73-10.184l-0.241-0.244
			l-0.484-6.551l-2.905-5.082v-0.254l-0.243-0.238l0.243-0.484l1.455-6.309h0.969l15.269-0.969l8.236-4.367l0.246-0.238
			c2.905-0.967,4.843-2.184,5.329-3.398c0.724-1.211,1.214-2.908,1.214-5.328l-1.7-3.887l-2.663-3.881l-2.906-0.729h-0.247v-0.238
			h-0.238l-2.429-1.215h-0.481l-0.971,0.242l-3.152,0.484h-0.237l-0.485-0.238l-3.155-1.215v-0.242h-0.236v-0.24l-2.432-2.426
			l-2.66-2.67l-2.426-1.457l-2.667,2.428l-3.387,2.426l-0.972,7.272v0.25l-3.151,5.336v0.482h-0.246l-2.421,2.422l-2.906,5.578
			l-0.247,0.482c-2.176,1.705-4.114,3.398-6.053,4.852l-2.427,4.363c-0.482,1.217-2.424,2.672-6.055,4.127l-2.427,4.123
			l-4.122,5.578h-0.24v0.236h-0.484l-19.388-1.207l-2.175,2.182v4.123l1.933,8.006l4.12,5.824l3.392,1.935v0.244h0.241
			c1.941,2.42,2.914,4.115,2.914,5.334v3.152l-1.214,1.215l0.729,0.482h0.966l1.453-2.914h0.485l3.875,1.217l0.247,1.215h1.938
			l-0.485-1.455l-0.242-0.479l2.664-4.135c0.488-1.213,1.697-1.691,3.394-1.213l4.36,0.24l2.425-3.148v-2.916l0.97-3.145v-0.246
			l0.244-0.236l0.242-0.248l1.695-0.967v-0.24h0.243l0.243,0.24l3.633,0.482v0.484l0.729,2.908v1.463l0.483,2.182l0.969,0.238
			l1.213-1.691v-0.25l1.938-2.662l0.245-0.486l2.664-1.217h0.238l0.246-0.236l3.151,0.965h0.243l0.484,0.242l1.697,3.395v3.398
			l2.421,4.607v3.879l0.729,1.457h0.726l0.972-1.211l0.24-0.492l2.906,1.703h0.486v0.725L617.434,591.952z M601.633,661.475h1.214
			l0.238-0.975l0.488-1.453v-0.242l0.24-0.244l0.245-0.246v-0.238l1.453-0.969l0.241-0.246l2.666-2.184h0.245l0.243-0.24h0.481
			l2.426,0.24c0-1.451,0.728-2.91,2.18-4.363c1.695-1.215,2.906-1.941,3.633-1.697l1.454-0.967h0.242v-0.248l1.211-1.211v-0.24
			h0.245l0.245-0.246h0.237l3.878-0.963h2.186l0.966-0.73l0.725-1.457l1.215-2.426l-0.486-0.246
			c-1.453-1.69-2.419-3.631-2.906-6.299l-0.24-0.242h0.24V633.1l0.97-5.336c0-1.703,0.483-2.91,1.698-4.129l-0.49-4.365
			c-0.239-0.482-0.725-0.969-1.936-1.213l-7.757,3.156l0.488-8.006c0.241-1.207,2.664-3.393,7.269-6.057l-2.178-8.488
			c-0.485-2.916,0.237-5.098,2.178-7.037l-0.482-1.457h-2.426l-0.728,0.246l-1.208,3.396c-0.975,1.213-1.944,1.936-2.913,1.936
			h-0.481l-2.428-1.691h-0.48v-0.734l-0.731-1.695l-0.239-2.424v-0.24l-0.238,0.482l-0.242,0.725h-4.368l-0.48-0.967l-0.727-2.666
			v-3.641l-2.666-4.602v-3.887l-0.97-1.699l-1.698-0.729l-1.94,1.217l-1.208,2.182c-0.972,2.182-1.942,3.395-3.638,3.395
			c-0.97,0-2.182-0.729-2.908-1.453l-0.246-0.242l-0.237-0.242l-0.731-2.428v-0.236l-0.241-3.16l-1.451-0.236l-0.243,0.236
			l-0.728,2.432v3.393l-0.243,0.242l-0.24,0.242l-2.91,3.883l-0.484,0.482h-0.484l-5.815-0.482h-0.48v0.482l-1.943,2.666
			l0.727,1.701h0.245l-1.699,2.664h-5.33v-0.971l-0.482-0.482l-0.731-0.482l-0.97,1.693l-0.242,0.729h-3.637l-0.234-0.24
			l-2.187-1.699l-0.24-0.482v-0.244h-0.246v-0.484l-3.876-0.733l-2.906,1.217l-1.695,1.209l4.842,5.576l6.309,1.939l0.234,0.244
			l0.246,0.242l3.147,2.916l-1.205,4.854v0.719h-0.247l-4.122,3.398v0.244h-0.24l-6.786,1.938h-0.238l-3.877,0.484h-0.489
			l-2.668-0.967l-1.448-0.246l-1.457,2.428h-0.24v0.238l-3.153,2.184h-0.237l-4.369,1.945h-0.241l-5.089-1.707l-11.143,0.488
			l-2.427,0.727l-0.245,0.252h-2.179l-2.666,3.629l0.486,4.133l2.421,5.568l2.666,1.463h0.245v0.236l0.967,0.73l1.697-2.43
			l0.242-0.24l0.243-0.24h0.241l3.635-0.488h0.487v0.244l3.633,0.969l3.633,8.248h-0.241v0.24l-1.452,4.607l-1.212,2.91v0.242
			l-1.697,4.127v5.088l2.909,2.916h0.239l3.882,3.393l0.487,0.238l0.237,0.25l-2.904,6.791l-0.73,3.148l0.97-0.488h0.244
			l2.421-0.969l4.361-2.42h0.249l4.838,0.729h0.25l7.268,2.902h7.999l2.181-2.902l0.246-0.244l0.234-0.244l4.121-1.941l3.881-3.395
			l0.485-0.248l2.905-0.969l3.151-2.42l3.634-4.852l5.092,1.938l0.729,0.24v0.248l0.24,0.242c0.729,1.939,1.454,2.91,2.181,3.154
			l3.15-0.486h0.729l1.696,0.486h0.237v0.242L601.633,661.475z M626.521,745.196l0.728,0.236h0.482v3.637l1.937-0.479l8-10.674
			l3.395,5.094v-2.178l2.424-4.856l2.178-3.635h6.055l0.971-6.795h0.733l0.483,0.244l4.602,0.727l0.487-2.422l-1.695-3.883v-0.486
			l0.97-2.662v-0.49l0.238-0.238h0.241v-0.25l12.604-6.781l-0.486-6.557v-0.238l2.425-4.85l0.485-0.973l3.88-8.971l0.242-0.246
			l3.146-3.15l1.94-3.635v-0.48l1.696-2.92l-1.452-3.639v-0.238h-0.244v-3.881h-1.94l-3.633,1.695
			c-1.697,1.215-4.121,0.727-7.271-1.209c-1.213-0.971-1.213-3.4-0.486-7.035l-1.937-0.242l-0.966,1.215
			c-2.183,2.424-3.882,3.881-4.366,3.881c-0.482,0-0.728,0-1.211-0.248c-0.244-0.723-0.73-1.938-0.73-3.877
			c0-2.188,0-3.637,0.73-4.123c0.483-0.727,0.971-0.975,1.45-0.482l4.608-8.49l1.211-3.15l0.731-3.645l-2.67-2.176
			c-0.724-0.731-0.97-2.428-0.483-4.854v-1.453c0-0.729-0.486-1.695-1.453-2.428h-0.483l-0.249,0.732
			c-0.726,1.936-2.421,2.908-5.089,2.18c-1.212-0.484-2.662-0.484-4.357,0l0.242,0.242l0.483,0.486l-3.153,4.852
			c-1.211,1.451-2.905,2.418-4.849,2.418h-0.484l-2.419-1.451l-2.429,0.242l-4.843,3.641c-1.21,0.484-2.665-0.73-4.844-3.641
			l-1.453,3.15h-0.241l-0.248,0.242l-1.697,1.699h-3.147l-3.149,0.971l-3.881,2.908h-1.205l-1.461,0.979
			c-1.207,1.203-1.695,2.176-0.965,3.141l1.689,2.43l-6.78-0.723l-3.634,2.908l-0.488,1.207v0.25l-0.727,1.938l-0.244,0.244
			l-0.241,0.236h-3.395l-4.359-1.697l-1.452-0.236l-3.396,0.482c-1.452,0-3.149-1.699-4.602-4.363l-2.912-1.217l-2.423,3.641h-0.241
			l-3.395,2.91h-0.243v0.244h-0.483l-2.666,0.721l-3.874,3.402l-4.119,1.939l-2.914,3.877h-9.686l-7.518-2.906l-4.121-0.492
			l-3.635,1.945h-0.247l-2.419,0.971c-1.213,0.482-2.182,1.215-2.91,1.457l-0.482,1.211v2.914l1.211,1.936l5.817-1.936
			c1.212,0,2.906,0.719,5.087,1.936l0.482,0.244l0.248,0.238l0.24,8.244l1.207,0.244h5.094l3.149-0.727l0.489-0.482
			c1.938-0.971,3.633-1.699,5.814-1.936l0.97-0.248l0.481,0.729l1.452,2.906v0.244l0.728,8.004v0.727l-4.359,4.605h-0.241v0.25
			l-5.089,2.422l-1.695,1.935l0.725,1.457l10.426,0.969l0.234,0.248l0.246,0.238l4.118,2.422l9.21-0.238v1.211l0.489,4.609v0.484
			h0.238l-4.121,4.123c-0.485,5.336,0.488,8.492,2.666,9.219l7.756,4.121l6.057,4.121l5.093-2.42l0.479-0.246l0.488-0.246
			l0.239,0.246l7.762,5.818l1.21,0.488l1.938-2.43l0.486-0.482l0.243-0.242h0.482l4.604,0.725l1.263-6.275l5.524,8.705
			L626.521,745.196z M785.688,675.127v-0.244l-3.151-9.215l-4.36-4.369c-5.333-0.238-9.45-0.238-12.358,0l-0.974,0.248l0.243,2.908
			v1.213h-0.727l-3.876,1.697l-0.729-0.488c-3.149-3.15-5.09-4.363-6.298-3.635c-8.486,4.123-13.332,6.062-14.782,5.092
			c-0.972,0.246-2.183,1.211-3.879,2.906l-0.728,0.975l-0.969-0.975c-2.421-2.176-3.635-4.117-3.635-5.572
			c0-0.967,1.693-2.918,4.604-6.064c3.396-3.885,5.09-6.062,5.09-6.553l-0.729-1.203c-0.965-0.492-2.906,0.483-5.33,2.418
			c-2.421,1.699-3.879,2.43-4.848,2.182c-0.482,0-0.973-0.729-1.211-1.935l-0.246-0.488l-2.178-3.883l-4.603,2.91l-0.486,0.49
			l-0.239-0.49h-0.246c-3.394-1.938-6.542-3.149-9.693-4.363c-2.18-0.727-4.363,0.246-6.544,2.914l2.181,3.639
			c1.453,3.637,2.184,6.059,1.453,7.76c-0.241,0.727-0.969,1.455-1.938,1.455c-1.458,0.482-3.634,0-6.299-2.186
			c-2.185-1.457-3.881-2.666-5.332-3.393l-2.907-1.213v0.238l0.239,0.49v5.334l-3.878,4.365v4.123l1.7,4.363l0.238,0.24
			l-2.666,4.127l-1.696,3.883v0.238l-3.632,3.637l-6.061,13.828l0.244,7.512l-0.244,0.248l-13.085,7.512l-0.728,1.457l1.695,3.881
			v0.486l-1.215,5.09l-5.328-0.721l-1.211,6.545h-6.79l-1.452,2.426l-1.933,4.121l-1.215,15.279l1.453,3.148l0.242,0.488v3.152
			l2.904,3.641l0.248,0.482v2.908l7.753-0.477l0.484-0.729v-0.248h0.246v-0.24l2.18-2.912l-4.847-4.359l-0.49-0.488l-2.664-2.185
			l-0.239-0.238l-0.246-0.248v-4.852h4.124l0.479-1.689l-1.695-4.854h9.455l16.717-8.006l2.183-3.637l0.484-1.213l3.395,1.457h0.246
			l0.237,0.727l1.458,1.693l1.695-0.24l-0.487-3.637h5.578l5.329,0.967l2.182-3.629l0.242-0.246v-0.248l0.483-0.238l5.814-1.701
			l0.975-8.482l6.055,5.338l2.425,0.482l1.211-1.453l-0.73-18.438v-1.453l4.122,0.727h0.245l0.483,0.246l0.244,0.236l6.543,11.883
			l8.238-0.967l1.455-0.481l1.211-2.912l-2.424-1.941l-0.728-0.973l5.575-1.934l0.488-0.25l0.24-0.242l2.18,2.426l1.941-0.969
			v-3.641l1.207-0.236h4.124c2.906,0.236,5.088,1.695,6.781,3.877l0.487,0.969l1.695-5.818c0.97-1.451,2.905-1.701,5.818-0.481
			l0.48,0.232v0.248l0.245,0.24c0.243,0.242,0.725,0.486,0.968,0.486c1.214-0.486,5.576-3.396,12.603-8.967
			c0-3.645,1.938-5.576,5.09-6.551c2.18-0.244,3.395-1.217,3.875-2.428v-0.238l0.244-0.73h0.972l4.359-0.242v-3.154
			c-1.21,0-2.426-0.484-3.632-1.459L785.688,675.127z M804.858,574.79l0.973-0.477l1.213-1.465l0.235-0.24l-2.421-4.119
			c-2.422-3.154-4.604-6.061-6.061-9.461c-1.21-2.185-0.966-4.609,0.729-7.275l-4.363-2.67l-7.753-0.729l-0.245-0.238l-5.332-4.607
			l-2.903,1.457c-1.941,4.359-4.607,7.029-8.003,8.25c-0.966,0.479-2.18,0.236-2.905-0.49c-0.968-1.211-0.487-3.881,1.211-7.998
			l-7.997,5.082l-0.241,0.49h-7.269l-6.302,3.152v0.486l-6.792,0.242l-3.631,1.932l-1.695,3.404l-0.484,0.484h-7.998
			c-1.456,0-4.604,2.428-9.698,7.518c2.428,0.971,3.641,1.943,4.122,2.668l0.244,1.445v-0.229l3.635,13.576l0.241,0.723v0.975
			h-0.241l-0.483,0.246h-0.241l-9.697,13.338l0.485,3.398c1.455-1.221,2.666-1.463,3.637-0.98c1.214,0.488,1.692,2.434,1.214,5.34
			c-0.487,4.605,0.239,9.699,2.421,14.549l3.394,3.635c1.212,1.219,1.695,2.43,1.449,3.645l-1.691,2.422l2.179,2.912
			c1.209,2.424,0.241,6.547-2.665,12.365l3.148,5.338l0.488,1.213l1.939-1.213c3.146-2.912,5.812-3.641,7.992-2.912
			c1.458,0.486,2.179,1.697,2.427,2.912c0.245,1.695-1.698,4.609-6.062,8.971l-3.389,4.367l1.695,2.668
			c2.423-2.18,4.361-2.91,5.574-2.43c1.457,0,5.575-1.449,12.596-5.092c2.189-1.209,5.095,0,8.729,3.643l1.452-0.729l-0.239-2.914
			l-0.728-0.482c-0.485-0.727,0-1.455,0.728-2.182l-1.213-4.607c-0.241-0.727-0.241-1.693,0-2.428
			c0.729-0.727,1.695-1.211,2.666-1.697l2.183-1.94l-1.213-2.91v-0.236h0.239v-0.248c0.974-1.457,0.974-2.666,0.731-3.393
			c-0.971-1.707-0.242-2.908,1.695-4.611l2.665-2.424l-0.485-0.482l-0.726-0.732l3.154-1.453v-3.883
			c0-1.457,1.206-3.391,4.599-5.824l1.456-1.207l-3.636-4.119c-1.213-1.705-0.727-3.885,1.454-6.066v-0.484l7.515-6.299l0.242-1.703
			c-1.457-0.49-1.941-3.15-1.208-7.275c0.966-6.551,3.872-9.701,8.961-10.42h0.485l3.148,1.688h3.395l3.152-3.879l0.244-0.242
			l3.874-2.428l-0.484-3.395v-0.725L804.858,574.79z M844.666,596.78v-0.486l0.242-1.209l-0.242-0.482l-0.487-0.244l-0.24,0.244
			c-0.485,0.969-1.694,1.691-3.393,1.691c-2.669,0-4.849-1.209-6.542-2.908v-0.234h-0.245l-1.937-3.402l-0.484,0.484
			c-0.244,1.457-1.211,2.918-2.911,4.125c-3.147,1.449-6.058,1.935-8.962,0.727c-1.945-0.727-3.154-2.184-3.883-4.369l-0.729-4.85
			c-0.726-4.607-1.692-7.275-3.149-8c-1.45-0.969-2.906-1.213-4.121-0.969l0.246,4.117l-0.246,0.244l-0.481,0.246l-4.123,2.902
			l-3.635,4.127h-0.242v0.488h-5.333l-2.905-1.695c-3.634,0.967-5.574,3.389-6.301,7.992l-0.239,4.133l2.906-2.672l-1.94,8.002
			v0.488l-7.996,7.029c-1.214,1.455-1.699,2.674-1.214,3.396l1.457,1.699c1.698,1.453,2.665,2.67,2.423,3.639
			c0,0.727-0.246,1.457-0.725,1.939l-5.09,4.361c0.243,1.215,0.243,3.154,0,5.338v0.727l-0.245,0.248l-1.938,0.727
			c0,1.211-0.479,1.94-1.695,3.148l-2.668,2.668v0.24c0.486,1.219,0.486,2.672-0.481,4.859c1.211,2.424,1.211,4.119,0,4.848
			l-2.428,2.424l-0.481,0.246l-1.214,0.482v0.484l1.695,5.82h0.488c4.118-0.486,8.479-0.486,13.33,0h0.479v0.242l5.337,5.34v0.238
			h0.239l3.153,8.971l6.542,6.07l2.667,0.965l0.239-7.521l6.06,6.062l0.969-0.967l4.366-8.971l0.723-5.1l0.726,0.252h0.487
			l4.604,0.238l-0.245-3.643v-1.207h0.729l6.059,0.238c3.151-3.148,4.605-5.818,4.605-7.996l-0.967-8.738l5.33,1.699l1.456-2.422
			l-2.422-2.428l-0.727-0.977l4.842-4.848l0.245,0.49h0.481l2.91,1.695v-0.728l-1.938-4.365l0.728-0.728l1.211-0.729l-0.486-1.691
			l-2.424-4.611l0.484-0.244l0.487-0.486l6.54-3.631l0.247-2.67c-5.575-2.912-8.485-5.334-8.003-6.547
			c0.244-0.969,0.729-1.215,1.943-1.215l7.269,1.215l0.245-4.365v-0.488l3.635-3.635l0.968-2.67
			c-1.458-0.48-2.422-1.453-3.393-2.418L844.666,596.78z M855.521,582.106c0.24-0.48,0-1.453-1.214-2.666l-0.729-0.728l0.483-0.482
			l0.245-0.484l0.729-0.242l6.053-9.943l0.49,0.244l1.21,0.242l0.485,0.238v0.49l-0.485,3.875h0.485l6.782-6.059l-0.486-3.154
			h-1.208l-2.423,0.234l4.117-11.148l-3.633-0.48h-0.484v-0.49l-1.209-1.453c-0.725-1.457-0.725-2.664,0.24-3.879l5.814-0.244h3.639
			c0-1.213-0.731-3.398-2.905-7.037l-5.095-1.695l5.326-5.092v-1.213l-2.658,0.49h-0.974v-0.25l-0.242-0.24l-0.238-0.486
			c-0.73-2.426-2.18-4.363-4.363-5.088l-9.695,0.236l-4.118,4.852v0.246l-1.212-0.246l-15.271-4.852l14.786-3.875
			c0.97,0,3.387-2.428,7.509-7.281l-5.088-3.633l-4.358,1.213c-2.67,1.211-4.849,2.182-6.549,2.42c-1.454,0-3.874-0.482-7.266-1.693
			l-5.576-0.727c-1.697,0.727-3.635,3.146-6.3,7.273l3.633,7.76l-6.062,3.394h-0.241l-4.843-1.455
			c1.94,3.637,2.422,5.82,1.697,6.793l-0.487,1.94c-1.21,2.91-2.183,4.609-3.148,5.574l-8.485,7.523l2.183,1.215l-1.457,1.209
			c-1.934,1.695-2.42,3.637-1.452,5.096l5.822,8.969h0.235v0.244l2.67,4.85v0.24l0.24,0.242l-0.24,0.484v0.734l-0.485,0.48
			c1.213,0,2.182,0.486,3.393,1.215c1.938,1.213,3.394,4.611,4.116,9.699l0.975,4.85c0.484,1.211,0.967,1.939,2.182,2.422
			c1.936,0.975,4.358,0.732,6.54-0.727c1.21-0.723,1.943-1.453,1.695-2.18l-0.242-0.24v-0.486l4.121-2.914l0.483,0.49l3.153,5.33
			c1.211,0.973,2.42,1.459,4.361,1.459l1.213-0.236l-0.975-2.918l4.607,1.939h1.452l0.245,0.482l4.362,3.396l1.21-1.939
			l-0.244-8.246l0.244-0.238L855.521,582.106z M855.831,492.86l-2.667,0.967v5.096c-0.486,1.697-1.213,3.631-2.909,5.088
			l-0.971,0.969l2.424,2.918h0.243l0.727,1.938l2.913,1.213c1.694-1.213,2.902-1.697,4.113-1.459l5.096,0.969l0.24-1.695
			c0.24-3.397,1.452-5.336,2.905-6.309l1.695-1.934v-0.246l-6.057-4.848C860.433,493.34,857.769,492.614,855.831,492.86z
			 M663.857,775.301l0.484,3.641l-6.541-1.215l-2.907,1.693h-13.329l-0.727,1.215v0.244l-0.244,0.486l-9.938,2.422l0.486,1.213
			l3.154,3.641c-0.246,0-0.727,0.244-0.974,0.244l-4.604,2.42l-7.272,5.578c-2.421,2.914-1.941,8.248,1.701,16.252l7.27,0.727h0.238
			v0.24l7.272,3.4l7.754-1.217c3.15-0.725,6.785-3.637,11.393-9.219h0.241l0.485-0.475l3.392-0.977l-0.966-10.184v-0.482
			l4.357-6.309v-0.246h0.241l3.397-2.662c0.483-2.912,0.24-5.578-0.971-7.768C666.282,776.03,665.074,775.301,663.857,775.301z
			 M883.82,641.545l1.211-1.453l0.73-1.701l-7.757-3.393c-7.75,5.578-13.329,12.609-16.962,21.104
			c-3.152,7.273-5.575,10.91-7.271,11.883l1.695,13.334v0.244l-1.21,9.219c-0.485,2.91,0,4.844,0.721,5.334l9.939,6.545h0.242
			l0.244,0.723c0.482,2.188,1.935,4.135,3.873,6.555c0.978,1.455,2.187,2.182,3.151,2.664l1.456-16.002v-0.484l7.031-16.977
			l2.42-20.131v-0.244l0.243-0.238l2.183-5.34l-1.698-4.607v-0.242h-0.243l-0.484-6.307l0.243-0.234L883.82,641.545z"/>
	</g>
</g>
</svg>
