<?xml version="1.0" encoding="utf-8"?>
<!-- Generator: Adobe Illustrator 17.1.0, SVG Export Plug-In . SVG Version: 6.00 Build 0)  -->
<!DOCTYPE svg PUBLIC "-//W3C//DTD SVG 1.1//EN" "http://www.w3.org/Graphics/SVG/1.1/DTD/svg11.dtd">
<svg version="1.1" xmlns="http://www.w3.org/2000/svg" xmlns:xlink="http://www.w3.org/1999/xlink" x="0px" y="0px"
	 viewBox="0 0 1920 1080" enable-background="new 0 0 1920 1080" xml:space="preserve">
<g id="图层_2" display="none">
	<path display="inline" fill="none" stroke="#184491" stroke-width="3" stroke-miterlimit="10" d="M820.097,282.284l-4.604,2.184
		l-0.241,0.242l-2.666,3.638v0.241h-0.239l-5.821,11.158l-2.18,2.91l-1.728,0.383l0.047-0.033h-0.959l-0.187-0.055v0.055h0.187
		l0.461,0.133l0.451-0.1l-3.844,2.769l-3.635,2.425h-0.243l-0.245,0.485v0.242l-1.209,4.853v0.239v0.244l-1.697,4.607l-3.875,4.85
		l-4.124,2.184l-9.447,1.213c-0.065-0.288-0.152-0.585-0.259-0.892v0.81l-3.133,0.901H766.3l-2.667,4.849v0.242l-0.485,2.182v0.246
		v0.482l1.452,2.668l-0.865,0.347v0.176c0.288-0.17,0.568-0.323,0.866-0.522l-0.001-0.001l0.28-0.112l-3.669,4.388v0.484
		l0.242,0.483l2.426,2.913h0.238v0.244l3.153,3.151l3.334,3.232v0.911c0.571,0.919,1.078,2.883,1.27,5.799l0.487,4.608l5.087-10.671
		l12.117,0.728l1.209,15.034c0.729,3.398,6.305,4.367,16.729,2.913l1.21-0.244v-0.483l-0.486-5.335l13.329-12.612
		c2.185,1.211,6.541,2.183,13.084,3.396l9.453,0.972c1.213,0,1.94-0.729,1.94-1.941l0.479-0.243h0.975l0.969,1.697l0.244,0.728
		v0.241h0.24h1.212l4.846-0.725h0.245v-0.244l1.695-0.484l0.725,0.484l-2.665,4.366l-0.239,0.242l-0.244,0.242v0.486l1.214,5.094
		l-1.942,0.24l-4.846-2.182h-0.484l-15.271,10.914c-2.182,1.943-4.114,2.91-5.816,2.91h-0.482h-0.73l-0.241,0.484v0.725
		l-0.238,1.212l0.479,0.245h2.425l-0.484,2.184l-4.12,1.938l-0.236,0.246v0.486l-0.489,3.88c-1.936-0.972-3.878-1.457-5.577-1.457
		c-0.727,0-1.209,0.241-1.938,0.972c-0.483,0.727-0.483,2.424,0.485,4.85l0.726,3.637c0.247,1.94-1.694,4.124-5.572,6.789
		l-3.872,0.728v0.246l-2.67,12.126l-0.928,2.374l-0.096-0.064v0.308l0.096-0.244l0.441,0.293l-0.537,1.821v0.422h-0.124
		l-0.553,1.875l1.214,0.25c4.121,1.214,7.028,2.671,8.484,4.846c1.939,2.43,6.06,3.643,13.084,3.643
		c2.182,6.06,4.366,9.939,7.034,12.125c2.175,2.184,5.082,8.487,8.718,18.671l0.246,5.586v1.207l5.33,0.969l10.904,6.311v0.234
		h0.243l4.122,0.728l0.483,4.368l2.669,3.639l1.692,4.848c-0.976-0.821-1.509-1.328-1.799-1.633c-0.177-0.39-0.556-0.584,0,0
		c0.167,0.367,0.14,0.896-1.063,1.082c-0.421,0.104-1.258,0-2.291-0.207v0.147c0.493,0.28,0.995,0.584,1.518,0.946l6.057,4.848
		v0.247l-1.695,1.935c-1.453,0.972-2.665,2.91-2.905,6.308l-0.24,1.695l-5.096-0.97c-1.211-0.238-2.42,0.247-4.113,1.459
		l-0.386-0.16l-0.009-0.207v0.204l0.009,0.003l0.137,3.219c-4.121,4.853-6.539,7.279-7.508,7.279l-14.786,3.875l15.271,4.854
		l1.212,0.246v-0.246l4.118-4.854l9.695-0.235c2.184,0.725,3.633,2.661,4.363,5.089l0.238,0.485l0.242,0.239v0.251h0.973l2.659-0.49
		v1.213l-5.327,5.093l5.096,1.694c2.174,3.638,2.905,5.823,2.905,7.036h-3.639l-5.814,0.245c-0.965,1.216-0.965,2.423-0.24,3.879
		l1.208,1.453v0.49h0.484l3.633,0.479l-4.117,11.148l2.424-0.233h1.209l0.484,3.154l-6.781,6.058h-0.485l0.485-3.875v-0.489
		l-0.485-0.239l-1.21-0.241l-0.49-0.244l-6.053,9.944l-0.729,0.241l-0.246,0.483l-0.482,0.483l0.729,0.729
		c1.214,1.212,1.454,2.185,1.214,2.666l-2.913,3.643l-0.244,0.238l0.244,8.247l-1.21,1.939l-4.362-3.396l-0.096-0.189l0.172-0.216
		h-0.282l-0.04-0.078h-0.24h-0.582v0.078h0.862l0.11,0.216l-2.086,2.618l-0.241,1.209v0.486l0.241,0.491
		c0.972,0.966,1.935,1.94,3.395,2.42l-0.969,2.669l-3.635,3.636v0.488l-0.245,4.363l-7.269-1.214c-1.215,0-1.699,0.246-1.943,1.214
		c-0.482,1.214,2.428,3.636,8.003,6.547l-0.247,2.672l-6.54,3.629l-0.487,0.488l-0.484,0.244l2.424,4.61l0.486,1.692l-1.211,0.728
		l-0.728,0.729l1.938,4.365v0.729l-2.91-1.695h-0.48l-0.246-0.491l-4.842,4.849l0.727,0.977l2.422,2.427l-1.456,2.423l-5.33-1.7
		l0.968,8.739c0,2.177-1.455,4.848-4.606,7.996l-6.059-0.239h-0.729v0.483v0.724l0.245,3.643l-4.604-0.239h-0.487l-0.727-0.252
		l-0.722,5.1l-4.366,8.971l-0.969,0.967l-6.06-6.062l-0.239,7.523l-0.14-0.051v2.544h-0.241l-0.349,3.326l-4.36,0.244h-0.972
		l-0.243,0.73v0.237c-0.481,1.212-1.695,2.183-3.876,2.427c-3.152,0.976-5.09,2.907-5.09,6.553
		c-7.026,5.568-11.389,8.479-12.602,8.966c-0.244,0-0.726-0.244-0.969-0.486l-0.245-0.24v-0.248l-0.481-0.232
		c-2.912-1.221-4.848-0.971-5.817,0.481l-1.695,5.817l-0.487-0.968c-1.694-2.183-3.876-3.641-6.782-3.878h-4.124l-1.207,0.237v3.641
		l-1.941,0.968l-2.179-2.424l-0.241,0.24l-0.488,0.252l-5.575,1.932l0.727,0.973l2.425,1.941l-1.212,2.913l-1.455,0.481
		l-8.237,0.967l-6.544-11.883l-0.243-0.237l-0.484-0.245h-0.245l-4.121-0.727v0.972v0.481l0.729,18.437l-1.211,1.455l-2.425-0.483
		l-6.054-5.339l-0.976,8.484l-5.814,1.7l-0.482,0.237v0.249l-0.243,0.246l-2.182,3.63l-5.329-0.967h-5.577l0.486,3.635l-1.695,0.242
		l-1.458-1.695l-0.236-0.727h-0.246l-3.396-1.455l-0.484,1.211l-2.183,3.637l-16.716,8.007h-9.455l1.694,4.854l-0.48,1.689h-4.124
		v4.852l0.246,0.247l0.239,0.238l2.283,1.874l3.606,0.446l2.29,3.438l-0.409,1.583l-1.881,0.709l0,0l0,0l-1.144,1.146l-1.146,1.145
		l-3.604,1.134v0.412l-2.121-1.546l-2.29-3.438l-1.399-5.029v-0.419l-0.242-0.488l-1.452-3.148l1.008-12.685h-0.204v-0.466
		l-2.258-0.916l-3.395-5.093l-8.001,10.673l-1.937,0.479v-3.147v-0.489h-0.482l-0.728-0.237l-4.847-0.245l-5.816-10.428l-0.971,8
		l-4.604-0.727h-0.245h-0.238l-0.242,0.243l-0.486,0.483l-1.938,2.428l-1.21-0.486l-7.761-5.818l-0.239-0.246l-0.488,0.246
		l-0.48,0.246l-5.092,2.42l-6.057-4.121l-7.756-4.121c-2.179-0.727-3.151-3.883-2.666-9.22l4.121-4.123h-0.238v-0.485l-0.49-4.608
		v-1.21l-9.209,0.237l-4.118-2.423l-0.246-0.236l-0.235-0.249l-10.426-0.968l-0.724-1.457l-0.916-2.781l0.093-0.112h-0.13
		l0.037,0.112l-0.298,0.356l-1.213-2.184l-0.245-0.239l-0.24-0.24l-0.239-0.246l-5.089-1.447l-16.481,14.542l-5.092-0.97
		l-0.241-0.238h-0.241l-0.242,0.238l-0.243,0.246l-5.334,4.362l-12.115-3.151l-0.485,0.489l-0.242,0.24
		c-3.633,4.123-6.299,6.791-7.752,7.271c-1.457-1.934-4.365-4.607-8.725-8.001l-0.728-0.487l-8.241,6.065l-6.544-0.484h-0.728
		l-0.482-0.241l-1.938,9.937v0.495l3.149,14.303l0.242,0.242l0.972,6.309v0.241l-1.455,0.486l-5.576-1.942l-3.635-0.727
		l-1.454-6.062l-0.24-0.244v-0.236l-4.364-6.553l-8.48,7.275l-4.12-0.723l-6.543-3.646c-1.212-3.391-2.668-6.302-4.121-9.217
		c-1.211-2.178-4.605-3.875-10.422-4.365l-4.361-0.967c-0.241-1.696,3.151-7.025,10.419-15.999l1.7-2.185l-11.391-0.49l-6.304-4.609
		l2.425-10.18v-0.727v-0.238l-3.393-3.402l2.909-4.609l-0.485-0.24l-2.424-3.397l-6.301,3.153l-9.696,1.213h-0.482l-0.244,0.243
		c-1.936,1.462-3.877,2.426-5.331,2.426l0.971-3.153l2.183-2.666l-0.485-0.484l-0.485-0.48l-1.455-1.214
		c-0.24-5.583,0.243-8.737,1.214-8.978h-0.243c1.94-0.971,6.059-7.522,12.359-20.127c1.696,0.963,2.906,1.21,4.604,1.21
		c1.454-0.247,2.181-0.73,3.151-1.7c2.183-2.909,3.876-13.822,5.572-32.983v-0.476v-0.253l-4.604-10.667l-1.451,0.727
		c-1.457,1.216-3.153,1.216-4.606,0.488c-0.727,0-0.97-1.215-1.211-3.399v-6.791l-1.042-3.945l0.221-0.098h-0.246l0.025,0.098
		l-0.17,0.075h-0.243l-0.483-0.251c-3.394-6.789-6.787-9.94-10.421-9.218c-1.94,0.488-3.153,1.214-3.637,2.429
		c-0.725,1.46-0.725,3.151,0,5.332l-1.696,7.276v0.245v0.237v0.252v0.725l-0.242-0.24l-4.119-1.702l-0.485-0.487l-3.151-1.213
		l-10.42-8.726c-1.454-1.217-6.787-0.975-15.992,0l-0.246,0.245h-0.242l-15.993,9.212l-4.119,1.207l-8.484,0.245l-7.268,10.189
		l-7.515,3.881c-12.845,0.969-20.114,0.969-21.567,0c-0.972-0.731-2.668-3.156-4.848-7.278l0.242-9.212L277,592.955l0.727-6.793
		v-0.481l0.243-0.484l-14.54-2.675c-11.875-7.271-19.388-10.425-23.023-9.214c-3.395,1.218-8.242,7.519-14.299,18.913l-0.727,0.734
		l-1.94-1.452h0.243l-0.243-0.495c-3.149-2.906-4.118-4.846-3.391-6.056l2.423-2.431c2.908-2.419,3.635-4.365,2.424-6.302
		c-1.94-2.183-7.271-2.912-15.754-1.457l-6.3,0.973l-10.421-0.729l-5.816-5.096h-0.242l-3.395-1.455h-0.483l-9.21,1.704
		l-6.302-7.768l-0.242-0.242v-0.248l-8.724-4.844l-0.241-0.233h-4.122l-2.666-7.529l-5.573-1.454l-6.79-4.117l-5.569-11.639
		l-0.245-0.487l-0.485-0.489h-0.242h-0.481l-6.546,0.977l-7.997-11.891l-0.244-0.238l-1.697-0.976l-0.239-0.235l-3.639-1.46
		l-10.662-12.37l-1.212-6.054v-0.493v-0.234l-8.966-2.192l-0.245,0.245l-0.483,0.488l-3.636,6.549H82.64l-5.818-7.282v-0.24
		L63.978,483.82c-1.211-0.971-1.938-2.186-1.938-3.874l-0.241-0.489c-4.118-5.579-7.029-8.73-8.968-9.216h-5.817
		c-2.908-3.882-3.636-7.522-2.181-11.162c1.454-4.118,2.907-6.542,3.878-7.268l0.484-0.489c0.243-0.236,0.243-0.727,0-1.454
		l-3.15-4.851l1.377-2.554l2.016,0.613h7.271l4.361-4.361c2.185-3.152,2.908-6.065,1.938-8.488l-2.178-5.096
		c-3.15-7.519-4.607-11.886-4.363-13.096c0.242-2.425,2.665-6.066,6.3-11.156l0.226-0.227v-6.315l-0.465,0.234
		c-5.818-1.938-8.727-4.852-8.97-8.728l-1.211-19.887h-0.484l-0.242-0.244l-13.089-5.578l-4.846-2.667l-3.637-1.941l6.302-5.821
		H23.992l-3.149-0.725l-1.212-7.517c4.12-6.794,4.362-11.398,1.212-14.066l-7.998-7.762l-0.246-0.241h-0.726l-3.392,0.483
		c-4.122-2.667-6.543-4.606-6.786-5.821c1.455-0.967,5.091-1.212,10.663-1.212h0.97l3.878-18.429h0.243v-0.244l-1.453-13.338v-0.485
		l-6.787-7.518l-5.333,5.579L0,275.735c0.727-3.881,1.454-6.061,2.666-6.789c0.968-0.971,1.695-2.182,1.938-4.121
		c0-1.941-0.244-3.397-0.728-5.096c0-1.457-0.484-2.424-1.211-2.909c1.453-2.909,4.363-6.063,8.483-9.458
		c3.877-3.396,6.542-4.85,8.723-4.607c3.878,0.486,7.755,1.941,10.905,3.881h0.245l0.24,0.24h0.486l5.088-1.213l1.212-3.88h6.785
		v8.974l10.66-0.24l0.246-0.486l6.787-8.002c5.814-2.185,9.934-3.154,12.358-2.426c2.666,0.481,5.331-0.486,7.995-3.395
		l16.722,2.424h0.243h0.485h0.243l6.059-5.82l15.753-0.242h0.243l2.183-1.212l4.363-3.396c4.117-3.88,6.786-7.518,7.755-11.884
		c0.24-2.184,0.966-3.154,1.452-3.395c0.727-0.243,1.212,0.484,2.181,2.425l0.727,1.455v0.242h0.484
		c0.486,0.241,0.969-0.485,1.213-1.938l4.849-15.764l0.242-0.244v-0.242h-0.242l-1.214-8.488l2.668-15.764
		c0.239-1.209-0.727-3.153-3.151-6.307l-2.908-4.121l6.542-1.213l6.06,0.486l4.12,0.242c8.965,0.484,14.541,1.697,16.48,3.151
		c2.178,1.454,4.119,2.183,6.059,1.698c1.697-0.244,3.153-1.213,4.119-2.668v-0.241l0.484-0.243l-0.243-0.483h-0.241l-2.422-10.43
		l19.872-25.466c14.781,10.429,25.447,14.553,31.745,12.126c3.397-1.212,5.575-3.637,7.029-6.79
		c0.968-1.941,1.697-5.093,2.425-9.457c0.485-3.881,1.211-6.793,1.938-7.762c1.455-2.182,4.363-4.121,8.968-5.819l7.512-2.426
		c1.696,0,3.151-2.425,4.607-7.518l1.211-3.151l11.632-1.215l2.907,15.038l0.242,0.241l0.244,0.243
		c3.391,1.453,5.816,4.121,7.27,7.274c0.968,2.669,2.91,4.852,5.574,6.064c1.453,0.97,2.909,1.455,4.362,1.939
		c7.271,2.182,11.39,4.365,11.874,6.791l3.636,16.976l3.392,10.671c-6.785,14.308-9.936,23.038-9.936,25.705
		c0.243,2.185,0.971,4.124,1.941,6.306l2.179,3.396h0.729c19.147,0.484,30.053,2.183,33.202,4.364
		c1.21,0.969,2.906,1.699,4.603,2.668c2.182,0.484,4.847,1.94,7.513,4.121c4.848,3.882,7.998,7.52,9.211,10.916v0.242l0.241,0.486
		v0.241h0.485h0.241l10.177,1.454l1.213,8.973v0.487l4.848,3.879l7.755,22.069v0.243h-0.243l-0.239,0.24l1.647,2.823h0.06
		l0.23-0.308l4.847-1.456l4.363,0.731l3.392,3.637v0.243l3.153,2.425l0.068,0.342l-0.083,0.114h0.105l-0.022-0.114l2.598-3.585
		c10.177,3.152,18.659,5.092,25.685,5.576c5.818,0.486,12.118,0.486,18.421-0.484l8.723-1.213l7.757,0.729
		c5.328,0.969,9.934,2.913,13.571,5.82c5.571,4.365,11.147,8.004,17.446,10.669c6.79,3.397,12.847,4.609,17.45,4.366l8.724-2.182
		l2.425,5.82h0.484l0.487-0.244l8.481-0.968h0.241l0.486-0.244l0.237-0.243c12.847-13.094,30.78-19.398,53.803-18.672l20.602,0.482
		c1.939-0.242,2.665-0.482,2.905-1.453c0.249-0.971-0.479-1.455-1.691-1.455l7.267-4.364h0.241v-0.243
		c7.51-11.884,12.606-18.432,15.029-19.402l1.938-0.484c3.15-0.971,5.329-1.939,6.54-2.91c1.941-1.458,2.91-3.395,2.91-6.065
		l-0.482-7.758l-1.942,1.214l-1.696,0.239c-0.727-0.484-1.457-2.425-1.694-5.334c-0.242-5.578,1.211-10.671,4.122-14.794
		c3.389-0.969,6.543-0.727,9.444,0.729c2.186,1.453,5.575,2.667,9.941,3.395l5.57,1.213h0.731l11.149-4.607h0.239h0.241l0.247-0.242
		l4.113-8.73c3.644-2.184,7.516-3.881,12.123-4.607c3.873-0.73,6.781-1.941,8.719-3.88c2.185-1.701,3.396-4.124,4.122-7.763
		l2.909-12.126l4.842-0.726c2.673,0,7.518-2.67,14.787-8.006l5.815-3.878c2.426-0.728,9.21-0.728,21.084-0.241h0.243
		c2.423-0.245,4.118-1.215,4.85-2.912c0.725-1.696,0.725-3.152,0-5.094c-1.215-3.879-6.549-8.244-16.238-13.096
		c-3.638-4.85-6.541-8.002-8.967-8.487l-8.005,0.485l-6.052,1.213l-0.244,0.242l-0.483,0.24l-2.18,3.881l-1.698,1.941l-15.511-2.424
		l-5.569,2.908l-0.244,0.485h-0.244l-1.457,2.911l-1.693-2.184c0-7.275,0.24-12.125,1.215-14.795l4.361-21.098l0.241-0.244
		l0.246-11.155c6.055,0,9.687,0.729,11.14,1.7c1.701,1.938,4.603,3.881,7.756,6.062l0.729,0.485l0.487,0.242l0.726-0.728
		c8.969-10.913,14.543-16.733,16.233-17.705l0.727-0.239c0.975-0.488,1.215-2.67,0.975-6.307v-0.481l-2.185-2.424l3.156-6.062
		v-0.729c0.479-8.729,1.213-14.551,2.66-16.732l7.998-15.764v-0.242v-0.243v-0.245l-1.454-4.848l-0.482-5.093v-0.728l-0.484-0.243
		h-0.487l-2.904-1.214l-0.246-0.485l-0.24,0.243h-0.244l-3.636,0.242l3.636-5.576V15.03c1.213-3.637,3.392-5.576,6.543-5.82
		l6.305-0.969l0.016,0.068l-0.427,0.225h0.477l-0.05-0.225l2.895-1.523c11.387-6.063,18.657-8.489,21.807-7.276
		c3.637,0.726,6.056,1.939,7.756,3.15l0.482,0.486h0.246l16.964,0.243l2.178,1.211l13.571,13.342
		c1.212,0.969,5.334,5.819,12.604,14.791c7.755,9.218,11.633,14.55,12.599,16.248l9.209,20.857c0.247,0.486,0.728,0.727,1.46,0.727
		l0.481-0.482l15.994,0.726l19.147,3.396l5.334,3.153l0.482,0.484l6.302-0.484l1.21,6.546v0.244v0.243h0.243l0.244,0.242l3.39,2.426
		l2.668,3.637l-2.178,2.184l7.027,7.52v0.482h0.727h0.239l23.991-4.364h0.24h0.246l0.242-0.487l2.667-4.85l0.238-0.242v-0.242
		l1.215-7.518c5.336-1.698,8.481-3.639,9.451-6.548c0.244-1.214,1.453-2.912,3.396-4.366c1.933-1.211,3.874-1.939,5.573-1.699h2.179
		c-0.727,6.551,0.485,10.431,3.152,12.13l0.968,1.453c0.484,1.698-0.479,3.88-2.184,6.548h-0.238l-0.243,0.484l3.633,23.768
		c0.975,10.915,0.975,17.945-0.483,21.343c-2.424,5.819-4.605,9.458-7.028,10.669h-6.06l-2.906-1.211l-0.243-0.484h-3.391
		l-0.239,0.484c-2.913,2.424-5.577,4.852-7.756,7.275c-3.883,4.849-4.847,8.973-3.156,11.883c2.182,3.395,4.361,6.304,6.788,7.759
		l3.234,15.76h0.147v0.72l0.251,1.226l-0.251,0.025v0.321h1.145l0.076,12.508l-7.029,4.121l0.487,0.729l0.728,0.482l4.605,4.365
		l-0.483,1.457l-2.425,0.969l-8.488-8.972v-0.242l-0.476-0.241h-0.729l-4.12,0.968h-0.485h-0.728v1.214l-0.725,11.154l-5.337,5.094
		h-0.24c-4.601,8.246-9.447,11.153-14.542,9.459l-5.568-0.244c-0.487,0.971,0.967,2.425,4.359,4.365l7.27,7.033l-0.483,3.396
		l-15.752-1.213c-4.363-2.424-7.756-3.639-9.938-2.91c-2.668,0.486-4.604,4.123-6.297,10.184l-5.574,11.399l-0.238-2.943v-1.093
		h-0.089l0.089,1.093v3.49l-2.188,1.635l-15.023,15.763v0.243l-3.882,10.671l-2.424,2.669l-3.39,1.455l-3.145,0.725h-3.158v-0.241
		l-0.236,0.241l-3.88,1.942h-0.489l-17.932,18.43l-2.666,7.034l-1.456,1.212l-7.994,0.971l-0.245-0.486l1.456-2.667l1.937-0.485
		l1.943-0.242l0.483-0.242h0.244l1.448-2.668l0.245-0.244v-2.182l0.727-0.97l2.184-0.97h0.24v-3.882v-0.239l-2.424-2.185
		l-0.244,0.485l-0.482,0.485l-1.938,1.697l-1.694,0.728h-0.483l-0.249-5.336l1.455-3.152l3.155-3.879h0.236v-0.486l1.216-4.365
		l0.24-5.094l-0.481-4.607v-0.486h-0.247v-0.241l-4.12-6.304v-0.243l-0.478-0.243c-1.945-0.97-3.157-1.454-3.883-1.454
		 M627.918,789.145l4.604-2.42c0.247,0,0.727-0.244,0.974-0.244l-3.154-3.643l-0.486-1.212l9.938-2.422l0.245-0.487v-0.243
		l0.726-1.215h13.088h0.241l2.908-1.692l6.541,1.214l-0.484-3.64c1.217,0,2.424,0.727,3.394,2.664
		c1.211,2.189,1.455,4.854,0.971,7.768l-3.397,2.661h-0.241v0.247l-4.357,6.309v0.482l0.966,10.184l-3.391,0.977l-0.485,0.476
		h-0.242c-4.606,5.581-8.241,8.493-11.392,9.218l-7.754,1.218l-7.273-3.401v-0.24h-0.238l-7.268-0.726
		c-3.643-8.005-4.123-13.34-1.702-16.252L627.918,789.145z M799.849,785.73c0.246-0.057,0.597-0.272,1.057-0.704
		c0.527-0.509,1.337-0.925,2.461-1.256l1.128,0.202l-0.106,0.1l-0.177,0.09l-0.035,0.014l-0.033,0.013l0.068,0.375h0.038v0.016
		l0.245,0.274l-0.318,0.314l-0.033,0.012v0.016l-0.353,1.195l-1.019,1.009v0.026l-0.211,0.956c-0.142-0.029-0.317-0.071-0.458-0.163
		c-0.283-0.142-0.493-0.256-0.562-0.387l-0.038-0.043h-0.037l-1.441-0.39c-0.107-0.026-0.175-0.143-0.107-0.314l0.179-0.55v-0.011
		L799.849,785.73z M855.241,668.376c1.695-0.972,4.118-4.608,7.269-11.882c3.633-8.494,9.213-15.525,16.963-21.104l7.757,3.393
		l-0.732,1.701l-1.21,1.452l-0.241,0.251l-0.244,0.233l0.485,6.307h0.243v0.242l1.698,4.608l-2.183,5.339l-0.244,0.239v0.244
		l-2.42,20.13l-7.03,16.977v0.484l-1.456,16.003c-0.965-0.483-2.174-1.209-3.152-2.664c-1.938-2.421-3.39-4.368-3.872-6.555
		l-0.245-0.724h-0.241l-9.939-6.545c-0.721-0.49-1.206-2.424-0.721-5.334l1.21-9.218v-0.244L855.241,668.376z"/>
</g>
<g id="图层_1">
	<path fill="none" stroke="#033B95" stroke-width="2" stroke-miterlimit="10" d="M387.269,235.477l-4.847-3.879v-0.487l-1.213-8.972
		l-10.177-1.455h-0.24h-0.486v-0.241l-0.242-0.486v-0.243c-1.211-3.395-4.362-7.034-9.21-10.915
		c-2.666-2.181-5.331-3.637-7.513-4.121c-1.697-0.969-3.394-1.699-4.603-2.668c-3.151-2.183-14.055-3.88-33.202-4.365h-0.73
		l-2.177-3.397c-0.97-2.182-1.698-4.121-1.941-6.305c0-2.668,3.151-11.398,9.935-25.705l-3.391-10.672l-3.636-16.976
		c-0.484-2.426-4.602-4.609-11.873-6.791c-1.453-0.484-2.91-0.969-4.362-1.939c-2.665-1.213-4.605-3.396-5.575-6.065
		c-1.454-3.153-3.878-5.821-7.27-7.274l-0.243-0.244l-0.242-0.241L281.122,97l-11.632,1.214l-1.211,3.151
		c-1.455,5.094-2.91,7.518-4.607,7.518l-7.511,2.426c-4.605,1.697-7.514,3.637-8.969,5.82c-0.727,0.968-1.452,3.88-1.937,7.762
		c-0.727,4.364-1.457,7.516-2.425,9.456c-1.454,3.154-3.632,5.578-7.029,6.79c-6.298,2.427-16.964-1.697-31.745-12.126
		l-19.872,25.466l2.421,10.43h0.242l0.242,0.483l-0.484,0.243v0.242c-0.967,1.455-2.421,2.424-4.12,2.668
		c-1.939,0.484-3.879-0.243-6.058-1.698c-1.939-1.455-7.514-2.667-16.48-3.152l-4.12-0.243l-6.059-0.486l-6.543,1.214l2.908,4.122
		c2.425,3.153,3.391,5.096,3.151,6.306l-2.668,15.763l1.214,8.489h0.241v0.242l-0.241,0.244l-4.847,15.763
		c-0.245,1.454-0.728,2.181-1.214,1.939h-0.484v-0.242l-0.727-1.455c-0.968-1.94-1.453-2.668-2.18-2.425
		c-0.487,0.241-1.212,1.211-1.453,3.395c-0.968,4.366-3.637,8.004-7.755,11.883l-4.363,3.397l-2.182,1.211h-0.243l-15.753,0.243
		l-6.058,5.82h-0.242h-0.486h-0.243l-16.721-2.424c-2.664,2.909-5.329,3.877-7.996,3.394c-2.424-0.728-6.544,0.242-12.357,2.426
		l-6.787,8.003l-0.245,0.485l-10.662,0.241v-8.974h-6.784l-1.212,3.881l-5.088,1.213h-0.486l-0.24-0.242h-0.245
		c-3.15-1.939-7.027-3.394-10.905-3.88c-2.181-0.242-4.846,1.212-8.723,4.607c-4.121,3.396-7.029,6.549-8.483,9.458
		c0.727,0.485,1.211,1.452,1.211,2.909c0.484,1.7,0.727,3.155,0.727,5.095c-0.243,1.94-0.97,3.151-1.938,4.122
		c-1.213,0.728-1.938,2.908-2.666,6.789l3.877,2.67l5.333-5.579l6.786,7.518v0.486l1.453,13.338v0.244h-0.243l-3.877,18.43H12.36
		c-5.572,0-9.208,0.245-10.663,1.211c0.243,1.214,2.664,3.154,6.785,5.822l3.392-0.484h0.726l0.246,0.241l7.998,7.763
		c3.149,2.667,2.907,7.272-1.213,14.066l1.213,7.517l3.149,0.725h12.359l-6.302,5.821l3.636,1.941l4.847,2.666l13.088,5.579
		l0.243,0.244h0.484l1.211,19.887c0.243,3.877,3.15,6.79,8.97,8.728l0.966-0.487h0.244h0.24l13.574,1.944h0.968v-0.246l0.243-0.483
		c1.455-2.665,2.424-4.607,2.424-5.091v-0.487c-0.242-2.181,0.727-4.123,2.665-5.578c1.938-1.457,3.15-2.908,3.877-4.606l0.244-0.24
		c0.727-1.942,3.151-2.429,7.272-1.219h0.239l4.607,2.67l15.268,2.911l9.453-0.73l6.787-2.906c1.208-1.702,2.179-2.43,2.907-2.916
		c1.21-0.24,2.907,0.246,4.847,1.944l0.967,0.485c0.97,0.727,1.698,2.182,2.668,4.849l4.847,3.638h3.636h0.241h0.484h0.243
		l5.089,2.183l9.451-0.726l5.333-1.698l13.813,1.21l6.059-1.695l7.026-2.912c1.454-0.97,3.152-1.701,5.575-2.425h13.328l4.847-1.698
		c1.939-1.212,3.633-1.941,5.09-1.941h7.753l3.636,2.669l10.422,2.179c1.454,0,2.908,1.216,5.33,3.399l4.362,2.911l0.485,0.484
		l9.935,0.243h0.244l4.604,2.426l6.059,1.213h0.242l5.089,0.725l1.454-2.907l-2.182-4.852l-0.968-4.851v-0.243h-0.243L285,381.23
		l3.393-4.61v-0.239h0.24v-0.244l3.394-2.426l-0.725-1.453l-1.455-4.851c0-0.727-0.728-1.212-2.182-2.183l-3.635-3.879l-4.606-3.88
		l-0.241-0.487l-0.483-0.242l0.242-0.243v-0.483l0.727-4.61v-3.394l-2.181-5.821l5.572-1.211l2.664-2.669h6.786l6.788-0.971h0.243
		l4.604,0.487l5.332-1.941l6.058-0.726l3.877-1.699h0.242l10.422-1.94l1.695-1.698l-0.484-1.941l-1.94-3.396v-0.242l-0.241-0.243
		v-0.241l0.485-3.638l0.243-0.243v-5.092l-0.969-4.364v-0.243l2.423-4.851c0.97-2.18,2.182-3.393,3.634-3.393l6.301,0.483
		c0.97,0,2.183-0.483,3.394-1.457l9.451-12.851v-0.245l0.246-0.241l5.086-4.123l0.487-0.485c1.935-0.485,3.149-1.212,3.877-1.696
		l1.213-1.214c1.694-2.182,3.149-3.154,4.117-3.154l8.239,1.699l7.029-3.396h0.242h0.242l4.122-0.483l3.39-1.457v-5.578l0.972-7.032
		v-0.243v-0.245l1.213-1.938v-0.244l0.239-0.241h0.244v-0.243L387.269,235.477z"/>
	<path fill="none" stroke="#003988" stroke-width="2" stroke-miterlimit="10" d="M90.229,379.955v0.241
		c-0.972,2.182-2.668,3.638-4.606,5.337c-1.453,0.726-1.938,1.938-1.938,3.395v0.726c0,1.208-0.727,3.154-2.665,6.066l-0.242,1.211
		c-0.484,0.726-1.453,1.212-3.149,1.212l-13.817-1.694v0.236l-0.969,3.155v0.245l-0.242,0.242l0,0
		c-3.634,5.09-6.058,8.732-6.3,11.157c-0.243,1.209,1.214,5.577,4.363,13.095l2.179,5.096c0.969,2.424,0.247,5.336-1.939,8.488
		l-4.361,4.362h-7.27l-2.176-0.897l-1.216,2.837l3.15,4.851c0.242,0.726,0.242,1.217,0,1.454l-0.484,0.49
		c-0.971,0.726-2.424,3.15-3.878,7.269c-1.454,3.639-0.727,7.28,2.181,11.161h5.817c1.938,0.486,4.849,3.636,8.967,9.216
		l0.243,0.489l0,0c0,1.688,0.726,2.904,1.937,3.875l12.844,11.882v0.24l5.818,7.282h3.393l3.635-6.549l0.484-0.488l0.244-0.245
		l8.965,2.192v0.235v0.492l1.212,6.055l10.662,12.37l3.638,1.459l0.24,0.236l1.697,0.976l0.243,0.238l7.998,11.89l6.545-0.977h0.482
		h0.242l0.485,0.49l0.245,0.487l5.57,11.639l6.788,4.117l5.574,1.455l2.665,7.529h4.122l0.242,0.233l0,0l8.724,4.844v0.248l0,0
		l0.242,0.242l6.303,7.769l9.208-1.704h0.484l3.395,1.455h0.241l5.817,5.096l10.421,0.729l6.3-0.972l0,0
		c8.482-1.455,13.814-0.725,15.753,1.457c1.212,1.937,0.484,3.883-2.424,6.302l-2.423,2.43c-0.727,1.211,0.241,3.15,3.391,6.056
		l0.243,0.496h-0.243l1.94,1.452l0.727-0.735c6.057-11.393,10.904-17.695,14.298-18.912c3.636-1.212,11.149,1.942,23.023,9.214
		l14.541,2.674l-0.244,0.484v0.482l-0.727,6.793l7.27,0.968l-0.241,9.212c2.18,4.122,3.876,6.547,4.848,7.279
		c1.452,0.968,8.72,0.968,21.567,0l7.515-3.882l7.268-10.188l8.484-0.245l4.119-1.207l15.993-9.212h0.243l0.246-0.245l0,0
		c9.206-0.975,14.539-1.216,15.992,0l10.421,8.725l3.151,1.213l0.485,0.488l4.119,1.702l0.243,0.24v-0.725v-0.252v-0.237v-0.245
		l1.696-7.276c-0.726-2.181-0.726-3.873,0-5.332c0.483-1.215,1.696-1.94,3.636-2.429c3.634-0.723,7.028,2.429,10.421,9.218
		l0.483,0.251h0.244l6.058-2.674c1.211-0.24,1.695-1.456,1.695-2.666l-1.212-4.366v-0.242c-0.483-1.944,0-3.635,1.939-4.367
		l2.183-1.698l5.331-5.817l3.635-8.013c-3.15-5.081-4.119-8.723-3.15-11.149l0.727-6.79c-1.455-2.915-2.182-4.849-2.182-6.55
		c0-0.726-0.969-2.904-2.906-5.816h-0.245v-0.729l-0.728-8.725c-0.24-1.464-0.483-3.404,0-5.826c-2.18-1.695-3.634-3.395-4.604-5.09
		l-3.636-4.854l-0.242-0.238v-0.485v-0.243l-1.21-6.067l-3.633-2.908v0.241l-7.029-5.578v0.488l0.966,7.523v0.235v0.728
		l-3.633,1.696l-0.484,4.608v0.731l-8.482,3.396l-2.91-6.795l-1.695-0.483l-2.666,2.666l-1.697,4.853l-6.061,1.699l-3.39-2.425
		l-4.847-1.458l-1.454-6.791l-1.94-4.119l-2.908-1.214l-0.244-0.487l-2.18-2.664l0,0l-2.181-3.882l-3.393-4.367h-2.908l-4.846,1.697
		l-0.244,0.244l-12.36-0.727l-9.451-1.941c-0.728-0.486-2.425-1.213-5.088-2.908l-7.271-2.42c-5.575-1.458-8.723-2.679-9.451-4.129
		l-1.212-0.727l-1.697-0.485l-4.363-2.425l-0.484-0.244c-0.727-0.971-1.453-1.697-1.94-2.671l-0.968-2.181l-1.937-2.906l-3.154-1.46
		l-1.21,0.733l-1.212,0.969l-0.728,0.485c-1.21,0.972-2.423,1.458-3.393,1.696c-1.939,0.483-3.878-0.486-6.058-2.905l-4.605-4.854
		c-1.699-2.18-2.908-3.883-3.393-5.092l-1.211-1.944c-1.696-1.696-2.908-3.394-3.636-4.851c-0.726-2.181-0.97-4.118-0.242-6.06
		v-0.242l0,0l3.152-5.34l1.695-5.572l0.727-3.64l-1.214-5.583l-3.633-3.149l0.726-4.608c0-3.395,1.214-5.1,3.635-5.58
		c0.727-0.242,1.212-0.727,0.97-1.693v-0.244l0.242-4.85v-0.246l0,0v-5.577h-0.485l-0.241-0.248l0,0l0,0l-0.97-0.479v-0.242h-0.244
		l-4.36-2.91l0,0h-0.242l-3.39-2.91l-11.394-2.183l0,0l-3.634-2.669h-6.785c-0.971,0-2.182,0.727-3.878,1.694h-0.242l-5.334,1.941
		h-13.329c-1.936,0.488-3.635,0.97-4.603,1.943c-1.454,1.214-4.121,2.184-7.755,3.395l-6.301,1.451v0.248h-0.483l-8.97-0.972
		l-0.726-0.243l0.243,0.243l-0.243-0.243l-3.15-0.242l-5.331,1.699l-10.663,0.969h-0.242l-0.241-0.242l-5.332-1.941h-4.362
		c-1.939-0.484-4.12-1.938-6.544-4.848l-0.244-0.487c-0.483-2.186-1.21-3.151-1.454-3.638l-1.213-0.727l-2.18-1.215l-1.938,1.943
		l-0.243,0.487l-7.756,3.151h-0.24h-0.485l-9.454,0.97c-1.452,0-4.12-0.73-7.753-1.7l-8.243-1.457h-0.241l0,0l-4.846-2.662H90.229z"
		/>
	<path fill="none" stroke="#07397D" stroke-width="2" stroke-miterlimit="10" d="M391.693,680.95l-0.971,3.153
		c1.454,0,3.396-0.964,5.332-2.426l0.244-0.243h0.483l9.696-1.213l6.301-3.153l2.424,3.397l0.485,0.24l-2.909,4.609l3.392,3.403
		v0.238v0.727l-2.424,10.18l6.303,4.609l11.391,0.49l-1.7,2.184c-7.268,8.974-10.661,14.304-10.419,16l4.361,0.967
		c5.817,0.49,9.211,2.188,10.422,4.365c1.452,2.915,2.908,5.826,4.12,9.217l6.544,3.647l4.119,0.723l8.481-7.275l4.364,6.553v0.236
		l0,0l0.241,0.244l1.453,6.062l3.635,0.727l0,0l5.576,1.942l1.455-0.485v-0.242l-0.972-6.309l-0.242-0.242l-3.149-14.304v-0.495
		l1.938-9.936l0.483,0.24h0.728l6.544,0.484l8.241-6.066l0.728,0.488c4.359,3.394,7.267,6.067,8.724,8
		c1.454-0.48,4.119-3.148,7.752-7.271l0.243-0.241l0.485-0.489l12.115,3.151l5.334-4.362l0.243-0.246l0.243-0.238h0.242l0.242,0.238
		l5.091,0.969l16.482-14.542l5.089,1.448l0,0l0.239,0.246l0.241,0.24l0.245,0.239l1.213,2.184l1.213-1.455h0.246v-0.242h0.238
		l4.845-2.661l3.635-3.401l-0.968-7.517l-0.729-0.975l-4.6,1.95l0,0c-1.455,0.478-2.667,0.966-4.367,0.966h-5.33
		c-1.695-0.247-2.666-0.727-3.393-1.703l-0.482-7.759c-1.701-0.969-2.428-1.453-3.152-1.453l-1.216,0.484l-1.692,0.969l-3.392,0.728
		h-0.973l-0.237-0.484l-1.941-3.397l-0.241-3.15l0,0l1.937-9.219l0,0h0.246v-0.24l2.174-4.609l-6.78-6.062l-0.246-0.247l-0.239-0.24
		v-7.03l0.239-0.244l3.88-11.155l-2.424-6.063l-2.183-0.489l-2.666,0.247l-2.661,4.12l-3.396-2.426l-3.394-1.941l-2.666-6.785l0,0
		l0,0l-0.972-4.855v-0.483l-0.241-0.238l0.731-0.491l3.148-4.363l0.726-0.488l0,0h0.245l2.423-0.479l2.665-0.729l12.602-0.486h0.246
		l1.695,0.723l0.484,0.245l1.937,0.725l3.396-1.455l2.907-2.174l1.45-2.428l0.248-1.214l-0.248-5.339l-2.664-0.478l-5.09,1.694
		c-1.451,1.703-3.152,2.909-4.845,2.909c-1.694,0-3.15-1.462-4.607-4.125l0,0h-0.243v-0.237l-0.238-3.398v-0.488l0.238-3.153
		l-2.664-6.54l-5.091,1.453l-2.179,1.935l0.725,7.276l-7.997-3.633l1.938,4.367l0.245,0.237v0.488l-0.729,4.849v0.483h-0.24
		l-4.602,6.547l0,0l-7.515,4.607l-0.728,4.371c-0.24,0.726,0.728,2.665,1.941,5.094l0.243,0.237v0.25l0.484,6.3v0.733l-0.243,0.238
		l-2.907,3.881l0,0l-0.242,0.242h-0.24l-2.186,1.461h-0.243h-0.242h-0.241h-0.246l-5.571-1.22c-0.967,0-2.18,0.488-3.391,1.455
		l-2.424,2.673l-1.941,2.419c-1.21,2.183-2.908,2.67-5.573,2.183c-1.695-0.242-2.179-1.94-1.695-4.12v-1.701l-0.242-1.69
		l-0.972,1.201c-0.728,0.977-1.454,1.22-2.422,1.22c-0.97-0.243-1.699-1.22-2.184-2.911v-0.24l-0.483-5.575l-1.212-5.341
		l-2.421-2.422l0,0l-0.245-0.246l-5.09-11.643l-0.24-0.237l-1.456-3.392v-0.25h-0.242v-0.245l-0.97-6.3l-0.726-0.971l-0.97,0.731
		c-1.696,1.944-2.908,3.15-3.394,3.15c-0.725,0-1.939-0.97-3.875-2.426l-3.634-1.7l-0.488-0.237l-0.244-0.241v-0.248l-0.239-0.486
		l-0.244-4.847l0,0l-0.727-3.641l-1.939-4.845h-1.939c0.241,1.936,0,3.634-0.482,4.845c-0.486,1.457-1.456,2.424-2.91,3.641
		c-0.485,1.695-1.213,2.907-2.184,3.878c-1.454,1.455-2.666,1.455-4.116,0.488l-0.728-0.24c-1.458-0.485-1.697-2.19-1.458-5.343
		v-1.213l-3.149-1.939c-1.21-0.482-1.938-1.935-2.179-4.117l1.211-10.914l-0.486-1.695l-3.878,4.362l-2.662,1.944l-0.729,1.691
		c0.968,2.183,1.455,3.88,1.455,5.097c0,2.426-1.213,4.362-3.391,5.09l-4.366,1.695l-1.21,0.735l-0.242,1.691v6.791
		c0.242,2.185,0.485,3.399,1.211,3.399c1.454,0.727,3.15,0.727,4.607-0.488l1.451-0.726l4.605,10.667v0.253l0,0v0.476
		c-1.696,19.161-3.39,30.074-5.573,32.983c-0.97,0.969-1.696,1.452-3.151,1.7c-1.698,0-2.908-0.247-4.604-1.21
		c-6.301,12.604-10.419,19.156-12.359,20.127h0.243c-0.97,0.24-1.454,3.395-1.213,8.977l1.455,1.214l0.485,0.481l0.485,0.483
		L391.693,680.95z"/>
	<path fill="none" stroke="#07397D" stroke-width="2" stroke-miterlimit="10" d="M416.896,458.841l-5.574-1.695l-5.816-0.728
		l-1.938,2.182l-0.485,4.132l0.241,0.237l1.698,6.303l0.241,4.85v1.458h-2.909l1.214,5.817l-4.604,1.696l-1.94,3.642l2.423,1.939
		l0.485,0.24l0,0l8.482,6.792l0.24,0.245h0.243v0.236v0.247l1.212,6.058l3.878,5.581c0.968,1.45,2.181,2.908,4.361,4.848h0.245
		l0.242,0.241v0.246l-0.242,0.48v5.338c0.726,1.459,0.968,4.61,0.968,9.214c2.182,3.16,3.15,5.339,3.15,6.792
		c0,0.969,0.727,2.912,1.94,5.577l0,0v0.247l0,0c0.483,3.394,0.243,6.304-0.484,8.728c-0.729,1.699,0.241,4.847,2.907,9.215
		l0.244,0.242l0.239,0.486l-0.239,0.491l-3.88,8.487c0.729,1.934,0.97,3.397,0.97,4.364l-0.97,8
		c-0.485,2.669-0.485,4.125,0.729,4.608l1.454,0.97c2.18,0.97,2.907,2.181,2.907,3.392l-0.244,4.125l1.212,0.491l0.241,0.237
		l0.731-0.728c0.725-0.728,1.455-1.695,1.693-2.913l0.487-0.717l0.241-0.496c0.97-0.482,1.455-1.211,2.18-2.179
		c0.243-1.455,0.243-2.908-0.242-4.61l-0.483-1.201l1.209-0.257c3.879-0.965,6.06-0.723,6.787,0.976l1.939,4.849v0.243v0.239
		l0.968,8.011l3.152,1.692h0.242h0.243l1.941,1.702l1.937-2.188l2.18-1.695h0.728c1.695,0.489,2.668,1.695,3.151,3.398l0.966,6.302
		l0.245,0.968l6.543,14.067l2.667,2.665l0.242,0.25v0.24l1.212,5.82l0,0l0.483,5.575l0.245,0.488
		c1.694-2.425,3.148-3.637,4.118-3.152c0.97,0.236,1.21,0.727,1.21,1.694v1.458v4.366v1.208c1.213,0.251,2.185,0,2.424-0.726
		l2.423-3.394l2.668-2.665c1.697-1.214,3.394-2.184,5.331-2.184h0.242l5.087,1.211l1.456-0.732l2.666-3.388l-0.482-5.336
		c-1.697-2.911-2.425-5.336-1.942-7.035l0.73-4.362v-0.49l0.244-0.481l0,0l4.603-2.672h0.241l0,0l3.395-2.175l3.877-5.584
		l0.484-4.12l-4.361-10.188l9.692,4.367v-4.122l0,0v-0.245l3.635-3.155l7.029-1.939h0.482l4.12,8.982v0.48l-0.482,3.391l0.482,3.162
		c0.486,1.452,1.459,2.177,2.179,2.177c0.972,0,1.941-0.725,2.913-1.943l0.242-0.486l0,0h0.244l5.818-1.94l0,0h0.238
		c3.153,0,4.6,0.734,5.334,2.191l0.482,6.538v0.248l1.213,0.242l2.426,0.726l3.633-0.24l6.059-1.702l3.631-3.152l0.246-2.661
		l-1.699-1.946l-6.3-2.185l0,0l-0.484-0.244l0,0v-0.237l-7.271-7.278l0.728-0.483l3.642-3.144l0.238-0.257l0,0l3.632-1.453l0,0
		h0.726l4.848,0.978h0.242l0.246,0.236v-1.937l-2.181-3.641l-3.395-1.693l-4.601-6.794l0,0l-0.247-0.237v-0.246L551.398,559v-6.061
		l3.877-3.633h5.817l13.572,1.21l6.301-8.973v-0.484h0.486l5.087-2.664l2.67-5.341l0.24-0.244l6.059-5.092l2.905-5.334v-0.245h0.246
		V521.9l0,0l2.424-2.424l2.906-4.854l0.97-7.521v-0.724l0.244-0.246l3.875-2.664l0.967-0.975l-5.815-0.969l-9.694,0.484
		l-0.237-0.244l-3.64-2.9h-0.483v-0.248l0,0l-1.941-2.909l-0.483,0.245l-0.248,0.483c-0.476,0.731-1.692,0.966-3.142,0.966
		l-1.456,0.728c-0.488,0.245-0.728,0.487-1.455,0.245c-0.486,0-0.727-0.726-1.214-1.939c-0.237-1.216-0.726-2.429-2.18-3.642
		l-0.244-0.241v-0.242h-0.238l-1.217-3.156h-0.967l-3.634,2.427l-0.244,0.242h-0.24l-8.484,1.695h-0.486l-0.482-0.241l-5.575-3.874
		l0,0l-0.242-0.25v-0.241h-0.238l-1.456-2.91l-4.125,4.364c-2.902,3.398-5.084,4.365-6.542,3.398l-5.571-2.91l-3.881-0.488
		l-0.481,0.247l-3.634-2.67l-0.246-0.245l-0.725-0.241l1.695-6.548v-2.182l-2.181-0.968h-0.242l-5.089-5.581l0.243-4.124
		l-12.605-1.205l-4.846-2.676c-1.211-0.722-2.179-2.18-2.907-4.604l-0.726-1.699l-0.969-3.641l-1.697,0.25l-3.878,3.154
		l-4.605,5.571l0.971,4.123l1.455,5.335v0.243h0.237l-0.237,0.244v0.244c-0.484,1.454-1.941,2.183-4.121,2.183h-4.847l-2.907-1.458
		l-3.636,1.458l-0.727,0.237l-0.484-0.237l-0.484,3.397l-0.244,0.481v0.725h-0.727l-6.058-1.935c0,1.935,0.243,3.393,1.212,5.092
		c0.728,1.694,0.968,2.906,0.243,4.361l-0.726,1.942c-0.729,0.725-2.911,0.972-6.062,0.725h-4.119l-0.245,6.798l-5.329-1.947h-0.244
		l-0.239-0.245l-2.667-5.086l-5.818-1.943l-1.452-3.155l-2.182,1.7h-0.244l-3.636,0.728h-0.968l-1.939-4.367l-1.939-2.669
		l-0.242-0.244c-1.941-2.423-2.909-4.603-3.395-5.818c0-0.243-0.486-0.725-1.695-0.969l-0.968-0.244
		c-1.699-0.727-2.91-2.184-3.635-4.36l-0.97-4.128v-3.398l-1.696-3.15l-2.909,0.968h-0.245h-0.238H416.896z"/>
	<path fill="none" stroke="#07397D" stroke-width="2" stroke-miterlimit="10" d="M402.453,340.488l-2.18,1.695
		c0,0.97,0.484,3.151,1.211,6.306v0.243l0.243,0.241h-0.243l-2.665,6.062l-3.636,1.456l-0.729,0.243h-0.239l-6.3-2.909h-0.245
		v-0.241l-11.875-10.915L371.191,340l-7.272-2.665v-0.246l0,0h-0.242l0,0l-3.393-2.421l-6.06-1.942l-3.392,0.243h-0.242
		l-7.754-0.486h-0.243l-5.572-1.212h-3.394l-2.665,1.939c-1.454,0.728-3.394,0.975-5.818,1.458l-5.087,0.969l-4.364,1.452
		l-0.242,0.246v0.24v-0.24l-5.331,0.484L304.545,340l0,0h-0.727l-4.604-0.484l-7.031,0.972h-5.815l-2.424,2.42h-0.242l-2.908,0.727
		l1.21,2.913v4.611l-0.726,4.119l4.118,3.396h0.245l0,0l0,0l3.392,3.881c2.18,1.696,3.149,2.91,3.149,4.366l1.213,3.639l1.697,3.636
		c-0.242,0-0.242,0.243-0.485,0.243l-4.605,3.394l-3.151,4.127l0.727,3.638l2.184,5.091l0.24,0.481l0,0v0.248l-0.484,1.939
		c-0.485,1.211-0.968,2.179-1.698,2.67c-1.452,1.211-3.876,1.211-7.752,0l-6.058-1.216h-0.243l0,0h-0.244l-4.36-2.182l-7.028-0.242
		l0.241,0.242l-0.728,12.126c-0.24,1.698-1.455,2.427-3.15,2.667c-0.729,0.244-1.211,1.215-0.968,3.155v0.242h-0.243l-0.484,3.151
		c1.695,1.459,2.907,2.671,3.39,3.64l1.215,5.817v2.19c-0.243,1.211-0.485,2.177-0.971,3.151l-1.696,4.851l-3.15,6.061v1.212
		l0.486,2.915l3.148,4.119c0.968,1.215,1.457,1.938,1.698,2.669l2.908,4.121l4.361,4.849c1.698,1.702,2.908,2.429,3.393,2.429
		l4.605-2.913c0.97-0.722,1.696-1.212,2.906-1.212c0.972,0,2.423,0.727,4.606,2.178l0,0h0.242v0.247l2.424,2.909l1.211,2.909
		l0.972,1.214l0.724,0.484l3.151,2.183l1.698,0.241c0.968,0.245,1.936,0.977,2.665,1.94c0.482,0.729,3.151,1.7,7.755,2.906h0.241
		l7.271,2.679h0.244h0.243l5.089,2.42l8.721,2.183l0.244,0.239l11.388,0.486l5.092-1.936h4.605v0.235l0.243,0.247l3.875,4.848l0,0
		v0.244l2.424,3.884l1.941,2.173l2.666,1.217l0.241,0.241l0,0l0.244,0.247l2.178,4.849v0.249h0.246v0.235l1.209,5.334l3.394,1.216
		h0.243h0.241l0,0l2.665,1.698l3.636-0.732l0.97-3.638v-0.238l0.242-0.247l4.118-4.119l4.608,1.207v0.488l2.18,4.855l4.605-1.704
		l0.483-4.605v-0.242v-0.245l0.241-0.236l3.153-1.705l-0.728-6.783v-0.49v-0.241l0,0l3.633-7.522l3.639-1.451l-1.454-6.793h3.634
		l-0.244-3.151l-1.936-6.55l0,0v-0.476l0.484-4.621v-0.727l0.485-0.237l2.423-3.154l0.485-0.481h0.727l6.541,1.21h0.243l5.335,1.456
		l4.602-1.456l2.666,5.34l0.242,0.235v3.882l0.726,3.642c0.483,1.454,1.456,2.42,2.424,2.671h0.483
		c2.185,0.479,3.394,1.451,3.64,2.907c0.238,1.213,1.209,2.904,2.905,4.852l2.182,3.149l0,0v0.244l1.455,2.667l2.181-0.247
		l4.12-3.63l2.665,5.574l5.332,1.697h0.243l0.241,0.245l2.666,4.847l1.212,0.726l0.241-4.604v-0.241v-0.728l10.664-0.245
		l0.241-0.966c0.242-0.489,0.242-1.458-0.241-2.186c-0.727-1.456-0.97-2.669-1.212-4.366c-0.242-1.935,0-3.393,0.485-3.883
		c0.727-0.964,1.21-0.964,2.424-0.721l4.363,1.458l0.482-3.159l-7.996-3.64h-0.485l-0.242-0.481v-0.245v-0.241l-1.211-9.7
		l0.243-6.061V453.5v-0.484l13.328,1.699l3.391-3.15c0.728-1.217,0.485-2.181,0-2.425c-3.391-1.215-5.087-2.668-5.087-4.125
		c0-0.724,0.239-1.701,1.452-2.185l5.575-5.572l6.058-0.246l3.149-5.334v-5.096l4.607-0.966c1.212-3.642,1.938-5.584,2.422-6.309
		l1.94-4.123l-3.391-6.066v-0.244l0,0v-0.238l-2.184-8.246v-0.245l-1.451-8.486l-2.912-4.854l-4.36-4.366v-0.235v-0.245
		l-0.243-0.244l-0.241-4.607l-7.997,2.421l-0.246-0.239l-3.632-4.122l-10.908-8.247h-0.242l-4.122-5.333l-2.663-1.702l-1.695,2.669
		v0.486l-0.244,0.24h-0.243h-0.484l-3.393,0.245l-0.483,0.244h-0.242l-7.999-8.733c-1.695-0.728-3.393-2.425-5.814-4.849
		l-3.636-2.667l-0.241-0.242l-4.122-2.426l-2.422,1.941l-0.246,0.484l-0.239-0.244h-0.244l-2.179-0.485l-2.424,1.213l-0.241,0.243
		l-0.24,0.243h-0.245l-3.393,0.486C411.906,346.066,407.299,343.396,402.453,340.488z"/>
	<path fill="none" stroke="#07397D" stroke-width="2" stroke-miterlimit="10" d="M495.039,342.511h-3.876l-1.215,2.665l2.181,2.185
		v0.242v0.243l0.971,3.156l0.244,0.238v0.728l-0.484,0.245l-5.334,2.664l-0.24,0.243l0,0h-0.243H486.8
		c-4.119-0.485-6.303-1.694-7.029-3.394l-1.456-2.912l-7.267-1.453l-1.94-9.217c-1.455-0.243-2.667-0.968-3.394-1.938l-0.243-0.487
		c-1.211-1.694-2.183-2.669-3.635-2.908c-1.938-0.73-3.637-2.186-5.089-4.367l-2.91-1.697h-0.239l0,0l0,0l-3.879-3.88l0,0
		l-0.971-3.396v-0.243l7.756-10.67c0.243-0.728,0.484-1.213,0.243-1.454l-1.454-3.397l-4.12,1.698h-0.242v0.243h-0.244
		l-10.664,0.727l-4.118,0.97l-1.455,1.457l-0.727,1.454c-0.97,1.211-2.424,1.94-4.606,1.455l0,0l-0.241-0.243l-3.634-2.666
		L425,302.738c-1.939-1.453-3.149-2.91-3.634-4.122l-0.97-5.335l-2.425-2.91l-2.663-2.185l-1.211-0.726l4.362-5.579l0.966-3.151
		l-4.846-6.064h-0.239v-0.243l-2.183-4.85v-0.242l0,0l-0.483-2.425l-3.153-2.425v-0.243l0,0l0,0l-3.391-3.637l-4.363-0.732
		l-4.847,1.456l-0.727,0.971l-0.727,6.792v7.518l-0.726,0.243l-4.604,1.697l0,0v0.244l0,0l-4.365,0.241
		c-2.18,1.214-4.604,2.426-7.267,3.396l-0.487,0.243l0,0h-0.243l-8.239-1.941l-3.392,3.637c-0.726,0.969-2.425,1.94-4.605,2.424
		l-5.088,4.124l-2.668,4.122v0.244l-0.242,0.242c-1.455,2.182-2.664,3.881-3.635,4.606l-2.909,3.64v0.241l-0.242,0.244l-1.696,1.213
		c-1.211,0.483-2.424,0.727-3.394,0.727l-6.058-0.486l-1.453,2.183l-2.184,3.881l0.972,3.879l-0.487,9.46l1.698,2.908v0.243
		l0.725,2.182h3.394l5.815,1.214l7.513,0.483l3.392-0.483h0.485h0.244l6.539,2.424l0,0h0.246l3.39,2.669l7.271,2.668h0.242
		l4.85,2.911l11.875,10.91l5.33,2.427l2.181-0.971l2.179-4.121l-1.212-6.548c0-1.94,1.456-3.154,4.363-4.365l0.488-0.243
		l14.782,8.729l1.695-0.483l3.392-1.941h0.486l1.937,0.243l2.912-2.425l0.482-0.242l0.727,0.484l8.724,6.062l0.244,0.244
		l5.575,4.606c1.452,0.971,3.393,2.67,5.088,5.096l2.666,2.91l2.182-0.247l2.422-4.606l5.086,3.638h0.245h0.244l0,0l4.118,5.093
		l10.904,8.248l0,0l3.153,3.637l9.451-2.669l0.484,7.035l4.116,4.122l0,0v0.241l3.398,5.095v0.243v0.243v0.238l3.635,16.735
		l3.636,6.794l-4.85,12.371v0.723l-4.12,0.974v3.638l-0.241,0.244l-4.121,6.788h-0.481l-5.818,0.489l-5.819,4.845
		c0.729,0.73,1.696,1.212,3.396,1.939c2.423,0.732,2.662,2.674,1.451,6.066v0.241l-4.118,4.126h-0.244l-0.241,0.484H478.8h-0.239
		l-11.634-1.693l-0.244,4.113l1.212,8.734l9.695,4.124v0.483l0,0l3.634-1.212l0.245-0.24l0.483-0.244l0.245,0.485h0.243l2.663,1.455
		h4.121l1.455-0.243l-1.455-4.608l0,0l0,0l-0.968-4.85v-0.238v-0.489l0.241-0.243v-0.242l1.452-1.701l0.489-0.486l0,0l0.24-0.237
		l2.666-3.638l0.237-0.243l4.369-3.399h0.242v-0.241h0.241l0,0l5.331-0.726v1.452c0,1.704,0.242,2.914,0.487,3.64l0.967,2.181
		l1.451,3.151l4.849,2.672l13.329,1.216h0.487h0.723v0.718v0.493l-0.486,4.363l3.88,4.122l2.91,1.213l0.483,0.242v0.248l0.246,0.478
		v1.697v2.427l-1.21,4.848l1.692,1.213c1.941-0.241,3.634-0.241,5.33,0.972l5.574,2.668l3.394-2.668l3.64-3.883l0.238-1.699
		l0.242-0.484l0.489-0.243l0.479-0.486v-0.482l-1.209-5.098l-0.238-2.661l-0.245-0.242v-0.245l0.245-0.244v-0.243l1.938-3.152
		l0.246-0.241l0,0l3.87-2.669h0.243h8.002l1.213-0.481l-0.247-4.127l-1.212-3.639l-2.665-4.366l-0.245-0.237v-0.244v-6.062v-0.246
		l0,0l1.453-3.633l0,0l0.247-0.247l0,0l6.544-9.456l0.24-0.246h0.244l0.487-0.24h1.453l2.421,0.24l5.574,3.159l5.156,2.284
		l2.29-1.146l-4.055-2.356v-0.727c0-1.455,0.729-2.666,2.182-3.877l4.364-3.154l0.24-0.237l0,0v-0.249
		c2.43-0.726,3.879-1.211,4.848-1.211l3.877-0.484h0.488l0,0l2.421,0.484l1.699-6.062v-4.123c0-2.673,0-4.369,0.728-4.852
		l1.694-3.153l-2.182-2.913l-2.907-1.939l-6.059-1.697c-1.211,0-3.393-1.21-7.028-4.371l-3.636-1.69h-0.243l-0.242-0.245
		l-4.363-5.335h-4.122l-0.241-0.244h-0.244l-3.631-1.937l-2.185,2.905l-0.484,11.401l0.731,4.365h1.694l0.244,0.245l3.39,0.968
		v0.243v0.244l1.695,4.118h0.244v0.246l0,0v0.242l-0.971,7.523v0.482v0.247l-0.243,0.237c-1.21,0.728-2.179,1.212-3.389,1.944
		l-0.49,0.241l-0.237-0.241h-0.244l-1.694-0.488l-3.88,1.453h-0.239l0.239,0.728l0.241,0.247l0.727,6.547
		c0,0.967-0.48,1.455-1.455,1.695h-2.908c-1.454-0.24-2.18-0.728-2.906-1.453l-2.906-2.184l-0.246-0.239h-0.246v-0.241l-1.691-4.124
		c-0.483-0.488-1.695-1.215-4.122-1.941h-0.245h-0.24l-3.394-2.428h-0.487v-0.482l0,0l-0.964-4.123l0.485-3.157h0.241v-0.243l0,0
		l1.453-1.693v-1.216l-1.453-4.364l-3.394-3.154v-0.488l-0.969-9.94l-2.425-2.425h-0.239l-0.241-0.244l0,0l-1.942-4.607l-8.723-0.97
		c-2.182-0.727-3.635-2.182-4.608-4.123h-3.873c-1.455-0.487-2.908-1.458-4.604-3.155l-0.489-0.483
		c-0.966-0.968-1.937-2.425-2.907-4.367l0,0l-0.244-0.24l-0.722-3.879l0,0v-0.244v-0.244l0,0l1.451-7.517v-0.243l1.456-3.153v-0.241
		v-0.244h0.24l9.209-3.881l3.634-4.365l0.727-3.638l-0.481-2.666c-1.455-3.154-2.425-5.092-2.425-6.306l-1.939,0.244l-3.391-0.244
		c-0.729,0.244-2.668,2.426-5.334,5.578l-4.119,3.879h-0.241l-0.244,0.244c-3.15,0.727-5.329,1.214-6.542,0.727L495.039,342.511z"/>
	<path fill="none" stroke="#07397D" stroke-width="2" stroke-miterlimit="10" d="M837.032,47.527l-1.692-5.335l-4.363-7.517
		l-3.639-1.941l-3.635,1.941l-2.179,4.365l-0.24,0.486h-0.487h-0.239l-6.785,1.213c-0.73,0.483-1.456,0.726-1.94,1.454l-1.456,1.699
		l-3.637,2.909l-0.966,0.484l-3.15,0.488c-1.455-0.244-3.636-1.456-6.543-3.639l-0.246-0.242c-4.844-4.851-7.268-8.244-7.268-10.185
		v-6.306v-0.242v-0.243l0.728-1.214l-7.028-2.427l-0.243,2.427c0,0.728-0.73,1.698-1.941,2.426l-2.421,0.968l-0.971-0.242v-0.24
		l-3.636-0.729l0.728,2.668l-6.301-4.122h-0.243l-0.245-0.243l0,0c-0.967-2.669-1.453-5.336-1.453-8.244
		c0-2.426,0.244-3.883,1.211-4.851l1.455-2.669l-0.481-2.183l-6.305,0.97c-3.151,0.243-5.33,2.184-6.542,5.82v0.244l0,0
		l-3.636,5.577l3.636-0.242h0.244l0.24-0.243l0.246,0.486l2.904,1.213h0.487l0.484,0.243v0.727l0.483,5.093l1.454,4.847v0.246v0.243
		v0.242l-7.998,15.764c-1.447,2.181-2.18,8.003-2.66,16.732v0.728l-3.156,6.062l2.184,2.425v0.486c0.24,3.636,0,5.818-0.974,6.306
		l-0.727,0.24c-1.691,0.972-7.265,6.792-16.233,17.705l-0.726,0.728l-0.488-0.243l-0.728-0.485
		c-3.152-2.181-6.055-4.125-7.755-6.062c-1.454-0.971-5.086-1.7-11.14-1.7l-0.246,11.155l-0.242,0.245l-4.361,21.097
		c-0.975,2.669-1.215,7.52-1.215,14.794l1.694,2.184l1.457-2.91h0.244l0.244-0.486l5.57-2.908l15.511,2.424l1.699-1.941l2.179-3.881
		l0.483-0.241l0,0l0.245-0.242l6.051-1.212l8.005-0.486c2.425,0.486,5.329,3.637,8.967,8.487c9.69,4.852,15.024,9.217,16.238,13.096
		c0.725,1.941,0.725,3.397,0,5.093c-0.731,1.698-2.426,2.668-4.849,2.912h-0.243c-11.875-0.486-18.659-0.486-21.084,0.242
		l-5.815,3.878c-7.269,5.336-12.114,8.005-14.787,8.005l-4.843,0.726l-2.908,12.126c-0.727,3.639-1.938,6.061-4.123,7.763
		c-1.938,1.939-4.846,3.15-8.718,3.879c-4.608,0.726-8.48,2.424-12.123,4.607l-4.114,8.731l-0.247,0.242h-0.241h-0.239l-11.15,4.607
		h-0.731l-5.57-1.213c-4.366-0.728-7.755-1.941-9.942-3.394c-2.902-1.456-6.056-1.697-9.445-0.728
		c-2.911,4.123-4.364,9.215-4.122,14.794c0.237,2.909,0.967,4.85,1.694,5.334l1.696-0.24l1.942-1.214l0.483,7.758
		c0,2.67-0.968,4.607-2.911,6.066c-1.211,0.97-3.389,1.939-6.54,2.909l-1.938,0.484c-2.423,0.971-7.52,7.519-15.029,19.403v0.242
		h-0.241l-7.267,4.365c1.212,0,1.941,0.483,1.692,1.455c-0.24,0.971-0.966,1.211-2.905,1.453l-20.602-0.482
		c-23.022-0.727-40.956,5.577-53.803,18.671l-0.237,0.243l-0.486,0.244h-0.242l-8.481,0.967l-0.487,0.245h-0.484l-2.424-5.82
		l-8.724,2.181c-4.604,0.243-10.661-0.97-17.45-4.366c-6.3-2.665-11.875-6.304-17.447-10.669c-3.637-2.907-8.243-4.851-13.571-5.82
		l-7.757-0.728l-8.723,1.213c-6.303,0.971-12.603,0.971-18.421,0.484c-7.026-0.484-15.508-2.425-25.685-5.577l-0.729,1.456h0.242
		h0.245l0.243,0.243v0.242l0.239,2.423l2.185,4.608l5.088,6.305l0.242,0.73l-0.968,4.607v0.242h-0.245l-2.909,3.88l3.153,3.154
		c1.21,1.212,1.937,2.181,1.937,3.152l0.729,4.608l3.634,3.637v0.485l0.483,3.154v2.425l2.185,1.698l1.455-0.484l0.238-0.729
		c0.729-1.941,1.94-2.91,3.637-3.152l1.938-0.729l12.846-1.212l5.089-1.939l0.484-0.243l0.727-0.487l2.669,5.821h0.237l0,0
		c0.245,1.456,0,2.67-0.726,3.88l-7.029,9.943l0.485,1.697l3.152,3.154l3.151,1.941h0.24c1.456,1.941,2.668,3.154,4.122,3.638
		c1.696,0.485,3.392,1.939,4.846,3.877l0.242,0.73l2.425,0.97l0.728,0.244h0.24l0.726,2.665l0,0l0.245,2.669l0.971,3.879l6.056,0.97
		h0.485l0.243,0.245v0.241l0.239,0.486l1.698,3.394l4.848,1.697l3.393-1.697l-0.486-1.94l-3.148-2.907l0.484-0.488v-0.483
		l2.663-5.095h5.817l0.242,0.244l8.24,2.909l4.605-0.727l3.633-3.396c4.122-5.092,6.787-7.274,8.487-6.061l1.937-0.243
		c2.181,0,3.391,0.243,4.121,0.484c0.239,0.486,0.485,0.975,0.485,1.458c0,0.969,0.966,2.908,2.424,5.577v0.244v0.241l0.723,3.395
		v0.728l-0.969,3.881l0,0v0.241l-0.24,0.243l-4.122,4.85l-0.242,0.242l0,0l-8.725,3.884l-1.213,2.422l-1.211,7.036l0.73,3.392
		l2.179,3.64l0.97,0.73l2.905,1.938h10.184l8.481-1.213l1.211-1.212c1.209-1.452,2.422-1.938,3.15-1.938l5.814,0.969l0.483-0.969
		c-0.483-1.702-0.483-3.156,0.49-4.609l2.422-4.124v-7.76v-0.242l4.361-12.614l0.246-0.24v-0.243h0.238v-0.245l7.515-6.06
		l0.483-0.484l6.545,2.909l0,0c3.395,2.425,5.091,4.362,5.091,5.578l-0.489,5.334l-2.18,3.398l-1.694,4.848v5.336l1.694,2.425
		l2.18-0.244l0.489-0.241l3.631,0.241c1.943,0.971,3.157,2.669,4.123,5.09l2.176,0.732h0.248l0,0h0.242l8.241,3.879l3.633,1.211
		l5.091-0.727l2.182-2.909l2.905-11.882l0.245-6.55v-0.486l0.481-0.242l0.247-0.241l4.602-3.88l2.666-3.396l0.238-0.243l4.851-2.182
		l2.906-1.698l3.637-1.453l-1.938-7.278l8.24,0.972l0,0v0.242l0,0l4.363,1.695l0,0v-0.24l1.206-4.609v-0.727l0.734,0.242h0.483
		l3.877,0.97h1.94l3.633-4.123h0.24l0.244-0.243h0.247l4.846-0.969l4.12-3.88l2.182-3.154v-3.88c0-1.456,0.726-2.424,2.179-3.15l0,0
		h0.484h0.244l4.605,0.483l1.937-1.212l0.727-3.396l4.847-1.454h0.243h0.244l0,0l6.056,0.726l4.852-1.215l2.906-2.908l1.935-3.88
		l-3.636-3.879v-0.245l0,0l-0.723-2.91l0,0l-0.97-4.366v-0.243l2.182-3.879c0-1.214,0.725-2.911,2.666-4.85l2.666-5.334v-0.246
		h0.242l2.424-3.879l3.634-7.277l3.39,4.851l0.246,0.243v0.243l1.211,4.848v0.246l0.725,4.851l3.395,1.455h0.244l0,0l0,0l0.97,0.484
		l0.239-0.243l2.906-5.092l1.701-4.847l0.727,0.24l0.727,0.244l7.024,2.424l3.398-2.668l0.241-0.24h0.484l3.394-0.246l2.422-4.122
		v-5.094l1.697-7.759l0.482,0.242h0.73l5.328,1.212l2.425-4.364h0.242h0.483l4.852-0.485h0.724v0.241l0.487,0.244l2.421,3.394v0.242
		l0.244,0.244v0.484l0.485,4.851l2.422,2.183l3.391-3.157l0.726,0.974c1.217,1.213,1.698,2.424,1.698,3.879v4.366l-1.698,4.364
		l1.217,1.941l2.422,2.669l10.18,1.452l0.242,0.244l0,0l0.485,0.244l0,0l0.725,0.727l2.909-4.123h0.243l2.424-2.425l-0.973-3.637
		l-2.66-15.522l7.022,3.395h0.25h0.237l3.152,3.879l1.935,1.941l2.911-1.941l10.175-11.154l0,0h0.246l3.637-2.669l4.115-5.818
		l0.246-0.487l5.574,1.457h2.665c0-2.184,0.482-3.638,0.726-4.608l4.125-4.851l1.21-0.727l4.843,1.695l5.814-0.726l3.882-4.124
		l1.937-3.637l-1.211-1.943l-3.395,1.699l-0.238-0.243l-0.246-0.241l-4.36-3.881l-0.244-0.241l1.695-6.549l0.487-4.852l-1.216-4.12
		l-3.391-1.212v-0.243l-0.244-0.243l-0.237-0.244l-2.911-5.82l-0.484-0.726l-4.121,4.85l-4.12,2.667l-0.967,0.486l-0.242-0.243
		l-0.246-0.483l-4.36-4.125v-0.24l-3.146-6.79v-0.242l-1.458-4.852v-0.244l0,0v-7.278l-0.483-4.362l-3.395-1.213h-0.243v-0.244
		l-7.754-6.061l0.484-0.728l3.633-3.88v-0.242v-0.244h0.487l0,0l4.119-0.483h0.242c1.213,0,2.426,0.727,3.393,1.938l3.395,2.67
		l3.637-2.911l2.663-3.638v-3.151l-0.968-7.762l-0.727-3.152l-5.335-0.969v-3.154l-4.845-6.064l-0.247-0.243l-2.423-4.364
		l-0.482-0.486v-0.483l0,0l5.332-7.035v-0.241l0.244-0.243v-0.242h0.484l2.179-0.244l2.668-2.183l3.152-9.7h0.242v-0.241
		l3.878-4.364v-0.245h0.243h0.238l4.367-1.212v0.485l2.905,2.425l0.973,0.241l1.693-7.517l-1.693-5.334l-0.246-0.244v-0.485
		l0.727-6.064v-0.485l2.911-3.152l1.936-3.395l0.244-2.91c0-1.456-0.726-3.881-2.179-7.521l0,0l0,0v-5.819v-0.243l1.209-5.093
		c-0.967-2.181-1.695-3.878-1.695-5.092L837.032,47.527z"/>
	<path fill="none" stroke="#07397D" stroke-width="2" stroke-miterlimit="10" d="M559.487,345.127l-4.362,12.126v8.002v0.243
		l-2.424,4.123l-0.484,2.909c0.484,1.699-0.245,3.154-1.938,4.123l-0.49,0.243h-0.238l-0.245-0.243l-6.06-0.727l-3.15,2.908
		l-9.207,1.458l0,0h-3.88l2.424,1.698l8.722,0.969h0.491h0.484l0.242,0.239v0.246l2.178,5.337l2.426,1.695
		c0.728,0.967,1.213,2.426,1.213,5.093l0.24,6.55l2.905,2.668h0.245v0.241h0.247l1.451,4.852v2.665l-1.699,2.428l-0.482,2.179
		l0.729,2.429l2.903,1.938c3.15,1.213,4.847,1.94,5.577,3.154l1.694,3.636c1.938,0.977,2.906,1.944,3.393,2.912l2.186,0.729h0.235
		l-0.969-5.335c-0.238-1.216-0.238-2.426,0.242-2.916c0.493-0.728,0.974-1.207,1.941-1.452l3.635-1.21l0,0l0.242-0.248h0.243
		l0.247,0.248l1.694,0.481l2.18-1.213v-0.486l0.727-6.062l-1.453-2.908l-1.938-0.97l-2.425-0.242h-0.485l-0.485-0.246l-0.966-6.304
		l0.24-12.369l0.485-0.484l3.636-5.092l5.33,2.909h3.15l2.426-15.766c-0.728-1.694-1.455-2.909-2.906-3.635l-1.459-0.241v0.241
		h-0.728l-3.875,0.726l-0.24-0.483l-0.243-0.243l-2.664-3.396v-0.242l-0.247-0.243v-6.062l0.97-3.397l0.971-1.451
		c0-0.974,0.244-1.943,1.213-3.156l0.967-1.213l0.242-4.121l-3.633-3.396l-4.849-2.425L559.487,345.127z"/>
	<path fill="none" stroke="#07397D" stroke-width="2" stroke-miterlimit="10" d="M586.233,374.561l-1.454-0.243l-2.422,14.794
		l4.122,4.853l3.874,1.695l0,0h0.24l0.246,0.24l5.088,4.128l7.028,1.697h0.24l3.639,2.425h0.241l0,0v0.486l2.666,3.879l0.481,0.487
		l-0.242,0.482l-2.421,3.882c-0.484,0.484-0.484,1.7-0.484,3.641h0.242v4.606l-0.242,0.247l0,0l-2.182,7.273l-0.24,1.214h-0.486
		l-0.727-0.241l-3.153-0.727l-4.118,0.241l-3.634,1.212l-4.123,3.393l-0.967,0.974l5.333,2.669l-0.487,0.969
		c-0.245,1.21-1.451,2.421-3.391,3.151l-3.395,0.24l-5.574-2.182l0,0l0,0l-5.089-2.905h-2.179l-6.061,8.725l-1.212,2.91v5.091
		l2.424,4.124v0.243l0,0l0,0l1.457,3.878v0.489l0.238,5.575v0.732l0.241,0.481l-3.877,0.727h-7.269l-3.389,2.185l-1.456,2.426
		l0.24,0.24l1.454,7.274h0.243v2.907l1.695,3.402l5.089,3.395l7.513-1.7l3.635-2.42l0.487-0.247h3.392l1.943,4.607
		c1.205,1.215,2.178,2.424,2.659,3.878l1.703-0.239h0.479h0.487l0.242-0.483l3.391-2.669l3.151,5.585l3.396,2.177h4.847l3.634-0.479
		h0.727l8.722,1.205h0.247v0.243l3.633,2.181l0,0l0,0v0.247l3.148,2.425v0.24l2.182,2.423l2.423,0.974l3.877-0.486v-5.096
		l-1.936-3.394h-0.243v-0.244l-1.452-6.303l3.391-3.392l0.239-0.245h0.246l2.911-0.487h3.146l0.971-1.211l-1.938-2.669l-7.027-4.611
		l-1.694-2.663l-0.246-0.241l-0.246-0.246l0.246-0.478l1.94-3.641l0.482,0.481l4.851,1.207l12.842-0.477l0.24,0.242h0.245
		l3.632,1.212l2.423-2.184l-1.211-7.522l-4.604-2.902c-3.879-2.184-5.086-7.519-4.366-16.253l-3.873-1.943l-0.484-0.238h-0.485
		v-0.483v-0.245l-0.727-6.305L641,414.332c-2.18-7.272-3.39-12.12-3.39-14.549l-0.483-7.281l0.483-7.997v-0.483l0.487-0.488l0,0
		l4.848-3.639v-3.878c0-0.971-0.486-2.427-1.703-4.369l-3.145-3.391h-0.487v-0.727l-0.483-5.821v-0.246l-0.243-0.238l0.484-0.247
		v-0.24l6.302-8.002v-3.398l-1.941-3.639v-0.239l-0.246-0.487l3.156-3.879v-0.241h0.243l3.392-2.669l-0.484-3.151h-1.701
		l-2.662-0.484l-1.452,5.816l-0.734-0.243l-6.295-2.422l-3.878-0.73l1.453,6.064l-5.332,1.698l-7.754,4.122l-2.425,3.152l0,0v0.243
		h-0.24l-4.12,3.639l-0.724,5.821v0.483l-2.183,8.247h0.239l-0.965,3.879v0.243l0,0l-0.245,0.243l-2.664,3.638h-0.244v0.239
		l-0.24,0.243h-0.242l-5.818,0.731l0,0v0.241l-0.245-0.241l0,0l-8.725-2.912l-0.24-0.244L586.233,374.561z"/>
	<path fill="none" stroke="#184491" stroke-width="2" stroke-miterlimit="10" d="M834.341,160.218l-0.972-5.094l-2.42,1.455h-0.244
		l-5.82,2.184l-0.241-0.488l-0.968-0.241v2.668l-0.244,0.242l-2.907,4.365h-0.239v0.243h-0.242l-4.367,3.636h-0.482v0.485
		l-0.729-0.485c-2.905-1.211-4.844-2.665-5.328-3.879c-0.485-0.485-0.726-0.485-1.213-0.726l-3.148,0.484l-1.945,1.94l5.093,4.366
		l4.12,1.695l0.247,0.244h0.237l0.241,0.486v0.242l0.73,4.85h0.237v7.52l0.974,4.365l2.908,6.79l3.393,3.153l2.664-1.939l1.94-2.427
		v-0.242h0.242l3.398-4.121l2.903,2.666v0.241l0,0l0,0v0.242l2.911,5.579l3.634,1.454l1.94,5.821v0.241v0.243l-0.246,5.336v0.243
		h-0.235l-1.459,4.849l2.667,2.428l2.906-1.455l2.909-2.913l0.726,0.486l2.424,0.727l0,0l0,0l2.909,2.668l3.148-0.727
		c2.426-0.727,3.633,0,4.367,1.696V224l0.483,0.241l3.39,0.97l1.453-3.152v-1.212c0-0.968,0.24-1.941,0.968-2.181l1.938,0.24
		c2.671,1.214,3.883,2.911,3.883,4.852l-0.247,1.697v2.909l2.67,3.881l3.148,3.394c0.968,1.214,2.18,1.698,3.39,2.184h0.488
		c0.728,0.484,1.211,1.697,1.211,4.365v10.913c0.485,0.97,1.213,1.699,1.94,1.939h0.486c1.454-0.727,2.424-0.485,3.634,0.726
		l0.727,0.488c1.211,0.242,2.177,1.211,2.419,3.151l0.491,6.064l5.574-11.399c1.693-6.062,3.629-9.699,6.297-10.185
		c2.183-0.728,5.575,0.486,9.938,2.911l15.752,1.212l0.484-3.396l-7.27-7.034c-3.393-1.94-4.846-3.394-4.359-4.365l5.568,0.245
		c5.094,1.694,9.941-1.214,14.542-9.459l0,0H940l5.336-5.095l0.726-11.154v-1.214h0.728h0.485l4.12-0.968h0.729l0.476,0.241v0.242
		l8.488,8.972l2.424-0.968l0.484-1.457l-4.606-4.365l-0.728-0.482l-0.486-0.729l7.029-4.121l-0.479-10.186l-2.913,0.485l0,0h-0.244
		l-3.873-1.94c-1.457-0.243-3.394-1.212-6.302-2.91c-1.457-0.729-2.426-1.455-2.426-2.426v0.244c0,0.97-0.242,1.453-0.728,1.697
		c-0.727,0.484-1.694,0.727-3.395,0.727h-0.24l-0.238-0.243h-0.245l-3.39-2.426l-2.913,2.426c-1.452,1.213-2.423,2.182-2.423,3.153
		l1.456,3.153c0.727,0.969,0.727,1.455,0.484,2.18c-0.484,0.729-1.697,1.457-3.394,1.699l-1.451,0.728
		c-1.698,0.486-3.153,0.242-4.117-0.97l-0.49-0.727l-6.302-6.549c-2.905-0.969-4.601-2.183-5.328-3.638
		c-0.487-0.728-0.735-1.455-0.487-1.94c-0.247-2.183-0.725-3.638-1.212-4.366l-1.211,0.728l-0.245,0.487
		c0,0.727,0.245,1.454,0.975,2.423l0.239,0.485l0.242,0.243l-0.242,0.484l-3.39,5.579l-5.574-1.215l-1.211-0.725l0,0v-0.729
		c0.478-0.968,0.478-2.183,0-3.394l-0.731-1.941l-4.6-3.394l-0.248-0.243c-0.477,0.727-0.968,0.727-1.449,0.971l-4.368-0.487
		c-1.456-0.241-2.419-0.484-2.902-1.456c-0.244-0.483-0.244-1.453,0.238-2.665l0.245-0.731l-1.937-3.394l-8.483,0.485
		c0.24,1.213,0,1.941-0.487,2.909c-0.242,0.731-1.21,0.973-1.938,0.973c-1.208,0.485-2.668,0-3.877-1.212v-0.243h-0.24
		c-1.94-2.181-2.674-3.879-2.674-5.337l-1.694-2.425l-2.419,1.699c-2.179,1.211-3.632,1.211-4.363,0.241l-0.968-0.241l-2.424,0.241
		l-6.542,2.185c-1.458,0.968-2.667,1.211-3.635,1.211h-0.73c-2.424,0-3.875-0.727-4.848-1.698l-3.879-3.152L834.341,160.218z"/>
	<path fill="none" stroke="#184491" stroke-width="2" stroke-miterlimit="10" d="M984.894,115.741l-3.633-23.768l0.244-0.483h0.238
		c1.704-2.669,2.668-4.851,2.184-6.549l-0.968-1.453c-2.667-1.699-3.88-5.579-3.152-12.13h-2.18
		c-1.699-0.24-3.641,0.489-5.573,1.699c-1.942,1.454-3.151,3.153-3.396,4.366c-0.969,2.909-4.115,4.85-9.451,6.548l-1.214,7.518
		v0.242l-0.239,0.241l-2.667,4.85l-0.242,0.488H954.6h-0.24l-23.991,4.364h-0.239h-0.727v-0.483l-7.028-7.519l2.178-2.183
		l-2.668-3.638l-3.39-2.426l-0.244-0.242h-0.243v-0.243v-0.244l-1.21-6.545l-6.302,0.484l-0.482-0.484l-5.334-3.154l-19.147-3.396
		l-15.994-0.726l-0.482,0.483c-0.732,0-1.212-0.24-1.459-0.727l-9.209-20.856c-0.966-1.699-4.844-7.03-12.598-16.248
		c-7.271-8.971-11.392-13.822-12.604-14.791L819.615,5.394l-2.178-1.211l-16.964-0.243h-0.246l-0.482-0.486
		c-1.701-1.213-4.119-2.425-7.757-3.151C788.84-0.91,781.57,1.516,770.182,7.58l-0.485,0.242l0.485,3.394h0.238v0.242h-0.238v0.485
		l-1.943,3.879v0.244h-0.243l-0.243,2.669c0,2.181,0.485,4.607,1.213,6.546l1.695,1.212l3.633-0.243l3.155,0.729l1.21-0.97
		c0-2.182,0.729-3.879,1.695-4.366h2.427l8.481,2.424l1.935,0.244l-2.662,4.609v5.578c0,1.214,2.182,4.122,6.539,8.246
		c2.67,1.939,4.367,2.909,5.818,3.151l1.212-0.242l1.213-0.483l4.12-4.124l3.149-1.94v-0.243l0,0l6.547-0.97l1.936-4.125
		l5.814-3.392l5.091,2.91v0.241l0.484,0.241l4.846,8.246l1.941,5.579v0.727l-0.971,6.791l1.938,4.608v0.728l-1.447,5.334v4.851
		c1.447,4.367,2.178,7.277,2.178,8.004l-0.485,4.123l0,0v0.244l-2.427,3.393v0.243l0,0l0,0l-2.422,2.911l-0.24,5.335l1.452,5.576
		l0,0l0.241,0.243l-0.241,0.243l0,0l-1.452,8.488l-1.212,1.214c-0.972,0.726-2.183,0.726-3.635,0h-0.484l-2.179-2.426l-2.426,0.726
		l-3.146,3.395l-3.396,9.945v0.243l-0.245,0.242l-3.39,2.908h-0.487l-1.939,0.244l-3.874,5.578l1.94,3.638l0.483,0.484l4.842,6.062
		v0.244v1.939l5.335,0.729l0.968,4.851v0.242l0.726,5.819l1.454,1.215l4.848-1.455l4.607-2.669l0.728-0.484l1.692,8.247l2.189,3.15
		l0.48,0.244l1.698,3.395l3.635,2.91c0.479,0.726,1.693,0.726,2.907,0.726l1.211,0.244l2.185-0.97
		c1.693-0.728,3.391-1.455,5.326-1.699l1.45-0.726l3.401-0.244c1.209,0,1.7,0.244,2.424,0.97l4.84-3.153h0.485l0.484,0.245
		l0.245-0.245l0.485,0.487c1.942,2.181,2.909,4.12,2.909,5.09l2.183,3.639l1.694,0.486h0.242h0.242l-0.484-0.486
		c-0.245-1.213-0.245-1.939,0-2.426c0.484-0.728,1.454-1.213,2.909-1.213l8.966-0.241l0.243-0.244h0.484v0.485h0.482l2.663,5.094
		l-0.242,2.668h-0.231l3.386,0.726h0.245c-0.245-0.726-0.245-1.211,0.239-1.696l1.211-0.242l7.999,5.576
		c0.728,0.73,1.212,1.698,1.454,2.911l0.239,3.395l2.667,0.486l1.698-2.91c-0.728-1.456-1.21-2.911-0.969-3.882
		c0.242-0.968,0.485-1.696,1.453-2.182l0.729-0.728c0-0.483,0.241-0.727,0.724-0.969l2.176,0.242
		c1.218,0.727,2.189,3.154,2.671,7.277v0.485l0.486,0.244c0.24,0.97,1.694,1.697,3.88,2.425h0.239l0.242,0.241l7.756,8.002l0,0
		l3.634-1.211l-0.485-1.213c-0.971-1.211-1.211-2.423-1.211-3.152c0-1.697,1.211-3.395,3.636-5.092l4.12-3.637l4.847,3.393h0.971
		l0.968-5.335v-0.97l0.966-0.245l3.883,0.488c0.725,0.727,1.206,1.456,1.206,2.67c0,0.967-0.729,2.18-1.454,3.152l0.725,0.485
		c2.429,1.211,4.371,2.182,5.819,2.425h0.244l0,0l3.151,1.695l2.422-0.24l-3.633-17.705c-2.426-1.455-4.607-4.364-6.788-7.758
		c-1.691-2.91-0.727-7.035,3.157-11.884c2.178-2.424,4.843-4.851,7.756-7.275l0,0l0.239-0.485h3.39l0.244,0.485l2.906,1.211h6.059
		c2.424-1.211,4.605-4.85,7.029-10.669C985.869,133.687,985.869,126.656,984.894,115.741z"/>
	<path fill="none" stroke="#184491" stroke-width="2" stroke-miterlimit="10" d="M829.142,233.931l-2.912,3.88
		c-0.483,0.726-0.726,2.183-0.241,4.609v1.455h-5.813h-0.246l0,0l-4.121-1.214l-3.148,4.851l-0.484,0.486l-3.88,2.423l-3.388,3.638
		l0,0l-0.489,0.728l0,0l-6.061,7.034v0.243h-0.241l-4.605,2.425l-3.634-2.425v-0.243l0,0l0,0l-3.394-3.637l-2.18-1.215l1.697,9.945
		l1.456,5.335l-3.636,3.397l-5.093,7.516v3.153l-0.238,0.242h-0.24l-1.212,1.941l0.964,1.698h1.941l7.031,1.94h0.235h0.249v0.242
		h0.242l1.455,1.455l1.937,0.97l0,0h0.488v0.243c0.725,0.971,1.205,1.941,1.205,2.91l0.729,2.182l7.515,2.182l2.179-0.483l2.18-2.91
		l5.821-11.158h0.239v-0.241l2.666-3.638l0.242-0.242l4.604-2.183l3.152-0.241c1.216-1.942,2.183-2.911,3.393-2.911
		c0.726,0,1.938,0.484,3.882,1.454l0.478,0.243v0.244l4.12,6.303v0.241h0.247v0.486l0.481,4.608l-0.24,5.094l0,0l-1.216,4.365l0,0
		v0.486h-0.237l-3.154,3.879l-1.456,3.153l0.249,5.335h0.483l1.695-0.727l1.937-1.697l0.483-0.486l0.244-0.486l2.424,2.184v0.24
		v3.882h-0.24l-2.184,0.97l-0.727,0.97v2.181l-0.245,0.244l0,0l-1.448,2.668h-0.244l-0.484,0.242l-1.944,0.243l-1.936,0.485
		l-1.456,2.667l0.245,0.487l7.995-0.972l1.456-1.211l2.666-7.034l0,0l17.932-18.43h0.489l3.88-1.943l0.237-0.241v0.241h3.158
		l3.144-0.726l3.39-1.455l2.424-2.669l3.881-10.671l0,0v-0.243l15.024-15.763v-0.242l-0.966-8.488
		c-0.728-0.242-1.698-0.728-2.184-1.457l-0.482-0.484v0.243l-2.425,0.241c-1.213-0.484-1.943-0.969-2.912-2.182l-0.721-1.455v-0.242
		L881,252.846V239.75c-1.454-0.487-2.907-1.454-4.599-3.151l-3.153-3.397l-2.909-4.119c-0.485-0.971-0.485-2.426-0.239-4.61
		l0.239-1.212l-1.7-2.184l-0.24,1.94l-2.18,4.123h-0.727c-1.693,0-3.634-0.242-5.091-0.971c-1.45-0.483-2.178-1.697-2.178-3.152
		v-0.969h-1.213l-4.601,1.212l-3.395-3.396l-1.211-0.242l-1.214,1.214l1.455,2.425l0.487,0.726l-2.424,5.096h-0.246v0.241h-0.24
		l-4.359,4.851l-0.247,0.242h-0.484l-6.784,0.727L829.142,233.931z"/>
	<path fill="none" stroke="#184491" stroke-width="2" stroke-miterlimit="10" d="M790.444,298.078l-1.939-0.97l0,0h-0.24
		l-1.455-1.456l-6.789-1.939h-1.691l-1.213,0.484l-2.672-5.094l0.248-0.242l1.943-2.425v-2.91l0.238-0.483l1.213-1.94l-0.971-0.486
		l-3.636-0.727l0,0l-6.302-0.972h-0.482l-3.637-3.636v-0.243l-1.212-2.425l-0.244-0.729l1.94-5.091v-3.639l-0.238-0.968l-1.941,1.94
		l-0.242,0.243l-0.484,0.726l-0.485-0.726l-0.726-0.243l-3.637-2.911l-0.484-0.486v-0.483l-0.725-5.337l-1.695-2.669l-3.642,0.245
		l-2.178,3.881l-0.239,0.484l-0.246,0.242l-5.821-1.211l-0.966,5.335v5.336l-0.239,0.243l-3.152,4.848v0.485l-0.485,0.244h-0.24
		l-3.637,0.242l-3.634,2.91l-0.485,0.485l0,0h-0.483l-0.246-0.243l-6.785-2.181l-0.966,2.424v0.244l-2.908,4.85
		c-0.483,0.97-1.214,1.453-1.94,1.696l-2.906-0.485l-3.878-1.698l-0.73-0.486l-0.24-0.242v-0.243l-0.725-5.821l-1.215-4.366
		l-0.726-1.212l-1.695,3.394l0,0l0,0l-2.911,3.881l-2.421,5.58v0.241l0,0v0.243h-0.241l-2.182,3.153
		c0,0.973-0.725,2.425-2.184,4.608l1.459,5.577l7.266,8.005l0,0l2.424,5.091v0.485l-0.245,0.484h-0.239l-1.94,2.427l-0.483,0.483
		l-4.851,0.971l0.486,3.878l3.638,1.944l5.33,1.211l1.454,4.85l0,0l0,0v0.243v0.242l-1.213,8.244l0,0v0.244l-1.937,3.635v0.731
		h-0.484l-6.058,0.969v2.427l-1.694,5.333l-0.729,6.062l1.208,3.396l7.513,4.606l0.245,0.246l3.15,5.335v0.243l0.24,0.24
		l-0.24,0.245l-3.873,8.488l-0.973,2.422l0,0l-2.425,5.581l-0.969,4.364l-0.241,0.487v0.243c-1.211,0.967-1.94,1.938-2.426,3.394
		c-0.242,0.486-0.242,0.969,0.244,1.456l0.243,0.243l2.424,2.663l0,0l0,0l1.213,1.947l0.484-0.246l0,0l0.243,0.728v0.244v0.726l0,0
		v0.244l0,0l0,0l0.483,1.454l2.179,0.729l8.725,1.939c2.91,0,5.575-0.724,8.486-1.939c2.908-1.212,5.573-1.456,8.483-0.971
		l0.481-1.697l-2.907-6.549l-0.246-0.483h0.246l13.809-19.161l14.786-14.307h0.244l4.603-1.699l2.422-2.668v-0.245
		c1.942-1.454,3.637-2.423,5.578-3.148l-1.456-1.215l-3.153-3.151v-0.245h-0.238l-2.425-2.913l-0.243-0.482v-0.485l1.21-1.453
		l-3.151,0.726l-6.787-1.698c-2.666-1.214-4.358-2.669-4.844-4.367c-1.452-4.362-1.936-8.244-1.698-11.64
		c-0.965,1.214-2.179,1.456-3.39,1.456l-5.09-1.213l-3.393-2.425l-4.117-0.971h-1.941c-1.211,0-2.667-0.483-3.635-1.455
		c-1.454-0.97-2.18-1.94-2.423-2.909c-0.484-1.942,0-3.153,1.696-4.366c1.695-1.212,3.635-3.154,5.33-5.581
		c-1.695-2.18-2.425-4.362-1.695-6.545l0.244-0.243c0.237-1.212,2.183-2.182,5.813-3.394c0.245-1.214,0.728-1.941,1.213-2.184
		l3.634,0.243l-0.484-0.483c-2.422-1.456-3.15-3.155-1.938-5.094l1.938-1.454c2.179-0.729,4.847-0.487,7.51,0.968l5.578,3.881h5.088
		l1.696,1.456l0.482,1.939c0,1.214-0.727,1.941-1.694,1.941c-1.209,0-1.696,1.212-1.94,2.666l2.421,5.821
		c1.46-2.183,2.914-3.395,4.367-3.635c0.727,0,1.693,0.483,2.422,1.452c0.728,1.214,1.457,3.395,1.941,5.579
		c0.24,2.668,0.967,4.848,1.696,6.065l1.937,2.667c2.908,3.637,4.604,6.305,5.092,8.487l9.448-1.213l4.124-2.184l3.874-4.85
		l1.698-4.608v-0.244v-0.24l1.21-4.852v-0.242l0.245-0.486h0.243l3.635-2.425l0.723-0.483l-0.241-0.245l-6.06-1.94h-0.48v-0.24
		l-1.214-3.639L790.444,298.078z"/>
	<path fill="none" stroke="#184491" stroke-width="2" stroke-miterlimit="10" d="M738.367,295.687l-0.482,0.727l-0.732-0.242
		l-3.149-0.485l-0.238,1.455v0.725h-0.728l-5.093,1.942l-0.237,0.727c-0.73,1.7,0,3.152,1.693,5.093l0.488,0.485l-0.488,0.728
		c-1.456,2.425-3.633,4.85-6.055,6.546c-0.972,0.727-1.213,1.456-1.213,2.184l1.695,2.184l2.667,0.97l2.18,0.241
		c2.909,0,4.846,0.243,5.575,1.457l2.422,1.695c1.695,0.73,3.145,1.214,4.363,1.214c0.966,0,2.178-0.727,3.153-2.668l1.936-2.182
		l1.451-4.607l-1.207-5.335l1.933,0.484l3.159,0.243l1.447-0.971l0.489-1.213l-2.429-7.034l0.731-2.423
		c0.728-1.455,1.697-1.94,2.664-2.184h0.244l-0.485-1.695l-5.82,0.241v-0.241l-5.327-3.638c-2.181-1.456-4.363-1.7-6.303-1.214
		l-0.727,0.484c-0.485,0.971,0,1.943,1.455,2.427C738.612,292.774,739.097,293.988,738.367,295.687z"/>
	<path fill="none" stroke="#184491" stroke-width="2" stroke-miterlimit="10" d="M760.886,305.236l-0.727-0.486
		c-1.211,0-2.423,1.213-3.636,3.881l-0.731-0.485l-0.235,0.242l0.235,0.242l-2.177,2.182l-0.968,0.486l-2.667,1.457l-0.24,1.694
		c0.24,2.67-0.488,4.61-1.701,5.336l-0.965,2.909c-0.242,0.728-0.486,2.67-0.242,5.337l1.454,7.277
		c0.48,0.97,1.694,2.182,4.121,3.152l5.573,1.454c1.453,0,3.389-0.726,5.568-2.181l-1.452-2.669v-0.482v-0.246l0.485-2.182v-0.242
		l2.667-4.848h4.608l1.208-0.244c-0.48-1.455-1.941-4.125-4.602-7.519l-1.698-2.424c-0.972-1.94-1.936-4.121-2.182-7.033
		C762.096,307.66,761.369,306.205,760.886,305.236z"/>
	<path fill="none" stroke="#184491" stroke-width="2" stroke-miterlimit="10" d="M699.059,309.137l0.972-1.214l-1.698-3.88
		l-1.695-1.94l-1.941,3.154v0.241l0,0l0,0l-3.148,3.639l0,0l-0.243,0.241h-0.485l-5.818,1.697h-0.484l-5.572-0.968l-3.152,0.968
		l-0.73,2.669l0,0l-0.239,0.484l-2.666,1.7l-0.483,0.24h-0.487l-4.845-0.485l-0.244,0.485v4.853l-0.238,0.24l-2.666,3.395l0,0v0.243
		h-0.249l-4.599,4.608h-0.244l-0.246,0.242l-4.843,0.971l-3.153,3.394l0.727,4.122v0.97l-0.727,0.244l-3.638,3.395l-1.935,2.426
		l1.45,3.152v0.243v0.243v4.607l0,0v0.245l-2.662,3.878v0.242l-3.635,4.123l0.483,4.849l3.152,2.91v0.243l0,0
		c1.455,2.426,2.18,4.366,2.18,6.066v5.332h-0.24l-0.245,0.245l-4.847,3.638l-0.483,7.277l0.483,7.275
		c0,2.426,0.966,7.033,3.395,13.823v0.242v0.488l-5.33,24.734l0.48,4.857l3.639,1.693l5.816-5.82l0,0h0.243l18.66-7.275l4.848-4.367
		l0.483-0.48l0.241,0.237h0.485l10.659,0.973c1.457,0,4.608-1.211,9.215-3.151v-5.1l0.239-0.24h0.239l2.914-2.668l-0.731-3.157
		v-0.238v-0.245v-0.484l0.244-0.243c0.972-0.97,0.972-1.938,0.243-2.665c-0.728-1.458-0.487-3.395,0.729-5.58l1.211-1.693l0,0
		l-0.237-3.397l-3.643-4.371c-1.695-1.211-1.938-2.907-0.968-4.603c0.49-1.458,1.214-2.912,2.422-4.127l0.974-4.121l0,0l0,0
		l2.662-5.822l0.731-2.666l3.874-7.274L701,362.488l-7.51-4.608h-0.49v-0.484l0,0l-1.451-3.881v-0.241v-0.488l0.725-6.545l0,0
		v-0.245l1.695-4.848c-0.238-1.699,0-2.913,0.728-3.884c0.484-0.484,1.212-0.968,1.941-0.968l4.603-0.727l1.215-2.668l1.208-8.002
		l-0.968-2.912l-4.117-0.967h-0.246l0,0l-4.843-2.426l-0.25-0.243v-0.486l-0.239-0.242l-0.239-5.821v-0.483v-0.729L699.059,309.137z
		"/>
	<path fill="none" stroke="#184491" stroke-width="2" stroke-miterlimit="10" d="M845.573,357.34l-0.479,0.243
		c0,1.213-0.728,1.941-1.941,1.941l-9.453-0.971c-6.542-1.213-10.9-2.184-13.083-3.395l-13.33,12.612l0.486,5.335v0.483l-1.21,0.244
		c-10.424,1.455-16,0.486-16.729-2.912l-1.209-15.034l-12.118-0.727l-5.087,10.67l-0.487-4.609c-0.238-3.636-0.966-5.821-1.7-6.302
		l-5.331,2.665l-2.422,3.153l-0.244,0.242h-0.239l-4.847,1.698c-5.328,4.366-9.937,8.974-14.052,13.825l-12.849,17.46l2.667,6.064
		v0.97l0,0l-0.245,0.244c-0.968,1.453-0.481,3.637,0.973,6.061c1.696,3.151,2.905,6.548,2.905,10.429v0.726l-10.418,6.064v2.43
		l4.844,2.178c0.487,0.243,0.728,0.732,0.728,0.973v0.484c-0.24,1.214,1.696,2.912,5.331,4.605l8.966,2.427l2.667-1.695l2.912-4.122
		l2.423-7.039l7.025,2.667l0.97,0.734v0.483l0,0v0.246c-1.212,2.909-0.484,4.847,1.695,6.061l7.753,0.238
		c2.668-0.482,4.847-1.452,6.304-2.668c0.971-1.209,2.423-1.448,4.603-1.209c2.668,0.486,5.091,1.457,6.786,3.638l1.695-4.123
		l0.487-0.727h0.242c1.214-0.731,1.939-1.94,2.909-3.641c0.727-1.7,1.937-3.396,3.878-4.61l3.39-1.936l0.246-0.247l0.24,0.247h0.24
		l1.939,0.482l0,0l0.486,0.245l2.67-12.126v-0.246l3.872-0.727c3.878-2.665,5.819-4.849,5.572-6.789l-0.726-3.638
		c-0.968-2.425-0.968-4.122-0.485-4.85c0.729-0.73,1.211-0.971,1.938-0.971c1.7,0,3.641,0.484,5.577,1.457l0.489-3.881v-0.486
		l0.237-0.246l4.12-1.937l0.484-2.184h-2.425l-0.48-0.245l0.238-1.212v-0.725l0.241-0.484h0.73h0.483
		c1.702,0,3.635-0.967,5.817-2.909l15.27-10.914h0.485l4.845,2.182l1.942-0.241l-1.213-5.095v-0.486l0.244-0.243l0.239-0.242
		l2.664-4.366l-0.724-0.484l-1.695,0.484v0.244h-0.245l-4.846,0.726h-1.211h-0.24v-0.242l-0.245-0.728l-0.968-1.697H845.573z"/>
	<path fill="none" stroke="#184491" stroke-width="2" stroke-miterlimit="10" d="M832.008,446.929
		c-2.668-2.185-4.852-6.065-7.034-12.125c-7.024,0-11.144-1.213-13.084-3.642c-1.456-2.175-4.363-3.632-8.485-4.846l-1.213-0.25
		l1.213-4.119l-0.725-0.481l-1.214-0.247c-2.91,1.453-4.845,2.913-5.574,4.847c-0.968,1.944-2.182,3.648-3.636,4.855
		c-1.208,3.883-2.423,5.826-3.632,5.826c-0.727,0.237-1.218-0.248-1.695-0.976l-1.941-1.696c-1.451-0.728-2.906-1.453-4.12-1.453
		l-2.42,0.48c-1.699,1.702-4.123,2.916-7.753,3.397l-9.215-0.481c-2.908-1.457-4.117-4.367-3.389-8.008l-3.395-1.21l-1.695,4.851
		l0,0v0.243l-0.244,0.243l-0.722,0.966l2.178,0.489h0.483l0.241,0.238v0.246c4.122,5.577,7.269,9.212,8.964,10.189
		c0.972,0.479,3.883,1.451,8.968,2.904l8.726,3.152c2.668,1.217,5.334,6.551,8.237,16.013c3.878,2.663,6.305,3.875,8,3.634
		c1.698-0.723,4.604-2.42,8.729-5.096l0.235-0.238l0.246-0.245l0.484,0.245l4.363,0.966h0.484v0.734l-0.244,0.719
		c-1.45,5.824-2.663,9.222-3.636,10.19l-5.813,0.243v0.247c0,2.42-1.695,6.056-4.847,10.664c-0.966,1.455-1.212,2.668-1.212,3.394
		l5.571,3.879c1.457,1.701,2.425,2.192,3.639,2.192h1.212l1.211,4.115l2.663,0.975l1.457-1.455c0.726-0.732,1.693-1.22,2.421-0.976
		c2.426,0,4.363,1.456,6.787,4.608l0,0l2.179,2.915l0.244-0.246c1.455-0.97,4.125-0.724,8.003,0.483l6.298,1.456l5.815-1.939
		l2.425-1.212l1.694-1.213l-1.455-1.699c-0.483-0.97,0-2.177,1.214-3.397c1.451-1.207,2.417-2.416,2.417-3.875v-2.914
		c-0.478-1.451-0.237-2.425,0.247-2.905c0.483-0.974,2.181-1.46,4.123-1.943c3.148-0.486,7.024,0.969,11.629,4.847l-1.692-4.847
		l-2.669-3.639l-0.483-4.368l-4.123-0.727h-0.243v-0.235l0,0l0,0l-10.904-6.311l-5.33-0.969v-1.207l-0.246-5.586
		C837.09,455.417,834.183,449.113,832.008,446.929z"/>
	<path fill="none" stroke="#184491" stroke-width="2" stroke-miterlimit="10" d="M787.343,467.37h-0.235v-0.237
		c-2.669-9.216-5.09-14.316-6.789-15.04l-8.482-2.914c-4.847-1.451-8.241-2.426-9.693-3.394c-2.422-1.457-5.573-4.852-9.206-10.429
		h-1.459l0.248,0.246c0.483,1.937,2.423,5.331,6.539,10.182l0.243,0.245l0.245,0.483l-3.879,7.033
		c-1.456,2.669-2.903,3.88-4.36,3.395c-0.974-0.485-2.912-2.669-6.06-6.79l-4.126-1.209c0,1.209,0.735,3.632,2.429,7.515v0.242
		v0.243v0.243v0.243l-0.722,2.664l-4.371,1.939l0,0l-1.446,0.489c-0.733,0.731-0.733,1.938-0.489,3.399
		c0.489,3.634,0.242,5.815-0.484,6.79c-0.484,0.481-0.73,0.481-1.213,0.481h-0.238l0,0l-4.847-0.968
		c0.239,0.968,0.965,1.938,2.18,2.669c2.422,2.181,4.358,5.329,6.301,8.966l0.236,0.732l0,0l2.189-0.482
		c2.659-0.485,5.083,0,7.508,1.697l2.666,3.152l0.242,0.24v0.241h-0.242l-0.24,6.305c0.728,0.975,1.205,2.188,0.728,3.155
		c-0.488,1.21-1.456,1.939-3.153,2.185c-1.938,0-2.907,1.207-3.39,3.632l0,0l0,0v0.244l-1.937,4.123l2.902,2.908l6.302,1.214h0.489
		l0,0l3.148,3.395l-3.882,5.82l8.971,19.405l0.244,0.483l-1.454,1.697l0.483,1.455h0.244l16.478-10.429l-2.664,4.854
		c-2.184,3.636-3.391,6.789-3.879,8.972c2.907-1.213,5.328-3.397,6.789-7.276l0.238-0.488h0.243l4.602-2.417l0.244-0.491
		l6.542,5.821l7.27,0.247l0.245,0.237l3.391,2.184l8.967-7.761c0.73-0.728,1.456-2.18,2.423-4.608l0.973-1.943
		c0.239-0.963-0.973-3.388-3.396-7.519l-2.18-3.148l10.659,3.635l3.157-1.696l-3.157-6.791l-0.237-0.244l5.329-7.03l-2.179-3.397
		c-2.182-2.423-3.635-3.634-4.608-3.634l-0.483,0.237l-2.666,2.671l-0.483-0.239h-0.483l-4.365-1.457l-1.209-3.886
		c-1.701-0.237-3.394-1.207-4.848-2.907l-2.67-1.701c-2.179-0.968-3.389-2.181-3.389-3.392c-0.487-1.453,0-3.154,1.455-5.336
		c2.662-3.88,4.119-7.035,4.119-9.456v-3.151l1.694,0.24l5.576,0.243c0.484-0.482,1.211-2.907,2.177-7.27l-1.693-0.247
		c-3.878,2.668-6.787,4.364-8.97,5.092c-2.665,0.731-6.056-0.728-10.901-4.12v-0.246L787.343,467.37z"/>
	<path fill="none" stroke="#184491" stroke-width="2" stroke-miterlimit="10" d="M667.881,434.868h-0.244l-18.415,7.515
		l-5.575,5.338c-0.964,8.243,0,13.092,2.908,14.552l5.33,3.395h0.247v0.238l1.453,8.975c4.605,6.061,7.752,9.215,9.453,9.946
		l5.327,1.211l0.728,0.242v0.246c0.726,0.966,2.425,1.938,5.574,2.906l14.542,0.727c10.663,0,16.724,0.732,17.933,1.939
		c1.214,0.967,1.451,3.397,1.214,7.035c-0.244,2.425,0,3.878,0.237,4.126l5.332-1.216c4.122-1.457,6.542-1.457,7.757-0.237
		l1.94,2.418c2.903,3.643,4.848,5.096,5.329,4.855c1.453-0.49,3.15-1.944,4.846-4.364l0.483-0.732l4.363,2.67l2.668-2.183
		c0.729-3.397,2.425-5.092,5.334-5.336l1.206-0.482l-0.483-0.973l-0.482-0.487l0.24-0.237l0.241-6.064
		c-1.939-2.913-4.358-3.884-7.027-3.399c-2.665,0.729-4.605,0.729-5.331-0.242c-0.484-0.724-0.484-1.212-0.484-2.188
		c-1.697-2.907-3.391-5.329-5.575-7.512c-2.907-2.427-3.637-4.608-2.907-6.791l0.481-0.73l6.789,1.212l-0.485-4.117
		c-0.242-2.428,0-4.127,1.213-5.335c0.484-0.978,1.694-1.465,2.906-1.704l2.905-0.973v-1.207c-2.177-4.61-2.905-8.006-1.938-9.455
		l1.458-1.214c0.72-0.247,3.149,0.238,6.541,1.454l0,0l0.246,0.246v0.484c2.664,3.15,4.119,5.092,4.843,5.574l4.601-7.52
		c-4.112-5.092-6.299-8.726-7.026-10.182l-3.631,2.424l-0.483-0.488l-9.692-2.421h-0.246v-0.244
		c-4.122-1.941-6.542-4.12-6.787-6.302l-5.818-2.67v-5.58l10.666-6.303c-0.487-2.913-1.214-5.822-2.423-8.247l-1.694-3.397
		l-7.274,0.73c-3.389,1.455-6.546,2.182-9.696,2.182l-7.512-1.7v-2.67l-1.213-0.24l-2.179-0.727l-0.483-1.452l0,0v-0.244l0,0l0,0
		l-0.242-0.727v-0.244v-0.727l-0.484,0.245l-0.488,6.304l-0.242,2.182c-0.483,1.21-0.967,1.94-0.483,2.422
		c1.213,1.7,0.971,3.635-0.244,5.334l0.969,4.128l-0.242,0.242l-0.483,0.241l-2.91,2.669v5.58l-0.726,0.245
		c-5.329,2.425-8.963,3.632-11.15,3.632l-10.66-0.723l-4.6,4.122H667.881z"/>
	<path fill="none" stroke="#184491" stroke-width="2" stroke-miterlimit="10" d="M627.903,477.694l-0.241,0.968l1.214,1.461
		l6.301,4.363l0,0v0.236h0.236l3.885,4.37l-0.49,0.483l-2.421,2.913l-0.242,0.24l-0.24,0.48h-4.123l-2.423,0.248l-1.696,1.696
		l0.725,2.182v0.246l0.246,2.429l2.182,3.144v0.247v6.785l1.941,0.733l3.389,0.967h0.242l0,0l0.242,0.242l0.244,0.244l3.151,4.369
		v0.236l0,0l1.694,4.37v0.242l0,0v2.909c-0.246,1.695-0.729,3.148-1.208,4.122c-1.212,1.705-3.395,3.154-6.787,4.606l-8.243,4.857
		h-0.238l-15.03,0.963l-0.964,3.641l2.666,4.85v0.242v0.239l0.724,6.302l8.241,9.706h0.243l0,0v0.243l3.389,5.581l0.246-0.728
		v-0.242l2.665-7.517l0,0l0.242-0.253l0,0l4.847-6.301l0.246-0.235l6.053-2.915h0.49l3.88,2.425l5.086-0.48l-1.701-8.49l0.974-0.247
		l4.6-0.485l4.847,0.245h0.49v0.24l9.692,4.368l8.236,1.694h0.248l0,0h0.239l2.667,1.944l3.877,1.447v0.254l0,0l0,0l0,0l2.423,2.181
		l1.452,0.479l2.671-2.425v-0.235l4.119-3.159l2.182-4.126l3.872,2.182v0.248v0.24l0.974,3.153v0.726l-0.487,1.937l0.243,0.49
		l2.423-1.22l3.395-3.388h3.151v0.238h0.237l2.188,1.457c1.45,1.455,1.932,2.674,1.45,3.88l-0.244,5.334l1.453,2.672l0.485,0.246
		c5.814-6.31,9.697-9.457,12.119-9.457h6.544l1.455-3.155l5.085-2.423h0.246l6.302-0.49l6.545-3.391v-0.246h4.116l-0.731-1.94
		l0.247-0.482l0.966-0.972l-8.966-19.154v-0.491l-0.241-0.237l3.881-5.339l-1.212-1.217l-6.543-1.207h-0.727l0,0v-0.482
		l-4.122-4.367l0.239-0.972l-0.239,0.244l-0.245,0.242l-3.633-2.424c-1.696,2.182-3.393,3.637-5.334,4.121
		c-1.693,0.727-4.363-1.211-7.995-5.574l-1.942-2.433c-0.239-0.485-1.932,0-4.6,0.973c-4.121,1.459-6.784,1.699-7.998,0.968
		c-1.209-1.214-1.695-3.632-1.209-6.786c0.238-2.674,0-4.129-0.486-4.855l-31.505-1.698c-2.911-1.207-5.335-2.422-6.545-3.634
		l-4.85-1.214c-1.937-0.724-5.569-3.882-10.416-9.948l-3.154,2.678l-4.845-1.461l-13.085,0.246l0,0l0,0L627.903,477.694z"/>
	<path fill="none" stroke="#184491" stroke-width="2" stroke-miterlimit="10" d="M712.545,567.507l0.24-0.24h-0.487v-0.484
		l-1.938-3.643l-0.238-0.236v-0.494l0.48-5.813c0-0.726-0.723-1.46-2.179-2.435h-1.455l-2.424,2.914h-0.242l0,0l-6.052,2.91
		l-0.974-4.115v-0.488l0.484-1.937l-0.484-2.436l-0.729-0.238l-0.965,1.944h-0.247v0.24l-7.51,6.548l-0.245,0.482h-0.239h-0.489
		h-0.481l-2.187-0.968l-0.24-0.24l-2.421-2.181l-3.875-1.46l0,0l-0.243-0.247l-2.423-1.693l-7.999-1.695l0,0h-0.244l-5.331-2.671
		v0.247l-4.122-1.946l-5.328-0.484l-1.939,0.246l1.694,8.977h-0.725l-5.33,0.481h-2.909h-0.243l0,0l-2.906-1.936l-4.851,2.181
		l-4.356,5.813l-3.882,10.431l1.212,11.397l1.694,6.558c0.244,0.727,0.244,0.963,0,1.206l-0.728,0.237
		c-1.209,0.735-1.691,2.426-1.454,4.859l2.425,9.934l-0.726,0.495c-4.36,2.423-6.546,4.361-6.786,5.328l-0.484,3.402l4.117-1.694
		l0.242-0.254h0.247c2.908,0,4.6,0.977,4.846,3.399l0.729,5.337l-0.246,0.727l-0.483,0.487c-0.723,0.723-1.213,1.449-1.213,2.426
		l-0.724,5.578c0.238,1.935,0.973,3.389,1.938,4.119l5.09,6.06l4.606-3.638l3.632-0.489h0.243l0.244,0.489l2.422,0.731
		c0.729,0,1.456-0.244,2.184-0.972l2.177-3.151l-0.484-1.945c0.484-0.722,1.21-1.204,2.185-1.695h5.816
		c0.965,0.491,1.695,0.246,1.695-0.242c0.729-1.699,1.45-2.427,2.179-2.907c0.732,0,1.94,0.237,2.669,0.968
		c1.695,1.453,2.905,2.672,2.905,4.367l-0.483,4.357l0.968,0.734c1.453,1.215,2.426,2.426,2.426,3.393l-0.973,4.366
		c-0.726,2.427-1.453,4.126-2.422,4.611v-0.238l-3.634,7.757l1.212,0.482l5.817,0.242l1.21,0.485l-0.483,0.968
		c-0.727,2.434-0.972,4.123-0.727,5.342c1.937,1.211,3.15,1.94,3.875,1.211l3.394-1.457l1.694-0.723h3.153l3.148-3.404v-4.117
		c-0.244-1.453,0-2.425,0.489-3.156c0.969-0.726,2.905-0.726,5.817,0.969l5.813,3.64c1.94,1.458,3.389,1.941,4.363,1.941v-0.247
		c0.484-0.968,0-2.906-1.212-5.334l-3.151-4.846v-0.488h0.246l0.237-0.479c3.153-4.367,6.548-5.827,10.425-4.367l8.965,4.12
		l3.635-2.426h0.239v-0.241v-0.245l-0.481-0.486l0.241-0.238l0.239-0.485c2.912-4.851,3.877-8.485,2.912-10.427
		c-0.729-1.705-1.938-2.427-2.912-2.427h-0.724l-0.484-2.425h0.484c1.698-0.73,2.667-1.46,2.907-2.429l-0.723-1.206l-3.88-3.64l0,0
		V622.8l-1.939-5.331c-0.726-4.126-1.215-7.768-0.726-11.161v-2.42l-2.425,2.181l-2.18,2.429l-0.73-10.195l0,0v-0.481h0.246
		c5.329-7.76,8.965-12.369,10.174-13.585l-2.421-7.274c-0.727-3.638-1.211-5.821-1.211-6.784l-4.364-1.941L712.545,567.507z"/>
	<path fill="none" stroke="#184491" stroke-width="2" stroke-miterlimit="10" d="M639.265,521.752l-1.7-3.886l-2.663-3.882
		l-2.906-0.728h-0.247v-0.238h-0.238l-2.429-1.214l0,0H628.6l-0.971,0.243l-3.152,0.483h-0.237l-0.485-0.238l-3.156-1.215v-0.242
		h-0.237v-0.24l0,0l-2.431-2.426l-2.66-2.671l-2.426-1.457l-2.667,2.429l-3.387,2.425l-0.972,7.271v0.251l0,0l-3.151,5.335v0.482
		h-0.246l-2.421,2.424l-2.906,5.578l0,0l-0.247,0.482c-2.176,1.704-4.115,3.397-6.053,4.852l-2.427,4.362
		c-0.482,1.219-2.423,2.673-6.055,4.128l-2.426,4.123l0,0l-4.122,5.577h-0.24v0.237h-0.484l-19.388-1.206l-2.175,2.181v4.122
		l1.932,8.007l4.12,5.823l3.391,1.936v0.244h0.241l0,0c1.941,2.421,2.914,4.117,2.914,5.334v3.152l-1.214,1.215l0.729,0.483h0.966
		l1.453-2.914h0.485l3.876,1.215l0.247,1.215h1.938l0,0l-0.485-1.455l-0.242-0.479l2.664-4.135c0.489-1.212,1.697-1.691,3.394-1.212
		l4.361,0.24l2.424-3.149v-2.915l0.97-3.145v-0.246l0.244-0.237l0.241-0.246l1.696-0.968v-0.241h0.243l0.243,0.241l3.634,0.483
		v0.484l0.729,2.907v1.462l0.483,2.183l0.969,0.237l1.212-1.692v-0.248l1.938-2.662l0.245-0.487l2.664-1.217h0.238l0.246-0.237
		l3.151,0.966h0.244l0.484,0.242l1.697,3.396v3.397l2.421,4.608l0,0v0.48v3.399l0.729,1.456h0.726l0.972-1.211l0.24-0.491
		l2.906,1.702h0.249h0.237v0.483v0.242l0.968,4.12l1.216,0.732l0.24-0.486l1.213-3.152v-0.24l0.237-0.487h0.246h0.243l1.694-0.975
		h0.246v-0.237h2.18l-0.485-1.211v-0.491l-1.213-11.39l-4.601-7.525l-8.731-10.182l-0.242-0.245l-0.484-6.551l-2.905-5.081v-0.254
		l-0.244-0.238l0,0l0.244-0.483l1.455-6.309h0.483h0.486l15.269-0.969l8.236-4.367l0,0l0.246-0.238
		c2.905-0.967,4.843-2.184,5.329-3.398C638.775,525.87,639.265,524.173,639.265,521.752z"/>
	<path fill="none" stroke="#184491" stroke-width="2" stroke-miterlimit="10" d="M604.506,570.786l-1.698-0.727l-1.94,1.216
		l-1.209,2.182c-0.972,2.182-1.942,3.394-3.637,3.394c-0.97,0-2.182-0.728-2.908-1.452l-0.246-0.243l-0.237-0.242l0,0l-0.731-2.427
		v-0.237l-0.241-3.16l-1.451-0.237l-0.243,0.237l-0.728,2.431v3.393l-0.243,0.242l-0.24,0.243l-2.911,3.883l-0.484,0.482h-0.484
		l-5.815-0.482h-0.481v0.236l0,0v0.246l-1.943,2.665l0.727,1.702h0.245l-1.699,2.664h-5.329v-0.97l-0.483-0.483l-0.731-0.482
		l-0.969,1.694l-0.243,0.727h-3.636l-0.235-0.24l-2.186-1.698l-0.24-0.482v-0.245h-0.246v-0.484l-3.877-0.733l-2.906,1.216
		l-1.695,1.211l4.842,5.575l6.309,1.94l0.235,0.244l0,0l0.246,0.242l3.148,2.917l-1.205,4.853l0,0v0.719h-0.247l-4.121,3.397v0.244
		h-0.24l-6.786,1.939h-0.238l-3.878,0.484l0,0h-0.245l0,0h-0.244l-2.668-0.968l-1.448-0.246l-1.457,2.428h-0.24v0.238l-3.153,2.183
		h-0.238l0,0l-4.369,1.945h-0.241l-5.089-1.705l-11.144,0.487l-2.426,0.727l-0.245,0.253h-2.179l-2.666,3.629l0.486,4.131
		l2.421,5.57l2.666,1.462h0.246v0.236l0.966,0.73l1.697-2.428l0.243-0.242l0.242-0.241h0.242l3.634-0.488h0.488v0.244l3.633,0.97
		l3.633,8.247h-0.242v0.241l-1.451,4.608l0,0l-1.212,2.91v0.242l-1.697,4.128v5.088l2.909,2.916h0.239l3.881,3.391l0.488,0.238
		l0.237,0.25l-2.904,6.791l-0.73,3.15l0.97-0.488h0.244l2.421-0.969l4.362-2.421h0.248l4.838,0.729h0.25l0,0l7.267,2.904h7.999
		l2.18-2.904l0.246-0.244l0.235-0.243l4.122-1.942l3.88-3.396l0.485-0.246l0,0l2.905-0.97l3.152-2.419l3.634-4.852l5.091,1.938
		l0.729,0.24v0.247l0.241,0.243c0.728,1.94,1.454,2.91,2.18,3.154l3.15-0.487h0.729l1.696,0.487h0.237v0.242l4.123,1.457h1.213
		l0.238-0.974l0.489-1.453v-0.242l0.24-0.244l0.245-0.247v-0.237l1.454-0.969l0.24-0.247l2.667-2.182h0.245l0.243-0.242h0.482
		l2.425,0.242c0-1.451,0.728-2.911,2.18-4.364c1.695-1.214,2.906-1.942,3.633-1.698l1.454-0.967h0.243v-0.247l1.211-1.212v-0.239
		h0.245l0.245-0.247h0.237l3.878-0.962h2.186l0.966-0.73l0.724-1.458l0,0l1.214-2.425l-0.486-0.246
		c-1.452-1.69-2.419-3.632-2.906-6.3l-0.24-0.242l0,0h0.24v-0.243l0.97-5.335c0-1.704,0.484-2.911,1.699-4.129l-0.49-4.365
		c-0.239-0.483-0.724-0.969-1.935-1.213l-7.757,3.155l0.488-8.006c0.242-1.207,2.664-3.391,7.269-6.057l-2.178-8.487
		c-0.485-2.917,0.237-5.098,2.178-7.038l-0.483-1.457h-2.425l-0.728,0.247l-1.208,3.396c-0.975,1.212-1.945,1.935-2.913,1.935
		h-0.482l-2.428-1.691h-0.24h-0.24v-0.244v-0.491l-0.731-1.695l-0.239-2.424v-0.24l-0.238,0.482l-0.243,0.725h-4.367l-0.481-0.967
		l-0.727-2.666v-3.639l-2.666-4.603v-3.885L604.506,570.786z"/>
	<path fill="none" stroke="#184491" stroke-width="2" stroke-miterlimit="10" d="M654.582,633.429l0.243,0.242l0.483,0.487
		l-3.153,4.851c-1.211,1.453-2.905,2.419-4.848,2.419h-0.484l-2.42-1.452l-2.429,0.242l-4.843,3.641
		c-1.21,0.484-2.665-0.731-4.844-3.641l-1.453,3.152h-0.241l0,0l-0.248,0.242l0,0l-1.697,1.699H625.5l-3.149,0.97l-3.881,2.909
		h-1.205l-1.46,0.978c-1.208,1.203-1.695,2.176-0.965,3.141l1.69,2.43l-6.78-0.724l-3.634,2.909l-0.488,1.207v0.25l-0.727,1.938
		l-0.245,0.243l-0.24,0.237h-3.395l-4.36-1.698l-1.453-0.236l-3.395,0.482c-1.453,0-3.15-1.699-4.601-4.364l-2.913-1.216
		l-2.423,3.64l0,0h-0.24l-3.395,2.911h-0.244v0.243h-0.483l-2.666,0.722l-3.874,3.402l0,0l-4.119,1.939l-2.914,3.878h-9.686l0,0
		l-7.517-2.906l-4.122-0.492l-3.634,1.944h-0.247l0,0l-2.419,0.971c-1.213,0.483-2.182,1.215-2.911,1.458l-0.483,1.21v2.915
		l1.211,1.936l5.818-1.936c1.212,0,2.906,0.719,5.086,1.936l0.483,0.243l0.248,0.239l0.24,8.245l1.207,0.244h5.093l3.15-0.726
		l0.49-0.483c1.938-0.971,3.632-1.699,5.814-1.935l0.969-0.248l0.481,0.728l1.453,2.906v0.245l0.728,8.004v0.726l-4.36,4.604h-0.242
		v0.251l-5.089,2.423l-1.695,1.936l0.724,1.457l10.426,0.968l0.235,0.249l0,0l0.246,0.237l4.118,2.422l9.209-0.237v1.209l0.49,4.609
		v0.485h0.238l-4.12,4.123c-0.485,5.338,0.488,8.493,2.666,9.22l7.755,4.121l6.057,4.121l5.092-2.42l0.48-0.246l0.489-0.246
		l0.239,0.246l7.761,5.819l1.21,0.487l1.938-2.428l0.487-0.483l0.243-0.243h0.238h0.245l4.603,0.726l1.263-6.275l5.524,8.703
		l4.847,0.245l0.728,0.237h0.482v0.489v3.148l1.937-0.48l8-10.672l3.395,5.092v-1.698l0,0v-0.242v-0.238l2.423-4.854l2.178-3.636
		h6.055l0.971-6.795h0.733l0.483,0.244l4.601,0.726l0.488-2.421l-1.695-3.882v-0.488l0.97-2.662v-0.489l0.238-0.24h0.242v-0.248
		l12.605-6.782l-0.486-6.556l0,0v-0.238l2.424-4.851l0.485-0.972l0,0l3.88-8.972l0.242-0.245l0,0l3.147-3.151l1.94-3.635v-0.481l0,0
		l1.696-2.918l-1.453-3.639v-0.24h-0.244v-3.88h-1.94l-3.633,1.695c-1.697,1.214-4.121,0.726-7.271-1.209
		c-1.213-0.97-1.213-3.4-0.486-7.035l-1.937-0.242l-0.966,1.214c-2.183,2.425-3.882,3.882-4.366,3.882c-0.482,0-0.727,0-1.211-0.247
		c-0.244-0.723-0.73-1.939-0.73-3.877c0-2.188,0-3.637,0.73-4.123c0.484-0.727,0.971-0.975,1.45-0.484l4.609-8.49l1.211-3.149
		l0.731-3.644l-2.67-2.177c-0.723-0.73-0.969-2.427-0.483-4.853v-1.453c0-0.727-0.486-1.695-1.454-2.427h-0.483l-0.249,0.732
		c-0.726,1.936-2.421,2.909-5.089,2.181C657.728,632.943,656.278,632.943,654.582,633.429L654.582,633.429z"/>
	<path fill="none" stroke="#184491" stroke-width="2" stroke-miterlimit="10" d="M786.479,688.294
		c2.18-0.244,3.395-1.215,3.876-2.427v-0.237l0.244-0.731h0.972l4.36-0.244v-3.153c-1.21,0-2.426-0.484-3.632-1.459l-7.273-6.541
		v-0.244l-3.151-9.216l-4.361-4.368c-5.333-0.237-9.451-0.237-12.358,0l-0.974,0.247l0.243,2.909v0.482v0.73h-0.726l-3.877,1.699
		l-0.728-0.489c-3.15-3.15-5.09-4.363-6.299-3.634c-8.486,4.123-13.332,6.063-14.782,5.092c-0.972,0.245-2.183,1.211-3.879,2.906
		l-0.727,0.974l-0.97-0.974c-2.421-2.176-3.634-4.117-3.634-5.573c0-0.967,1.693-2.917,4.604-6.063
		c3.396-3.886,5.089-6.064,5.089-6.554l-0.728-1.203c-0.965-0.492-2.906,0.481-5.33,2.418c-2.421,1.7-3.879,2.429-4.847,2.182
		c-0.483,0-0.973-0.73-1.211-1.936l-0.246-0.488l-2.178-3.884l-4.602,2.91l-0.487,0.49l-0.239-0.49h-0.246
		c-3.394-1.937-6.542-3.149-9.693-4.363c-2.179-0.727-4.363,0.245-6.544,2.914l2.18,3.639c1.452,3.636,2.184,6.058,1.452,7.759
		c-0.24,0.727-0.968,1.456-1.937,1.456c-1.458,0.482-3.634,0-6.3-2.185c-2.184-1.458-3.88-2.665-5.331-3.394l-2.907-1.212v0.237l0,0
		l0.239,0.491v5.334l-3.878,4.365v4.122l1.7,4.364l0.239,0.241l-2.667,4.127l-1.696,3.883v0.239l-3.632,3.637l-6.06,13.827
		l0.244,7.513l-0.244,0.248l-13.085,7.511l-0.728,1.457l1.695,3.88v0.246v0.241l-1.214,5.09l-5.328-0.722l-1.211,6.546h-6.791
		l-1.451,2.425l0,0l-1.933,4.121l-1.214,15.28l1.453,3.148l0.242,0.489v3.152l2.904,3.641l0.248,0.482v2.907l7.753-0.477
		l0.484-0.729v-0.248h0.246v-0.239l2.179-2.911l-4.846-4.359l-0.491-0.488l-2.664-2.186l-0.239-0.238l-0.246-0.247v-4.852h4.124
		l0.48-1.69l-1.695-4.854h9.455l16.716-8.006l2.183-3.636l0.484-1.212l3.395,1.456h0.246l0.237,0.726l1.458,1.695l1.695-0.242
		l-0.487-3.635h5.578l5.329,0.967l2.181-3.63l0.243-0.246v-0.248l0.483-0.237l5.814-1.701l0.975-8.484l6.054,5.339l2.425,0.483
		l1.211-1.455l-0.73-18.437v-0.481v-0.971l4.122,0.726h0.245l0.484,0.245l0.244,0.237l6.543,11.883l8.238-0.967l1.455-0.481
		l1.212-2.912l-2.424-1.941l-0.728-0.972l5.575-1.932l0.489-0.252l0.24-0.24l2.179,2.425l1.941-0.968v-3.641l1.208-0.237h4.124
		c2.906,0.237,5.088,1.695,6.782,3.878l0.487,0.968l1.695-5.818c0.97-1.451,2.905-1.702,5.818-0.481l0.481,0.233v0.248l0.245,0.24
		c0.243,0.243,0.725,0.487,0.968,0.487c1.213-0.487,5.575-3.397,12.602-8.966C781.389,691.201,783.327,689.269,786.479,688.294z"/>
	<path fill="none" stroke="#184491" stroke-width="2" stroke-miterlimit="10" d="M786.814,546.846l-0.246-0.238L781.237,542
		l-2.904,1.458c-1.941,4.358-4.607,7.029-8.003,8.249c-0.966,0.479-2.179,0.236-2.905-0.49c-0.969-1.21-0.487-3.881,1.211-7.997
		l-7.997,5.081l-0.242,0.491h-0.243h-7.026l-6.302,3.151v0.488l-6.792,0.241l-3.632,1.934l-1.695,3.403l-0.484,0.485h-7.998
		c-1.456,0-4.604,2.428-9.698,7.518c2.427,0.971,3.641,1.942,4.122,2.669l0.245,1.445v-0.229l3.634,13.576l0,0l0.242,0.724v0.975
		h-0.242l-0.483,0.245h-0.241l-9.697,13.339l0.485,3.397c1.455-1.22,2.666-1.461,3.636-0.979c1.214,0.487,1.693,2.433,1.214,5.34
		c-0.488,4.606,0.239,9.698,2.421,14.549l3.394,3.635c1.212,1.219,1.695,2.429,1.449,3.643l-1.692,2.422l2.179,2.913
		c1.209,2.425,0.241,6.547-2.666,12.365l3.149,5.339l0.489,1.212l1.939-1.212c3.147-2.914,5.813-3.641,7.993-2.914
		c1.458,0.487,2.178,1.698,2.426,2.914c0.245,1.695-1.698,4.609-6.062,8.97l-3.388,4.368l1.695,2.668
		c2.423-2.181,4.361-2.911,5.574-2.429c1.457,0,5.575-1.45,12.596-5.094c2.189-1.207,5.094,0,8.729,3.643l1.452-0.728l-0.239-2.915
		l-0.727-0.482c-0.485-0.725,0-1.453,0.727-2.181l-1.212-4.608c-0.241-0.726-0.241-1.693,0-2.427
		c0.728-0.726,1.695-1.212,2.666-1.698l2.183-1.939l-1.213-2.909v-0.237h0.239v-0.247c0.974-1.458,0.974-2.667,0.731-3.393
		c-0.971-1.707-0.242-2.908,1.695-4.611l2.666-2.424l-0.485-0.483l-0.726-0.732l3.154-1.452v-3.883c0-1.457,1.206-3.391,4.598-5.824
		l1.457-1.207l0,0l-3.636-4.12c-1.213-1.704-0.727-3.884,1.455-6.066v-0.484l7.514-6.3l0.243-1.703
		c-1.457-0.489-1.942-3.15-1.209-7.275c0.966-6.55,3.872-9.701,8.961-10.42l0,0h0.485l3.149,1.689h3.395l3.152-3.879l0,0l0,0
		l0.244-0.243l3.874-2.428l-0.484-3.394v-0.725l0.484-0.489l0.973-0.478l1.213-1.464l0.235-0.242l-2.421-4.118
		c-2.422-3.156-4.604-6.061-6.06-9.461c-1.21-2.186-0.966-4.61,0.729-7.275l-4.363-2.671L786.814,546.846z"/>
	<path fill="none" stroke="#184491" stroke-width="2" stroke-miterlimit="10" d="M806.618,579.302l-0.482,0.245l-4.123,2.904
		l-3.635,4.127h-0.242v0.487h-5.334l0,0l-2.905-1.694c-3.634,0.966-5.574,3.388-6.301,7.993l-0.239,4.131l2.906-2.671l-1.94,8.003
		v0.243v0.244l-7.996,7.031c-1.214,1.455-1.7,2.673-1.214,3.396l1.457,1.699c1.699,1.455,2.665,2.671,2.423,3.639
		c0,0.727-0.246,1.458-0.724,1.939l-5.09,4.363c0.243,1.214,0.243,3.153,0,5.337v0.727l-0.245,0.247l-1.939,0.726
		c0,1.212-0.48,1.939-1.695,3.149l-2.668,2.669v0.241c0.487,1.219,0.487,2.671-0.482,4.859c1.211,2.424,1.211,4.119,0,4.848
		l-2.427,2.424l-0.482,0.246l-1.213,0.481v0.486l1.695,5.82h0.489c4.118-0.486,8.479-0.486,13.33,0h0.48v0.242l5.337,5.34v0.239
		h0.239l3.153,8.971l6.542,6.07l2.667,0.965l0.239-7.522l6.059,6.062l0.968-0.967l4.366-8.971l0.722-5.1l0.726,0.252h0.488
		l4.605,0.239l-0.245-3.643v-0.724v-0.483h0.728l6.059,0.24c3.151-3.149,4.606-5.82,4.606-7.996l-0.967-8.739l5.331,1.7l1.456-2.422
		l-2.422-2.427l-0.727-0.977l4.842-4.849l0.246,0.491h0.481l2.911,1.695v-0.728l-1.939-4.365l0.728-0.728l1.211-0.729l-0.486-1.693
		l-2.424-4.61l0.484-0.244l0.488-0.488l6.54-3.63l0.247-2.671c-5.575-2.911-8.486-5.333-8.003-6.547
		c0.244-0.968,0.728-1.214,1.943-1.214l7.268,1.214l0.245-4.364v-0.488l3.635-3.635l0.968-2.67c-1.458-0.48-2.422-1.453-3.393-2.419
		l-0.242-0.491v-0.487l0.242-1.208l-0.242-0.482l-0.487-0.244l-0.24,0.244c-0.485,0.968-1.694,1.691-3.392,1.691
		c-2.669,0-4.848-1.208-6.542-2.907v-0.236h-0.246l-1.937-3.402l-0.484,0.485c-0.244,1.458-1.211,2.917-2.911,4.126
		c-3.148,1.449-6.058,1.935-8.962,0.726c-1.946-0.726-3.154-2.184-3.883-4.37l-0.728-4.85c-0.726-4.607-1.693-7.275-3.15-7.999
		c-1.45-0.969-2.906-1.213-4.12-0.969l0.246,4.117L806.618,579.302z"/>
	<path fill="none" stroke="#184491" stroke-width="2" stroke-miterlimit="10" d="M843.796,510.253
		c-2.669,1.212-4.848,2.183-6.548,2.422c-1.455,0-3.874-0.483-7.266-1.695l-5.576-0.726c-1.697,0.726-3.635,3.148-6.3,7.275
		l3.633,7.76l-6.061,3.395h-0.242l-4.843-1.456c1.94,3.636,2.422,5.82,1.698,6.792l-0.488,1.94c-1.21,2.909-2.183,4.61-3.149,5.573
		l-8.485,7.524l2.183,1.215l-1.457,1.21c-1.934,1.694-2.42,3.635-1.452,5.094l5.822,8.968h0.235v0.245l2.67,4.849v0.24l0.241,0.244
		l-0.241,0.483v0.489v0.246l-0.485,0.48c1.213,0,2.181,0.486,3.392,1.215c1.938,1.213,3.394,4.61,4.116,9.699l0.975,4.849
		c0.484,1.211,0.967,1.939,2.182,2.421c1.935,0.976,4.359,0.732,6.54-0.726c1.21-0.723,1.943-1.453,1.695-2.18l-0.242-0.241v-0.487
		l4.12-2.914l0.484,0.491l3.153,5.33c1.211,0.972,2.42,1.458,4.361,1.458l1.213-0.236l0,0l-0.975-2.917l4.608,1.939h1.211h0.241
		l0.246,0.482l4.362,3.397l1.21-1.939l-0.244-8.247l0.244-0.238l0,0l2.913-3.642c0.24-0.481,0-1.455-1.213-2.666l-0.729-0.728
		l0.483-0.483l0.246-0.484l0.728-0.242l6.053-9.944l0.491,0.244l1.21,0.242l0.485,0.24v0.489l-0.485,3.875h0.485l6.782-6.058
		l-0.485-3.154h-1.209l-2.423,0.234l4.117-11.148l-3.633-0.48l0,0h-0.484v-0.49l-1.209-1.454c-0.725-1.456-0.725-2.663,0.24-3.878
		l5.814-0.245h3.638c0-1.213-0.731-3.398-2.905-7.036l-5.095-1.695l5.327-5.092v-1.213l-2.659,0.49h-0.973v-0.251l-0.243-0.24
		l-0.238-0.486c-0.73-2.427-2.179-4.364-4.363-5.089l-9.696,0.236l-4.118,4.853v0.246l-1.212-0.246l-15.27-4.853l14.786-3.875
		c0.969,0,3.387-2.427,7.508-7.28l-5.088-3.634L843.796,510.253z"/>
	<path fill="none" stroke="#184491" stroke-width="2" stroke-miterlimit="10" d="M866.206,500.647l1.695-1.935l0,0l0,0v-0.246
		l-6.056-4.848c-3.152-2.184-5.816-2.911-7.753-2.665l-2.667,0.968v5.096c-0.487,1.696-1.213,3.631-2.909,5.088l-0.971,0.969
		l2.424,2.917h0.243l0.727,1.938l2.913,1.212c1.694-1.212,2.903-1.698,4.114-1.459l5.096,0.969l0.24-1.695
		C863.542,503.557,864.754,501.619,866.206,500.647z"/>
	<path fill="none" stroke="#184491" stroke-width="2" stroke-miterlimit="10" d="M640.648,777.68l-0.726,1.214v0.244l-0.245,0.487
		l-9.938,2.423l0.486,1.212l3.154,3.642c-0.246,0-0.727,0.244-0.974,0.244l-4.604,2.42l-7.272,5.578
		c-2.421,2.913-1.941,8.247,1.702,16.252l7.269,0.726h0.238v0.239l7.273,3.402l7.754-1.217c3.15-0.725,6.785-3.637,11.392-9.218
		h0.241l0.485-0.476l3.391-0.977l-0.966-10.184v-0.481l4.358-6.309v-0.247h0.241l3.397-2.661c0.484-2.913,0.24-5.578-0.971-7.768
		c-0.969-1.937-2.177-2.664-3.393-2.664l0.484,3.64l-6.541-1.214l-2.907,1.693h-0.242l0,0H640.648z"/>
	<path fill="none" stroke="#184491" stroke-width="2" stroke-miterlimit="10" d="M879.471,635.39
		c-7.75,5.578-13.33,12.609-16.962,21.103c-3.152,7.273-5.575,10.91-7.27,11.882l1.695,13.335v0.244l0,0l-1.21,9.218
		c-0.485,2.91,0,4.844,0.721,5.334l9.939,6.545l0,0h0.242l0.245,0.724l0,0c0.482,2.186,1.934,4.133,3.872,6.555
		c0.978,1.455,2.187,2.181,3.152,2.664l1.456-16.003v-0.484l7.031-16.977l2.42-20.13v-0.244l0.244-0.24l2.183-5.338l-1.699-4.609
		v-0.242h-0.243l-0.485-6.306l0.244-0.234l0.242-0.251l1.21-1.452l0.731-1.701L879.471,635.39z"/>
</g>
</svg>
